SplineFontDB: 3.0
FontName: Manjari-Thin
FullName: Manjari Thin
FamilyName: Manjari
Weight: Thin
Copyright: Digitized data copyright (c) 2017, Santhosh Thottingal, Kavya Manohar, Swathanthra Malayalam Computing(http://smc.org.in) with reserved font name "Manjari".
Version: 1.2
ItalicAngle: 0
UnderlinePosition: -600
UnderlineWidth: 100
Ascent: 1434
Descent: 614
InvalidEm: 0
sfntRevision: 0x00010000
LayerCount: 2
Layer: 0 0 "Back" 1
Layer: 1 0 "Fore" 0
XUID: [1021 348 -393509193 14261458]
StyleMap: 0x0000
FSType: 0
OS2Version: 4
OS2_WeightWidthSlopeOnly: 0
OS2_UseTypoMetrics: 1
CreationTime: 1201144287
ModificationTime: 1505018135
PfmFamily: 33
TTFWeight: 100
TTFWidth: 5
LineGap: 0
VLineGap: 0
Panose: 0 0 4 3 0 0 0 0 0 0
OS2TypoAscent: 1400
OS2TypoAOffset: 0
OS2TypoDescent: -800
OS2TypoDOffset: 0
OS2TypoLinegap: 0
OS2WinAscent: 1400
OS2WinAOffset: 0
OS2WinDescent: 800
OS2WinDOffset: 0
HheadAscent: 1400
HheadAOffset: 0
HheadDescent: -800
HheadDOffset: 0
OS2SubXSize: 1331
OS2SubYSize: 1433
OS2SubXOff: 274
OS2SubYOff: 286
OS2SupXSize: 1331
OS2SupYSize: 1433
OS2SupXOff: -944
OS2SupYOff: 983
OS2StrikeYSize: 102
OS2StrikeYPos: 530
OS2Vendor: 'SMC '
OS2CodePages: 00000001.00000000
OS2UnicodeRanges: 80800003.00002000.00000000.00000000
MarkAttachClasses: 1
DEI: 91125
LangName: 1100 "" "" "" "" "" "" "" "" "" "" "" "" "" "" "" "" "" "" "+DS4NHg1NDRwNMA0/"

StartChar: .notdef
Encoding: 65536 -1 0
Width: 692
GlyphClass: 2
Flags: HW
LayerCount: 2
Fore
SplineSet
45 1 m 1
 45 1119 l 1
 606 1119 l 1
 606 1 l 1
 45 1 l 1
102 55 m 1
 552 55 l 1
 552 1063 l 1
 102 1063 l 1
 102 55 l 1
EndSplineSet
EndChar

StartChar: exclam
Encoding: 33 33 4
Width: 281
GlyphClass: 2
Flags: HW
LayerCount: 2
Fore
SplineSet
201 49 m 0
 201 16 174 -12 141 -12 c 0
 108 -12 80 16 80 49 c 0
 80 82 108 109 141 109 c 0
 174 109 201 82 201 49 c 0
133 1134 m 0
 154 1134 188 1120 188 1099 c 2
 173 267 l 2
 173 246 154 230 133 230 c 0
 112 230 95 246 95 267 c 2
 95 268 l 1
 80 1099 l 2
 80 1120 112 1134 133 1134 c 0
EndSplineSet
EndChar

StartChar: numbersign
Encoding: 35 35 6
Width: 1262
GlyphClass: 2
Flags: HW
LayerCount: 2
Fore
SplineSet
621 1374 m 5
 641 1373 657 1357 657 1337 c 4
 657 1334 657 1329 656 1326 c 6
 580 1036 l 5
 954 1036 l 5
 1035 1346 l 6
 1039 1362 1056 1374 1072 1374 c 6
 1073 1374 l 5
 1093 1373 1109 1357 1109 1337 c 4
 1109 1334 1109 1329 1108 1326 c 6
 1032 1036 l 5
 1255 1036 l 6
 1276 1036 1293 1020 1293 999 c 4
 1293 978 1276 961 1255 961 c 6
 1012 961 l 5
 883 470 l 5
 1110 470 l 6
 1131 470 1147 454 1147 433 c 4
 1147 412 1131 395 1110 395 c 6
 863 395 l 5
 763 15 l 6
 759 -1 742 -14 726 -14 c 4
 705 -14 689 3 689 24 c 4
 689 27 689 31 690 34 c 6
 785 395 l 5
 411 395 l 5
 311 15 l 6
 307 -1 290 -14 274 -14 c 4
 253 -14 237 3 237 24 c 4
 237 27 237 31 238 34 c 6
 333 395 l 5
 108 395 l 6
 87 395 70 412 70 433 c 4
 70 454 87 470 108 470 c 6
 353 470 l 5
 482 961 l 5
 253 961 l 6
 232 961 216 978 216 999 c 4
 216 1020 232 1036 253 1036 c 6
 502 1036 l 5
 583 1346 l 6
 587 1362 604 1374 620 1374 c 6
 621 1374 l 5
560 961 m 5
 431 470 l 5
 805 470 l 5
 934 961 l 5
 560 961 l 5
EndSplineSet
EndChar

StartChar: dollar
Encoding: 36 36 7
Width: 1370
GlyphClass: 2
Flags: HW
LayerCount: 2
Fore
SplineSet
704 1472 m 0
 725 1472 742 1455 742 1434 c 2
 742 1272 l 1
 967 1262 1159 1171 1249 1033 c 0
 1252 1029 1253 1021 1253 1017 c 0
 1253 998 1236 983 1214 983 c 0
 1200 983 1184 991 1178 1001 c 0
 1101 1121 940 1195 743 1205 c 1
 744 704 l 1
 1028 685 1309 654 1309 421 c 0
 1309 188 1025 86 746 77 c 1
 746 29 746 -19 746 -67 c 0
 746 -88 730 -104 709 -104 c 0
 688 -104 671 -88 671 -67 c 0
 671 -19 671 29 671 77 c 1
 399 84 169 174 64 342 c 0
 62 346 60 354 60 358 c 0
 60 377 78 391 100 391 c 0
 114 391 129 383 135 373 c 0
 227 225 425 149 670 143 c 1
 669 654 l 1
 378 674 83 698 83 935 c 0
 83 998 109 1045 143 1084 c 0
 244 1201 453 1266 667 1272 c 1
 667 1434 l 2
 667 1454 683 1472 704 1472 c 0
744 649 m 1
 745 143 l 1
 979 151 1229 231 1229 421 c 0
 1229 602 998 631 744 649 c 1
669 709 m 1
 668 1206 l 1
 446 1199 163 1120 163 935 c 0
 163 750 407 727 669 709 c 1
EndSplineSet
EndChar

StartChar: percent
Encoding: 37 37 8
Width: 1093
GlyphClass: 2
Flags: HW
LayerCount: 2
Fore
SplineSet
957 1423 m 5
 977 1422 993 1405 993 1385 c 4
 993 1379 991 1370 988 1365 c 6
 170 31 l 6
 164 21 150 12 138 12 c 4
 117 12 100 29 100 50 c 4
 100 56 103 65 106 70 c 6
 924 1405 l 6
 930 1415 944 1423 956 1423 c 6
 957 1423 l 5
780 513 m 4
 893 513 985 421 985 308 c 4
 985 195 893 102 780 102 c 4
 667 102 574 195 574 308 c 4
 574 421 667 513 780 513 c 4
780 438 m 4
 707 438 649 381 649 308 c 4
 649 235 707 177 780 177 c 4
 853 177 910 235 910 308 c 4
 910 381 853 438 780 438 c 4
315 1357 m 4
 428 1357 520 1264 520 1151 c 4
 520 1038 428 946 315 946 c 4
 202 946 109 1038 109 1151 c 4
 109 1264 202 1357 315 1357 c 4
315 1282 m 4
 242 1282 184 1224 184 1151 c 4
 184 1078 242 1021 315 1021 c 4
 388 1021 445 1078 445 1151 c 4
 445 1224 388 1282 315 1282 c 4
EndSplineSet
EndChar

StartChar: ampersand
Encoding: 38 38 9
Width: 1196
GlyphClass: 2
Flags: HW
LayerCount: 2
Fore
SplineSet
479 -11 m 0
 285 -11 100 135 100 352 c 0
 100 576 295 680 443 758 c 1
 374 847 265 943 265 1095 c 0
 265 1247 392 1374 545 1374 c 0
 699 1374 824 1249 824 1096 c 0
 824 917 671 804 549 736 c 1
 653 602 757 468 861 334 c 1
 901 417 928 522 932 634 c 0
 932 653 948 668 967 668 c 0
 986 668 1002 652 1002 633 c 0
 1002 495 961 370 908 272 c 1
 968 194 1029 116 1089 38 c 0
 1093 33 1097 23 1097 16 c 0
 1097 -3 1081 -19 1062 -19 c 0
 1052 -19 1040 -12 1034 -4 c 0
 979 67 924 138 869 209 c 1
 787 92 643 -11 479 -11 c 0
754 1096 m 0
 754 1209 660 1304 546 1304 c 0
 432 1304 335 1212 335 1093 c 0
 335 970 444 873 506 792 c 1
 613 851 754 945 754 1096 c 0
170 349 m 0
 170 176 322 59 479 59 c 0
 625 59 754 159 824 267 c 1
 712 412 599 557 487 702 c 1
 352 630 170 545 170 349 c 0
EndSplineSet
EndChar

StartChar: quotesingle
Encoding: 39 39 10
Width: 304
GlyphClass: 2
Flags: HW
LayerCount: 2
Fore
SplineSet
148 1434 m 0
 190 1434 205 1400 204 1358 c 1
 182 1040 l 2
 179 998 175 964 147 964 c 0
 119 964 111 999 110 1041 c 2
 100 1358 l 1
 100 1399 107 1434 148 1434 c 0
EndSplineSet
EndChar

StartChar: parenleft
Encoding: 40 40 11
Width: 653
GlyphClass: 2
Flags: HW
LayerCount: 2
Fore
SplineSet
510 1211 m 4
 531 1211 547 1194 547 1173 c 4
 547 1163 540 1150 532 1144 c 4
 311 973 175 695 175 416 c 0
 175 134 314 -146 538 -316 c 4
 546 -322 553 -336 553 -346 c 4
 553 -367 537 -384 516 -384 c 4
 509 -384 499 -380 493 -376 c 4
 250 -191 100 110 100 416 c 0
 100 719 246 1017 486 1203 c 4
 492 1207 503 1211 510 1211 c 4
EndSplineSet
EndChar

StartChar: asterisk
Encoding: 42 42 13
Width: 955
GlyphClass: 2
Flags: HW
LayerCount: 2
Fore
SplineSet
448 1399 m 6
 448 1418 464 1434 483 1434 c 4
 502 1434 518 1418 518 1399 c 6
 523 1053 l 5
 905 1297 l 6
 910 1300 918 1303 924 1303 c 4
 943 1303 959 1287 959 1268 c 4
 959 1257 952 1244 943 1238 c 6
 555 990 l 5
 943 754 l 6
 952 748 960 735 960 724 c 4
 960 705 944 689 925 689 c 4
 919 689 911 691 906 694 c 6
 525 927 l 5
 531 509 l 5
 531 508 l 6
 531 489 515 473 496 473 c 4
 477 473 461 489 461 508 c 6
 455 926 l 5
 54 670 l 6
 49 667 41 665 35 665 c 4
 16 665 0 681 -0 700 c 4
 0 711 8 723 17 729 c 6
 423 989 l 5
 19 1236 l 6
 10 1242 1 1255 1 1266 c 4
 1 1285 16 1301 36 1301 c 4
 42 1301 50 1299 55 1296 c 6
 453 1053 l 5
 448 1398 l 5
 448 1399 l 6
EndSplineSet
EndChar

StartChar: plus
Encoding: 43 43 14
Width: 908
GlyphClass: 2
Flags: HW
LayerCount: 2
Fore
SplineSet
456 893 m 0
 477 893 494 876 494 855 c 2
 494 466 l 1
 821 466 l 2
 842 466 859 450 859 429 c 0
 859 408 842 391 821 391 c 2
 494 391 l 1
 494 28 l 2
 494 7 478 -10 457 -10 c 0
 436 -10 419 7 419 28 c 2
 419 391 l 1
 88 391 l 2
 67 391 50 408 50 429 c 0
 50 450 67 466 88 466 c 2
 419 466 l 1
 419 855 l 2
 419 876 435 893 456 893 c 0
EndSplineSet
EndChar

StartChar: comma
Encoding: 44 44 15
Width: 474
GlyphClass: 2
Flags: HW
LayerCount: 2
Fore
SplineSet
261 240 m 0
 336 240 375 174 375 88 c 4
 375 -113 289 -249 158 -334 c 0
 151 -339 145 -341 138 -341 c 0
 117 -341 100 -321 100 -301 c 0
 100 -290 105 -279 117 -271 c 0
 211 -210 279 -114 295 14 c 1
 284 10 273 8 261 8 c 0
 200 8 150 60 150 124 c 0
 150 188 200 240 261 240 c 0
EndSplineSet
EndChar

StartChar: hyphen
Encoding: 45 45 16
Width: 601
GlyphClass: 2
Flags: HW
LayerCount: 2
Fore
SplineSet
138 471 m 6
 464 471 l 6
 485 471 501 455 501 434 c 4
 501 413 485 396 464 396 c 6
 138 396 l 6
 117 396 100 413 100 434 c 4
 100 455 117 471 138 471 c 6
138 471 m 6
 464 471 l 6
 485 471 501 455 501 434 c 4
 501 413 485 396 464 396 c 6
 138 396 l 6
 117 396 100 413 100 434 c 4
 100 455 117 471 138 471 c 6
138 471 m 6
 464 471 l 6
 485 471 501 455 501 434 c 4
 501 413 485 396 464 396 c 6
 138 396 l 6
 117 396 100 413 100 434 c 4
 100 455 117 471 138 471 c 6
EndSplineSet
EndChar

StartChar: period
Encoding: 46 46 17
Width: 395
GlyphClass: 2
Flags: HW
LayerCount: 2
Fore
SplineSet
100 98 m 4
 100 152 144 196 198 196 c 4
 252 196 296 152 296 98 c 4
 296 44 252 0 198 0 c 4
 144 0 100 44 100 98 c 4
EndSplineSet
EndChar

StartChar: slash
Encoding: 47 47 18
Width: 617
GlyphClass: 2
Flags: HW
LayerCount: 2
Fore
SplineSet
535 1350 m 6
 540 1363 555 1374 570 1374 c 4
 591 1374 608 1358 608 1337 c 4
 608 1333 607 1326 605 1322 c 6
 82 13 l 6
 77 0 61 -11 47 -11 c 4
 26 -11 10 5 10 26 c 4
 10 30 11 36 13 40 c 6
 535 1350 l 6
EndSplineSet
EndChar

StartChar: zero
Encoding: 48 48 19
Width: 1200
GlyphClass: 2
Flags: HW
LayerCount: 2
Fore
SplineSet
608 1379 m 0
 938 1379 1094 998 1094 682 c 0
 1094 372 929 -17 602 -17 c 0
 278 -17 106 364 106 671 c 0
 106 983 277 1379 608 1379 c 0
1018 681 m 0
 1018 951 893 1304 612 1304 c 0
 329 1304 182 941 182 671 c 0
 182 408 326 58 602 58 c 0
 881 58 1018 415 1018 681 c 0
EndSplineSet
EndChar

StartChar: one
Encoding: 49 49 20
Width: 1200
GlyphClass: 2
Flags: HW
LayerCount: 2
Fore
SplineSet
613 1374 m 2
 614 1374 l 2
 635 1374 652 1358 652 1337 c 2
 649 75 l 1
 827 75 l 2
 848 75 865 58 865 37 c 0
 865 16 848 0 827 0 c 2
 373 0 l 2
 352 0 335 16 335 37 c 0
 335 58 352 75 373 75 c 2
 574 75 l 1
 577 1213 l 1
 534 1160 472 1102 391 1086 c 0
 389 1086 385 1085 383 1085 c 0
 362 1085 346 1101 346 1122 c 0
 346 1139 360 1156 377 1159 c 0
 458 1174 552 1301 581 1354 c 0
 587 1365 601 1374 613 1374 c 2
EndSplineSet
EndChar

StartChar: two
Encoding: 50 50 21
Width: 1200
GlyphClass: 2
Flags: HW
LayerCount: 2
Fore
SplineSet
178 1083 m 4
 225 1235 375 1376 570 1376 c 4
 812 1376 996 1192 996 943 c 4
 996 883 984 822 960 766 c 4
 873 561 666 457 506 328 c 4
 407 248 320 177 250 71 c 5
 1014 71 l 6
 1033 71 1048 55 1048 36 c 4
 1048 17 1033 1 1014 1 c 6
 186 1 l 6
 167 1 152 17 152 36 c 4
 152 41 153 49 156 54 c 4
 236 189 340 283 462 382 c 4
 616 507 816 605 896 793 c 4
 916 840 926 891 926 942 c 4
 926 1148 764 1306 572 1306 c 4
 410 1306 285 1189 246 1062 c 4
 242 1048 227 1037 212 1037 c 4
 193 1037 176 1053 176 1072 c 4
 176 1075 177 1080 178 1083 c 4
EndSplineSet
EndChar

StartChar: three
Encoding: 51 51 22
Width: 1200
GlyphClass: 2
Flags: HW
LayerCount: 2
Fore
SplineSet
607 735 m 1
 614 735 l 2
 766 735 893 861 893 1013 c 0
 893 1169 761 1298 602 1298 c 0
 465 1298 364 1208 326 1104 c 0
 321 1090 305 1079 290 1079 c 0
 269 1079 253 1096 253 1117 c 0
 253 1121 254 1126 255 1130 c 0
 303 1260 431 1373 603 1373 c 0
 803 1373 968 1209 968 1013 c 0
 968 876 887 759 783 703 c 1
 906 660 1002 554 1002 393 c 0
 1002 167 806 -10 578 -10 c 0
 426 -10 289 65 205 182 c 0
 201 187 198 197 198 204 c 0
 198 225 215 241 236 241 c 0
 247 241 260 234 266 225 c 0
 335 128 452 65 578 65 c 0
 765 65 927 209 927 393 c 0
 927 583 791 643 609 655 c 5
 586 657 l 2
 567 658 550 674 550 694 c 0
 550 712 565 728 583 731 c 2
 607 735 l 1
EndSplineSet
EndChar

StartChar: four
Encoding: 52 52 23
Width: 1200
GlyphClass: 2
Flags: HW
LayerCount: 2
Fore
SplineSet
789 -11 m 0
 768 -11 752 5 752 26 c 2
 752 27 l 1
 751 352 l 1
 94 354 l 2
 73 354 57 371 57 392 c 0
 57 399 60 409 64 414 c 2
 755 1358 l 2
 761 1366 775 1373 785 1373 c 0
 806 1373 823 1357 823 1336 c 2
 826 427 l 1
 1105 426 l 1
 1106 426 l 2
 1127 426 1143 409 1143 388 c 0
 1143 367 1127 351 1106 351 c 2
 1105 351 l 1
 826 352 l 1
 827 27 l 1
 827 26 l 2
 827 5 810 -11 789 -11 c 0
751 427 m 1
 748 1223 l 1
 169 429 l 1
 751 427 l 1
EndSplineSet
EndChar

StartChar: five
Encoding: 53 53 24
Width: 1200
GlyphClass: 2
Flags: HW
LayerCount: 2
Fore
SplineSet
597 835 m 0
 475 835 353 771 284 670 c 0
 278 661 264 653 253 653 c 0
 232 653 215 670 215 691 c 0
 215 693 216 695 216 697 c 2
 322 1332 l 2
 325 1349 341 1363 359 1363 c 2
 995 1363 l 2
 1016 1363 1033 1347 1033 1326 c 0
 1033 1305 1016 1288 995 1288 c 2
 390 1288 l 1
 310 807 l 1
 391 872 493 910 597 910 c 0
 889 910 1038 679 1038 448 c 0
 1038 218 890 -12 586 -12 c 0
 385 -12 235 109 166 251 c 0
 164 255 162 263 162 268 c 0
 162 289 179 306 200 306 c 0
 213 306 227 296 233 284 c 0
 291 165 416 63 585 63 c 0
 838 63 963 257 963 451 c 0
 963 643 840 835 597 835 c 0
EndSplineSet
EndChar

StartChar: six
Encoding: 54 54 25
Width: 1200
GlyphClass: 2
Flags: HW
LayerCount: 2
Fore
SplineSet
638 868 m 0
 881 868 1080 671 1080 426 c 0
 1080 187 886 -10 651 -10 c 4
 290 -10 120 352 120 696 c 0
 120 1032 296 1375 647 1375 c 0
 820 1375 951 1277 1019 1162 c 0
 1022 1157 1024 1149 1024 1143 c 0
 1024 1122 1008 1106 987 1106 c 0
 975 1106 960 1115 954 1125 c 0
 898 1220 790 1300 647 1300 c 0
 342 1300 195 992 195 696 c 0
 195 636 200 584 209 529 c 1
 255 725 435 868 638 868 c 0
638 793 m 0
 446 793 272 636 272 424 c 0
 272 215 449 65 650 65 c 0
 845 65 1005 229 1005 427 c 0
 1005 630 839 793 638 793 c 0
EndSplineSet
EndChar

StartChar: seven
Encoding: 55 55 26
Width: 1200
GlyphClass: 2
Flags: HW
LayerCount: 2
Fore
SplineSet
526 -14 m 5
 506 -13 490 4 490 24 c 4
 490 27 491 32 492 35 c 4
 633 476 803 892 998 1286 c 5
 142 1286 l 6
 121 1286 104 1302 104 1323 c 4
 104 1344 121 1361 142 1361 c 6
 1058 1361 l 6
 1079 1361 1096 1344 1096 1323 c 4
 1096 1318 1094 1310 1092 1306 c 4
 888 897 711 470 563 13 c 4
 559 -2 542 -14 527 -14 c 6
 526 -14 l 5
EndSplineSet
EndChar

StartChar: eight
Encoding: 56 56 27
Width: 1200
GlyphClass: 2
Flags: HW
LayerCount: 2
Fore
SplineSet
228 1018 m 0
 228 1215 401 1372 600 1372 c 0
 798 1372 974 1217 974 1018 c 0
 974 879 884 759 774 705 c 1
 905 652 1018 521 1018 362 c 0
 1018 145 816 -11 600 -11 c 0
 383 -11 182 145 182 363 c 0
 182 521 294 653 426 706 c 1
 317 761 228 880 228 1018 c 0
898 1018 m 0
 898 1175 758 1297 600 1297 c 0
 441 1297 304 1174 304 1018 c 0
 304 862 445 740 602 740 c 0
 759 740 898 862 898 1018 c 0
944 362 m 0
 944 538 776 663 598 663 c 0
 420 663 256 537 256 363 c 0
 256 188 423 64 600 64 c 0
 776 64 944 188 944 362 c 0
EndSplineSet
EndChar

StartChar: semicolon
Encoding: 59 59 30
Width: 425
GlyphClass: 2
Flags: HW
LayerCount: 2
Fore
SplineSet
113 647 m 0
 113 701 157 745 211 745 c 0
 265 745 309 701 309 647 c 0
 309 593 265 549 211 549 c 0
 157 549 113 593 113 647 c 0
211 241 m 0
 286 241 341 175 341 89 c 4
 341 -112 239 -248 108 -333 c 0
 101 -338 95 -340 88 -340 c 0
 67 -340 50 -320 50 -300 c 0
 50 -289 55 -278 67 -270 c 0
 161 -209 229 -113 245 15 c 1
 234 11 223 9 211 9 c 0
 150 9 100 61 100 125 c 0
 100 189 150 241 211 241 c 0
EndSplineSet
EndChar

StartChar: less
Encoding: 60 60 31
Width: 995
GlyphClass: 2
Flags: HW
LayerCount: 2
Fore
SplineSet
864 902 m 2
 868 904 876 906 881 906 c 0
 900 906 916 890 916 871 c 0
 916 859 908 845 897 840 c 2
 189 464 l 1
 897 73 l 2
 907 68 916 54 916 42 c 0
 916 23 899 7 880 7 c 0
 875 7 867 9 863 12 c 2
 98 434 l 2
 88 440 80 454 80 465 c 0
 80 477 89 491 99 496 c 2
 864 902 l 2
EndSplineSet
EndChar

StartChar: equal
Encoding: 61 61 32
Width: 1002
GlyphClass: 2
Flags: HW
LayerCount: 2
Fore
SplineSet
865 407 m 2
 886 407 902 391 902 370 c 0
 902 349 886 332 865 332 c 2
 138 332 l 2
 117 332 100 349 100 370 c 0
 100 391 117 407 138 407 c 2
 865 407 l 2
865 407 m 2
 886 407 902 391 902 370 c 0
 902 349 886 332 865 332 c 2
 138 332 l 2
 117 332 100 349 100 370 c 0
 100 391 117 407 138 407 c 2
 865 407 l 2
865 407 m 2
 886 407 902 391 902 370 c 0
 902 349 886 332 865 332 c 2
 138 332 l 2
 117 332 100 349 100 370 c 0
 100 391 117 407 138 407 c 2
 865 407 l 2
865 658 m 2
 886 658 902 641 902 620 c 0
 902 599 886 583 865 583 c 2
 138 583 l 2
 117 583 100 599 100 620 c 0
 100 641 117 658 138 658 c 2
 865 658 l 2
EndSplineSet
EndChar

StartChar: question
Encoding: 63 63 34
Width: 994
GlyphClass: 2
Flags: HW
LayerCount: 2
Fore
SplineSet
100 899 m 0
 100 1113 273 1251 479 1251 c 0
 703 1251 895 1116 895 890 c 0
 895 689 750 580 644 486 c 0
 577 427 510 367 510 255 c 0
 510 234 517 213 517 192 c 0
 517 170 499 152 477 152 c 0
 433 152 428 213 428 256 c 0
 428 394 516 482 590 547 c 0
 690 635 814 720 814 890 c 4
 814 1067 656 1170 480 1170 c 0
 317 1170 181 1067 181 899 c 0
 181 890 183 881 183 872 c 0
 183 850 164 831 142 831 c 0
 107 831 100 862 100 899 c 0
544 36 m 0
 544 3 517 -25 484 -25 c 0
 451 -25 423 3 423 36 c 0
 423 69 451 96 484 96 c 0
 517 96 544 69 544 36 c 0
EndSplineSet
EndChar

StartChar: at
Encoding: 64 64 35
Width: 1827
GlyphClass: 2
Flags: HW
LayerCount: 2
Fore
SplineSet
125 399 m 0
 125 832 479 1181 907 1181 c 0
 1344 1181 1703 827 1703 397 c 0
 1703 212 1602 31 1413 31 c 0
 1308 31 1216 102 1185 195 c 1
 1121 105 1004 38 882 38 c 0
 675 38 511 211 511 417 c 0
 511 622 679 795 883 795 c 0
 999 795 1111 735 1176 650 c 1
 1175 758 l 1
 1175 759 l 2
 1175 780 1192 797 1213 797 c 0
 1234 797 1250 780 1250 759 c 0
 1251 595 1251 432 1251 273 c 0
 1251 179 1324 106 1413 106 c 0
 1558 106 1628 254 1628 398 c 0
 1628 787 1299 1106 906 1106 c 0
 519 1106 200 791 200 399 c 0
 200 24 500 -297 902 -297 c 0
 984 -297 1066 -283 1143 -254 c 0
 1147 -253 1153 -251 1157 -251 c 0
 1178 -251 1194 -268 1194 -289 c 0
 1194 -304 1183 -319 1169 -324 c 0
 1083 -356 992 -372 901 -372 c 0
 457 -372 125 -17 125 399 c 0
883 720 m 0
 720 720 586 580 586 416 c 0
 586 252 718 113 882 113 c 0
 1074 113 1170 264 1170 415 c 0
 1170 567 1073 720 883 720 c 0
EndSplineSet
EndChar

StartChar: braceleft
Encoding: 123 123 36
Width: 545
GlyphClass: 2
Flags: HW
LayerCount: 2
Fore
SplineSet
88 411 m 4
 67 411 50 427 50 448 c 0
 50 467 65 484 85 486 c 0
 173 492 225 561 225 662 c 1
 231 1129 l 2
 233 1260 289 1372 421 1372 c 0
 456 1372 496 1365 496 1330 c 0
 496 1309 479 1292 458 1292 c 0
 446 1292 435 1297 422 1297 c 0
 333 1297 307 1220 306 1128 c 2
 300 661 l 2
 299 565 267 497 209 454 c 1
 276 411 306 338 306 235 c 2
 304 -198 l 2
 304 -299 334 -387 432 -387 c 0
 441 -387 449 -384 458 -384 c 0
 479 -384 495 -401 495 -422 c 0
 495 -454 465 -462 432 -462 c 0
 290 -462 229 -340 229 -201 c 2
 231 232 l 2
 231 340 193 411 88 411 c 4
EndSplineSet
EndChar

StartChar: bar
Encoding: 124 124 37
Width: 350
GlyphClass: 2
Flags: HW
LayerCount: 2
Fore
SplineSet
225 -295 m 2
 225 -319 199 -345 186 -345 c 0
 138 -345 125 -330 125 -294 c 2
 125 1211 l 2
 125 1239 147 1261 174 1261 c 2
 175 1261 l 2
 202 1261 225 1238 225 1210 c 2
 225 -295 l 2
EndSplineSet
EndChar

StartChar: asciitilde
Encoding: 126 126 39
Width: 811
GlyphClass: 2
Flags: HW
LayerCount: 2
Fore
SplineSet
736 1399 m 0
 736 1418 751 1434 771 1434 c 0
 805 1434 811 1393 811 1359 c 0
 811 1244 715 1150 602 1150 c 0
 462 1150 396 1265 311 1322 c 0
 281 1342 252 1358 212 1358 c 0
 134 1358 70 1294 70 1216 c 0
 70 1207 72 1198 72 1189 c 0
 72 1170 56 1154 37 1154 c 0
 6 1154 0 1185 0 1217 c 0
 0 1332 96 1428 211 1428 c 0
 352 1428 418 1311 504 1254 c 0
 534 1234 562 1220 601 1220 c 0
 678 1220 741 1281 741 1360 c 0
 741 1373 736 1386 736 1399 c 0
EndSplineSet
EndChar

StartChar: anuswara
Encoding: 3330 3330 41
Width: 798
GlyphClass: 2
Flags: HW
LayerCount: 2
Fore
SplineSet
399 587 m 4
 564 587 698 453 698 288 c 4
 698 123 564 -11 399 -11 c 4
 234 -11 100 123 100 288 c 4
 100 453 234 587 399 587 c 4
399 512 m 4
 275 512 175 412 175 288 c 4
 175 164 275 64 399 64 c 4
 523 64 623 164 623 288 c 4
 623 412 523 512 399 512 c 4
EndSplineSet
EndChar

StartChar: ml_a
Encoding: 3333 3333 43
Width: 2791
GlyphClass: 2
Flags: HW
LayerCount: 2
Fore
SplineSet
544 455 m 0
 544 684 675 843 827 933 c 1
 782 945 737 947 693 947 c 0
 403 947 169 759 169 469 c 0
 169 268 300 112 450 49 c 0
 465 43 472 34 472 21 c 128
 472 0 459 -18 441 -18 c 128
 434 -18 428 -17 423 -15 c 0
 251 57 100 233 100 462 c 0
 100 796 371 1016 703 1016 c 0
 776 1016 847 1006 916 976 c 1
 986 1003 1056 1016 1127 1016 c 0
 1374 1016 1535 907 1607 719 c 1
 1667 889 1825 1014 2055 1014 c 0
 2388 1014 2691 786 2691 443 c 0
 2691 199 2545 -14 2295 -14 c 0
 2086 -14 1938 147 1938 347 c 0
 1938 553 2094 730 2299 730 c 0
 2417 730 2513 690 2586 608 c 1
 2511 797 2322 943 2065 943 c 0
 1770 943 1644 748 1644 440 c 2
 1644 25 l 2
 1644 7 1627 -10 1609 -10 c 128
 1591 -10 1574 5 1574 24 c 2
 1572 439 l 1
 1569 758 1443 946 1135 946 c 0
 1092 946 1048 940 1001 929 c 1
 1074 878 1171 775 1171 656 c 0
 1171 581 1143 536 1092 493 c 1
 1179 456 1242 387 1242 270 c 0
 1242 121 1107 -11 953 -11 c 0
 716 -11 544 207 544 455 c 0
992 443 m 0
 982 443 972 442 963 442 c 0
 941 442 923 448 923 474 c 0
 923 512 953 510 992 516 c 128
 1045 524 1101 587 1101 648 c 0
 1101 765 1001 854 914 899 c 1
 758 829 611 675 611 461 c 0
 611 252 740 59 950 59 c 0
 1069 59 1173 158 1173 276 c 0
 1173 377 1087 443 992 443 c 0
2608 366 m 0
 2608 534 2470 661 2308 661 c 0
 2136 661 2006 517 2006 343 c 0
 2006 184 2131 56 2293 56 c 0
 2466 56 2608 187 2608 366 c 0
EndSplineSet
EndChar

StartChar: ml_aa
Encoding: 3334 3334 44
Width: 3023
GlyphClass: 2
Flags: HW
LayerCount: 2
Fore
SplineSet
2282 -11 m 0
 2084 -11 1930 150 1930 340 c 0
 1930 579 2135 720 2374 720 c 0
 2426 720 2480 712 2534 696 c 1
 2444 839 2279 942 2052 942 c 0
 1808 942 1638 773 1638 519 c 130
 1638 21 l 2
 1638 4 1623 -13 1606 -13 c 128
 1582 -13 1569 1 1568 21 c 2
 1567 429 l 1
 1565 747 1438 945 1131 945 c 0
 1089 945 1044 939 998 928 c 1
 1071 877 1167 783 1167 663 c 0
 1167 589 1139 534 1089 491 c 1
 1174 455 1238 379 1238 265 c 0
 1238 113 1104 -10 951 -10 c 0
 714 -10 543 198 543 445 c 0
 543 674 673 843 824 932 c 1
 780 944 735 947 691 947 c 0
 402 947 169 746 169 459 c 0
 169 260 300 104 449 42 c 0
 464 36 471 27 471 14 c 128
 471 -7 458 -26 440 -26 c 128
 433 -26 427 -25 422 -23 c 0
 251 48 100 225 100 452 c 0
 100 784 371 1016 701 1016 c 0
 774 1016 844 1005 913 975 c 1
 982 1001 1052 1014 1122 1014 c 0
 1365 1014 1534 897 1601 708 c 1
 1662 877 1818 1012 2048 1012 c 0
 2326 1012 2545 867 2635 654 c 1
 2787 572 2922 410 2922 177 c 0
 2922 -133 2691 -379 2370 -379 c 0
 2214 -379 2069 -302 1986 -223 c 0
 1979 -216 1975 -208 1975 -198 c 128
 1975 -179 1991 -163 2010 -163 c 128
 2019 -163 2028 -166 2035 -173 c 0
 2125 -259 2231 -306 2376 -306 c 0
 2629 -306 2853 -97 2853 172 c 0
 2853 346 2784 458 2669 548 c 1
 2678 507 2682 467 2682 429 c 0
 2682 190 2517 -11 2282 -11 c 0
989 441 m 0
 979 441 970 439 961 439 c 0
 939 439 920 448 920 470 c 128
 920 504 939 509 978 514 c 128
 1042 523 1097 585 1097 662 c 0
 1097 771 994 854 911 898 c 1
 755 829 611 666 611 451 c 0
 611 242 736 60 942 60 c 0
 1057 60 1169 144 1169 259 c 0
 1169 367 1086 441 989 441 c 0
2281 61 m 0
 2477 61 2611 236 2611 435 c 0
 2611 489 2602 546 2580 603 c 1
 2516 634 2446 648 2379 648 c 0
 2180 648 1999 543 1999 342 c 0
 1999 185 2129 61 2281 61 c 0
EndSplineSet
EndChar

StartChar: ml_i
Encoding: 3335 3335 45
Width: 2030
GlyphClass: 2
Flags: HW
LayerCount: 2
Fore
SplineSet
1056 762 m 1
 1111 905 1236 1010 1426 1010 c 0
 1720 1010 1930 770 1930 503 c 0
 1930 147 1644 -5 1282 -5 c 1
 1025 -6 754 -3 506 -3 c 0
 350 -3 170 -26 170 -162 c 0
 170 -275 306 -303 452 -305 c 1
 1895 -306 l 2
 1914 -306 1930 -321 1930 -340 c 128
 1930 -359 1915 -376 1895 -376 c 2
 452 -375 l 2
 260 -375 100 -329 100 -159 c 0
 100 48 351 67 566 67 c 1
 1282 71 l 2
 1600 73 1860 181 1860 491 c 0
 1860 735 1686 939 1431 939 c 0
 1191 939 1095 773 1095 512 c 2
 1095 213 l 2
 1095 190 1083 178 1060 179 c 0
 1042 179 1025 194 1025 213 c 2
 1023 509 l 2
 1021 789 912 937 638 937 c 0
 438 937 278 817 214 666 c 1
 262 712 335 750 420 750 c 0
 593 750 720 623 720 451 c 0
 720 293 593 163 433 163 c 0
 242 163 113 328 113 516 c 0
 113 805 351 1008 635 1008 c 0
 848 1008 994 904 1056 762 c 1
650 456 m 0
 650 581 547 681 418 681 c 0
 296 681 194 573 192 454 c 0
 192 341 317 234 431 234 c 0
 545 234 650 330 650 456 c 0
EndSplineSet
EndChar

StartChar: ml_u
Encoding: 3337 3337 47
Width: 1304
GlyphClass: 2
Flags: HW
LayerCount: 2
Fore
SplineSet
107 560 m 0
 107 821 343 1011 592 1011 c 0
 914 1011 1176 761 1176 445 c 0
 1176 145 954 -3 653 -3 c 0
 594 -3 534 0 474 0 c 0
 319 0 171 -21 171 -147 c 0
 171 -244 263 -285 408 -288 c 0
 423 -288 446 -288 478 -289 c 2
 1169 -290 l 2
 1188 -290 1204 -307 1204 -326 c 128
 1204 -341 1189 -360 1176 -360 c 2
 1169 -360 l 1
 478 -359 l 1
 403 -359 l 2
 251 -359 100 -297 100 -149 c 0
 100 3 264 71 411 71 c 0
 491 71 576 67 656 67 c 4
 907 67 1108 184 1108 432 c 0
 1108 730 873 940 598 940 c 0
 436 940 297 846 227 729 c 1
 271 758 318 773 368 773 c 0
 518 773 636 658 636 504 c 0
 636 355 528 241 380 241 c 0
 211 241 107 389 107 560 c 0
565 505 m 0
 565 610 479 703 371 703 c 0
 272 703 182 623 182 516 c 0
 182 412 276 312 383 312 c 0
 485 312 565 402 565 505 c 0
EndSplineSet
EndChar

StartChar: ml_r
Encoding: 3339 3339 49
Width: 1672
GlyphClass: 2
Flags: HW
LayerCount: 2
Fore
SplineSet
100 685 m 4
 100 854 212 1013 393 1013 c 4
 528 1013 638 896 638 764 c 4
 638 622 524 508 382 508 c 4
 293 508 223 550 179 606 c 5
 237 342 499 223 825 223 c 4
 1145 223 1393 336 1479 564 c 5
 1435 525 1372 499 1305 499 c 4
 1159 499 1046 611 1046 756 c 4
 1046 901 1155 1012 1300 1012 c 4
 1470 1012 1571 854 1571 689 c 4
 1571 435 1379 279 1180 209 c 5
 1367 176 1547 60 1547 -143 c 4
 1547 -434 1239 -512 929 -512 c 4
 552 -512 154 -495 154 -128 c 4
 154 45 319 173 481 204 c 5
 286 275 100 437 100 685 c 4
566 762 m 4
 566 861 490 943 392 943 c 4
 290 943 193 871 193 765 c 4
 193 664 276 577 377 577 c 4
 480 577 566 658 566 762 c 4
1305 568 m 4
 1407 568 1497 648 1497 747 c 132
 1497 848 1397 941 1298 941 c 132
 1192 941 1116 856 1116 759 c 4
 1116 654 1199 568 1305 568 c 4
226 -135 m 4
 226 -420 562 -442 858 -442 c 4
 1146 -442 1477 -418 1477 -142 c 4
 1477 154 1102 154 794 154 c 4
 518 154 226 124 226 -135 c 4
EndSplineSet
EndChar

StartChar: ml_l
Encoding: 3340 3340 50
Width: 2176
GlyphClass: 2
Flags: HW
LayerCount: 2
Fore
SplineSet
1541 940 m 0
 1312 940 1112 760 1112 528 c 2
 1111 36 l 2
 1110 13 1099 2 1076 1 c 0
 1058 1 1041 18 1041 36 c 2
 1042 525 l 1
 1036 774 902 942 660 942 c 0
 398 942 181 714 171 463 c 1
 171 459 l 1
 218 559 329 653 474 653 c 0
 664 653 813 512 813 316 c 0
 813 131 668 -10 485 -10 c 0
 250 -10 100 197 100 432 c 0
 100 748 350 1012 661 1012 c 0
 883 1012 1027 887 1084 716 c 1
 1152 874 1328 1011 1534 1011 c 0
 1858 1011 2077 743 2077 444 c 0
 2077 212 1930 -10 1687 -10 c 0
 1507 -10 1362 136 1362 322 c 0
 1362 507 1516 651 1701 651 c 0
 1848 651 1961 554 2007 449 c 1
 2005 719 1811 940 1541 940 c 0
742 318 m 0
 742 471 614 584 474 584 c 0
 328 584 208 464 208 317 c 0
 208 159 343 61 488 61 c 0
 628 61 742 168 742 318 c 0
1688 62 m 0
 1833 62 1964 164 1964 317 c 0
 1964 463 1845 582 1700 582 c 0
 1561 582 1433 470 1433 318 c 0
 1433 172 1545 62 1688 62 c 0
EndSplineSet
EndChar

StartChar: ml_e
Encoding: 3342 3342 51
Width: 2469
GlyphClass: 2
Flags: HW
LayerCount: 2
Fore
SplineSet
445 595 m 4
 289 595 169 464 169 320 c 4
 169 195 256 98 352 63 c 4
 368 58 376 48 376 35 c 132
 376 14 363 -5 345 -5 c 132
 338 -5 333 -4 329 -3 c 4
 208 40 100 162 100 319 c 4
 100 514 253 664 446 664 c 4
 634 664 787 515 787 324 c 4
 787 221 740 128 680 71 c 5
 1036 68 l 5
 1033 103 1032 137 1032 170 c 4
 1032 583 1290 1013 1716 1013 c 4
 2105 1013 2369 645 2369 257 c 4
 2369 -48 2225 -280 2040 -424 c 4
 2033 -429 2026 -432 2019 -432 c 4
 2000 -432 1983 -415 1983 -395 c 132
 1983 -384 1988 -375 1997 -368 c 4
 2162 -239 2302 -24 2302 249 c 4
 2302 616 2050 945 1720 945 c 4
 1334 945 1101 546 1101 170 c 4
 1101 137 1103 103 1106 68 c 5
 1753 67 l 5
 1758 637 l 6
 1758 655 1777 673 1795 673 c 4
 1810 673 1828 653 1828 643 c 6
 1823 31 l 5
 1823 -208 1668 -435 1436 -435 c 4
 1198 -435 1078 -223 1044 -2 c 5
 567 3 l 6
 550 3 532 18 532 35 c 4
 532 52 539 63 553 70 c 4
 639 108 718 201 718 319 c 4
 718 474 597 595 445 595 c 4
1115 -3 m 5
 1146 -189 1241 -364 1434 -364 c 4
 1624 -364 1736 -188 1747 -3 c 5
 1115 -3 l 5
EndSplineSet
EndChar

StartChar: ml_ee
Encoding: 3343 3343 52
Width: 2494
GlyphClass: 2
Flags: HW
LayerCount: 2
Fore
SplineSet
1111 0 m 1
 1140 -183 1236 -355 1427 -355 c 0
 1617 -355 1730 -186 1741 -1 c 1
 1111 0 l 1
448 601 m 0
 291 601 169 471 169 326 c 0
 169 204 251 107 344 70 c 0
 359 64 367 55 367 42 c 0
 367 21 354 2 336 2 c 0
 329 2 323 3 319 5 c 0
 203 51 100 170 100 324 c 0
 100 521 252 671 449 671 c 0
 636 671 792 513 792 328 c 0
 792 226 739 127 678 71 c 1
 1032 70 l 1
 1030 99 1029 127 1029 155 c 0
 1029 592 1313 1012 1770 1012 c 0
 2026 1012 2275 815 2275 550 c 0
 2275 422 2220 328 2140 270 c 1
 2280 228 2394 91 2394 -73 c 0
 2394 -262 2245 -422 2050 -422 c 0
 1996 -422 1935 -409 1908 -394 c 0
 1878 -378 1864 -374 1864 -346 c 0
 1864 -330 1880 -314 1896 -314 c 0
 1904 -314 1916 -318 1934 -328 c 0
 1960 -342 2005 -351 2049 -351 c 0
 2208 -351 2324 -234 2324 -70 c 0
 2324 101 2193 215 2035 215 c 0
 2016 215 1996 211 1979 211 c 0
 1958 211 1941 218 1941 243 c 0
 1941 276 1969 281 2001 283 c 1
 2124 309 2204 420 2204 547 c 0
 2204 775 1992 942 1770 942 c 0
 1355 942 1099 554 1099 156 c 0
 1099 128 1100 99 1102 70 c 1
 1739 69 l 1
 1745 637 l 2
 1745 657 1760 672 1780 672 c 0
 1796 672 1815 658 1815 644 c 2
 1811 21 l 1
 1811 -210 1657 -426 1427 -426 c 0
 1192 -426 1072 -218 1040 0 c 1
 557 1 l 2
 540 1 522 17 522 34 c 0
 522 51 530 63 545 69 c 0
 638 105 721 200 721 323 c 0
 721 478 600 601 448 601 c 0
EndSplineSet
EndChar

StartChar: ml_n
Encoding: 3346 3346 54
Width: 1346
GlyphClass: 2
Flags: HW
LayerCount: 2
Fore
SplineSet
980 57 m 0
 1092 57 1175 136 1175 243 c 0
 1175 357 1092 423 995 428 c 0
 972 429 962 424 944 424 c 128
 930 424 915 443 915 458 c 0
 915 477 925 489 946 494 c 0
 1017 511 1089 588 1089 676 c 0
 1089 843 886 944 715 944 c 0
 425 944 171 685 171 403 c 0
 171 390 171 378 172 365 c 1
 210 440 296 509 405 509 c 0
 556 509 670 392 670 247 c 0
 670 104 559 -11 414 -11 c 0
 208 -11 101 199 101 404 c 0
 101 744 383 1013 718 1013 c 0
 932 1013 1157 882 1157 679 c 0
 1157 600 1120 530 1070 485 c 1
 1162 455 1244 365 1244 244 c 0
 1244 101 1133 -12 989 -12 c 0
 947 -12 905 -2 867 19 c 0
 855 26 849 37 849 49 c 0
 849 67 862 84 881 84 c 128
 889 84 902 79 919 70 c 128
 936 61 958 57 980 57 c 0
415 59 m 0
 521 59 601 145 601 247 c 0
 601 350 511 439 406 439 c 0
 299 439 213 355 213 247 c 0
 213 148 311 59 415 59 c 0
EndSplineSet
EndChar

StartChar: k1
Encoding: 3349 3349 57
Width: 1858
GlyphClass: 2
Flags: HW
LayerCount: 2
Fore
SplineSet
1457 -13 m 0
 1426 -13 1400 -7 1400 23 c 0
 1400 42 1416 58 1435 58 c 0
 1442 58 1449 57 1456 57 c 0
 1583 57 1689 164 1689 287 c 0
 1689 456 1544 533 1371 533 c 1
 1371 263 1254 -14 972 -14 c 0
 826 -14 700 79 649 181 c 1
 609 75 504 -12 380 -12 c 0
 231 -12 100 113 100 266 c 0
 100 511 343 598 579 600 c 1
 608 800 746 1011 968 1011 c 0
 1190 1011 1336 810 1364 603 c 1
 1579 603 1758 501 1758 288 c 0
 1758 124 1624 -13 1457 -13 c 0
970 941 m 0
 786 941 678 766 650 600 c 1
 1293 603 l 1
 1266 772 1152 941 970 941 c 0
1300 533 m 1
 642 530 l 1
 642 300 727 56 967 56 c 0
 1212 56 1300 298 1300 533 c 1
168 267 m 0
 168 154 265 56 379 56 c 0
 496 56 596 160 596 279 c 0
 596 287 596 295 595 303 c 0
 595 304 594 306 594 307 c 0
 573 381 572 450 572 530 c 1
 376 526 168 468 168 267 c 0
EndSplineSet
EndChar

StartChar: k2
Encoding: 3350 3350 58
Width: 1740
GlyphClass: 2
Flags: HW
LayerCount: 2
Fore
SplineSet
756 263 m 0
 756 104 626 -25 467 -25 c 0
 240 -25 100 208 100 439 c 0
 100 759 336 1012 656 1012 c 0
 956 1012 1194 770 1194 466 c 0
 1194 298 1114 152 1018 65 c 1
 1567 64 l 1
 1570 980 l 6
 1570 1000 1587 1016 1606 1016 c 132
 1621 1016 1640 1000 1640 987 c 6
 1640 980 l 5
 1637 29 l 2
 1637 6 1625 -6 1602 -6 c 2
 913 -5 l 2
 893 -5 878 11 878 32 c 128
 878 43 884 53 895 60 c 0
 1016 133 1125 277 1125 460 c 0
 1125 724 922 941 667 941 c 0
 376 941 170 720 170 447 c 0
 170 416 173 384 179 351 c 1
 215 462 316 557 461 557 c 0
 625 557 756 425 756 263 c 0
468 46 m 0
 589 46 686 142 686 263 c 0
 686 387 584 487 463 487 c 0
 335 487 234 384 234 260 c 0
 234 122 369 46 468 46 c 0
EndSplineSet
EndChar

StartChar: k3
Encoding: 3351 3351 59
Width: 1838
GlyphClass: 2
Flags: HW
LayerCount: 2
Fore
SplineSet
566 -12 m 0
 301 -12 100 223 100 490 c 0
 100 743 263 935 452 1012 c 0
 456 1014 462 1015 466 1015 c 0
 485 1015 501 999 501 980 c 0
 501 967 490 953 478 948 c 0
 313 881 170 713 170 491 c 0
 170 262 340 58 566 58 c 0
 789 58 870 222 870 448 c 2
 870 552 l 2
 870 824 991 1013 1260 1013 c 0
 1529 1013 1738 777 1738 512 c 0
 1738 243 1543 36 1317 -15 c 0
 1315 -16 1311 -16 1309 -16 c 0
 1290 -16 1274 0 1274 19 c 0
 1274 35 1286 50 1301 53 c 0
 1497 98 1668 278 1668 512 c 0
 1668 740 1491 943 1260 943 c 0
 1031 943 940 784 940 551 c 2
 940 447 l 2
 940 183 828 -12 566 -12 c 0
EndSplineSet
EndChar

StartChar: k4
Encoding: 3352 3352 60
Width: 2423
GlyphClass: 2
Flags: HW
LayerCount: 2
Fore
SplineSet
453 935 m 0
 297 935 170 809 170 652 c 0
 170 529 249 435 339 396 c 0
 353 390 360 381 360 368 c 128
 360 347 347 329 328 329 c 128
 320 329 315 330 311 332 c 0
 199 382 100 499 100 652 c 0
 100 854 269 1007 454 1007 c 0
 647 1007 803 852 803 657 c 0
 803 548 750 450 684 390 c 1
 1074 393 l 1
 1074 505 l 2
 1074 814 1216 1011 1510 1011 c 0
 1792 1011 1952 839 1952 551 c 1
 1948 363 l 2
 1948 344 1931 329 1913 329 c 2
 1144 324 l 1
 1143 72 l 1
 2253 72 l 1
 2253 980 l 6
 2253 1000 2269 1015 2288 1015 c 132
 2307 1015 2323 1000 2323 980 c 6
 2322 37 l 2
 2322 18 2306 2 2287 2 c 2
 1108 2 l 2
 1090 2 1073 19 1073 37 c 2
 1074 323 l 1
 555 319 l 2
 537 319 520 335 520 352 c 0
 520 370 528 382 544 387 c 0
 643 421 734 522 734 651 c 0
 734 812 613 935 453 935 c 0
1510 940 m 0
 1254 940 1144 777 1144 505 c 2
 1144 394 l 1
 1879 399 l 1
 1881 536 l 1
 1881 797 1762 940 1510 940 c 0
EndSplineSet
EndChar

StartChar: ng
Encoding: 3353 3353 61
Width: 2108
GlyphClass: 2
Flags: HW
LayerCount: 2
Fore
SplineSet
1926 691 m 0
 1926 864 1751 945 1578 945 c 0
 1272 945 1143 768 1143 445 c 1
 1145 27 l 2
 1145 8 1129 -8 1110 -8 c 128
 1091 -8 1075 7 1075 26 c 2
 1072 435 l 2
 1070 734 961 946 669 946 c 0
 392 946 177 726 170 460 c 1
 216 565 329 663 476 663 c 0
 664 663 813 521 813 327 c 0
 813 141 668 1 485 1 c 0
 245 1 100 221 100 446 c 0
 100 763 352 1016 666 1016 c 0
 896 1016 1044 889 1106 713 c 1
 1173 905 1343 1016 1570 1016 c 0
 1785 1016 1996 910 1996 694 c 0
 1996 598 1944 511 1858 468 c 1
 1939 432 2009 355 2009 245 c 0
 2009 101 1877 -6 1734 -6 c 0
 1659 -6 1605 16 1554 51 c 0
 1544 58 1539 67 1539 78 c 128
 1539 98 1553 115 1572 115 c 128
 1581 115 1595 109 1613 96 c 128
 1632 83 1690 62 1741 62 c 0
 1846 62 1936 152 1936 248 c 0
 1936 379 1817 426 1670 428 c 1
 1606 428 l 2
 1586 428 1571 443 1571 467 c 128
 1571 483 1588 497 1604 498 c 2
 1679 502 l 2
 1818 509 1926 550 1926 691 c 0
488 72 m 0
 628 72 744 182 744 331 c 0
 744 477 630 593 475 593 c 0
 342 593 211 481 211 329 c 0
 211 173 342 72 488 72 c 0
EndSplineSet
EndChar

StartChar: ch1
Encoding: 3354 3354 62
Width: 1503
GlyphClass: 2
Flags: HW
LayerCount: 2
Fore
SplineSet
647 653 m 0
 507 653 401 538 401 410 c 0
 401 377 408 343 424 309 c 0
 426 304 427 298 427 291 c 128
 427 276 410 259 395 259 c 0
 378 259 367 266 360 280 c 0
 342 320 333 366 333 412 c 0
 333 594 481 723 648 723 c 0
 828 722 981 562 981 384 c 0
 981 245 924 142 826 71 c 1
 1333 71 l 1
 1333 977 l 2
 1333 1000 1351 1012 1369 1012 c 0
 1386 1012 1403 1001 1403 978 c 2
 1403 36 l 2
 1403 18 1386 1 1368 1 c 2
 36 -1 l 1
 28 -1 l 2
 15 -1 0 19 0 34 c 128
 0 53 16 69 35 69 c 2
 638 71 l 1
 786 87 910 211 910 373 c 0
 910 518 803 653 647 653 c 0
EndSplineSet
EndChar

StartChar: ch2
Encoding: 3355 3355 63
Width: 2525
GlyphClass: 2
Flags: HW
LayerCount: 2
Fore
SplineSet
1663 404 m 0
 1663 651 1832 842 2052 885 c 1
 1979 918 1907 945 1834 945 c 0
 1548 945 1317 719 1317 434 c 0
 1317 273 1400 136 1494 57 c 0
 1503 50 1507 41 1507 32 c 0
 1507 13 1490 -5 1471 -5 c 2
 35 2 l 2
 15 2 0 17 0 36 c 128
 0 51 15 72 28 72 c 130
 36 72 l 1
 237 71 437 70 638 69 c 1
 786 85 911 211 911 373 c 0
 911 519 805 653 647 653 c 0
 510 653 403 548 403 408 c 0
 403 374 410 340 424 309 c 0
 426 304 427 299 427 294 c 0
 427 276 414 259 395 259 c 0
 378 259 367 266 360 280 c 0
 341 321 332 365 332 409 c 0
 332 585 471 724 642 724 c 0
 840 724 982 558 982 383 c 0
 982 244 924 140 824 68 c 1
 1386 66 l 1
 1311 153 1248 281 1248 431 c 0
 1248 751 1513 1013 1832 1013 c 0
 2159 1013 2426 755 2426 427 c 0
 2426 197 2267 -6 2037 -6 c 0
 1819 -6 1663 198 1663 404 c 0
1733 404 m 0
 1733 223 1865 65 2038 65 c 0
 2228 65 2358 238 2358 423 c 0
 2358 605 2267 737 2154 824 c 1
 2144 824 l 2
 1904 824 1733 646 1733 404 c 0
EndSplineSet
EndChar

StartChar: ch3
Encoding: 3356 3356 64
Width: 1534
GlyphClass: 2
Flags: HW
LayerCount: 2
Fore
SplineSet
113 187 m 0
 113 325 257 387 411 387 c 0
 569 387 721 356 883 356 c 0
 1125 356 1359 450 1359 673 c 0
 1359 834 1232 944 1069 944 c 0
 881 944 829 783 826 641 c 2
 823 484 l 2
 822 466 807 450 788 450 c 128
 769 450 753 465 753 484 c 2
 753 485 l 1
 755 640 l 2
 757 801 622 942 440 942 c 0
 377 942 320 921 269 881 c 1
 284 884 298 886 312 886 c 0
 436 886 537 800 537 673 c 0
 537 540 431 442 323 442 c 0
 193 442 100 542 100 673 c 0
 100 861 254 1012 443 1012 c 0
 608 1012 718 928 781 808 c 1
 823 924 927 1012 1073 1012 c 0
 1258 1012 1430 871 1430 688 c 0
 1430 548 1366 464 1251 386 c 1
 1356 367 1434 295 1434 182 c 0
 1434 76 1350 -16 1238 -16 c 0
 1121 -16 1038 78 1038 182 c 0
 1038 218 1048 260 1071 294 c 1
 853 208 627 -15 363 -15 c 0
 234 -15 113 54 113 187 c 0
466 673 m 0
 466 759 398 816 312 816 c 0
 235 816 171 755 171 673 c 0
 171 576 237 512 324 512 c 0
 402 512 466 590 466 673 c 0
1240 54 m 0
 1309 54 1366 113 1366 182 c 0
 1366 267 1302 313 1237 313 c 0
 1172 313 1108 273 1108 182 c 0
 1108 111 1176 54 1240 54 c 0
183 187 m 0
 183 105 264 55 358 55 c 0
 540 55 733 188 900 286 c 1
 870 286 l 2
 770 286 481 316 406 316 c 0
 298 316 183 281 183 187 c 0
EndSplineSet
EndChar

StartChar: ch4
Encoding: 3357 3357 65
Width: 3183
GlyphClass: 2
Flags: HW
LayerCount: 2
Fore
SplineSet
965 912 m 1
 1109 812 1224 635 1224 399 c 0
 1224 194 1087 -10 873 -10 c 0
 656 -10 528 189 528 401 c 0
 528 636 652 816 807 915 c 1
 750 936 693 946 638 946 c 0
 376 946 170 741 170 478 c 128
 170 284 286 135 422 65 c 0
 435 58 440 47 440 36 c 0
 440 17 426 -2 406 -2 c 0
 401 -2 395 0 389 3 c 0
 233 84 100 255 100 478 c 128
 100 782 335 1015 639 1015 c 0
 724 1015 809 995 887 958 c 1
 965 991 1042 1013 1116 1013 c 0
 1420 1013 1579 808 1597 499 c 1
 1597 418 l 1
 1607 243 1654 58 1833 58 c 0
 2015 58 2070 269 2068 476 c 2
 2063 978 l 2
 2063 1001 2081 1012 2098 1012 c 0
 2115 1012 2133 1002 2133 979 c 2
 2139 521 l 2
 2143 262 2308 59 2570 59 c 0
 2822 59 3012 248 3012 501 c 0
 3012 755 2801 942 2576 942 c 4
 2551 942 2526 936 2500 936 c 4
 2478 936 2466 955 2466 973 c 4
 2466 1014 2533 1011 2573 1011 c 4
 2857 1011 3083 787 3083 501 c 0
 3083 200 2838 -11 2576 -11 c 0
 2357 -11 2193 122 2118 277 c 1
 2086 135 1999 -11 1831 -11 c 0
 1611 -11 1541 194 1527 414 c 1
 1527 495 l 1
 1510 770 1395 942 1114 942 c 0
 1064 942 1014 927 965 912 c 1
885 879 m 1
 728 799 597 631 597 395 c 0
 597 231 704 58 871 58 c 0
 1053 58 1152 234 1152 417 c 0
 1152 622 1033 794 885 879 c 1
EndSplineSet
EndChar

StartChar: nj
Encoding: 3358 3358 66
Width: 2556
GlyphClass: 2
Flags: HW
LayerCount: 2
Fore
SplineSet
99 443 m 0
 99 759 316 1012 632 1012 c 0
 836 1012 992 884 1050 734 c 1
 1107 897 1243 1013 1455 1013 c 0
 1540 1013 1624 994 1698 957 c 1
 1776 997 1854 1013 1933 1013 c 0
 2247 1013 2456 750 2456 464 c 0
 2456 261 2345 85 2219 -10 c 0
 2212 -15 2205 -18 2198 -18 c 0
 2179 -18 2163 -1 2163 19 c 128
 2163 30 2168 38 2177 45 c 0
 2284 126 2387 281 2387 453 c 4
 2387 720 2198 943 1940 943 c 0
 1886 943 1830 936 1771 914 c 1
 1922 810 2040 636 2040 388 c 0
 2040 179 1919 -15 1706 -15 c 0
 1489 -15 1371 173 1371 388 c 0
 1371 617 1474 802 1626 913 c 1
 1567 936 1510 945 1455 945 c 0
 1186 945 1088 760 1088 481 c 2
 1088 14 l 2
 1088 -5 1073 -20 1054 -20 c 128
 1036 -20 1019 -5 1019 14 c 2
 1017 477 l 1
 1014 763 896 942 626 942 c 0
 360 942 168 718 168 449 c 0
 168 431 169 412 171 393 c 1
 209 506 320 604 468 604 c 0
 643 604 773 469 773 294 c 0
 773 123 639 -11 468 -11 c 0
 225 -11 99 207 99 443 c 0
1698 878 m 1
 1549 788 1439 626 1439 388 c 0
 1439 224 1537 54 1706 54 c 0
 1879 54 1971 218 1971 388 c 0
 1971 615 1854 787 1698 878 c 1
703 294 m 0
 703 418 595 536 468 536 c 0
 328 536 222 434 222 294 c 0
 222 160 350 59 468 59 c 0
 588 59 703 167 703 294 c 0
EndSplineSet
EndChar

StartChar: t1
Encoding: 3359 3359 67
Width: 1084
GlyphClass: 2
Flags: HW
LayerCount: 2
Fore
SplineSet
517 1009 m 0
 698 1009 847 936 932 825 c 0
 936 820 940 810 940 803 c 0
 940 784 924 768 905 768 c 0
 895 768 883 774 877 782 c 0
 803 879 677 939 517 939 c 0
 369 939 183 885 183 734 c 0
 183 646 262 589 334 567 c 0
 498 516 685 573 835 497 c 0
 909 459 985 386 985 277 c 0
 985 70 766 -12 566 -12 c 0
 376 -12 211 61 110 168 c 0
 105 174 100 184 100 192 c 0
 100 211 116 227 135 227 c 0
 144 227 155 222 161 216 c 0
 251 120 394 58 566 58 c 0
 727 58 915 114 915 277 c 0
 915 354 859 407 804 435 c 0
 660 508 483 448 313 501 c 0
 217 531 113 611 113 734 c 0
 113 929 331 1009 517 1009 c 0
EndSplineSet
EndChar

StartChar: t2
Encoding: 3360 3360 68
Width: 1236
GlyphClass: 2
Flags: HW
LayerCount: 2
Fore
SplineSet
100 493 m 4
 100 793 322 1014 620 1014 c 128
 902 1014 1136 772 1136 493 c 4
 1136 185 902 -12 620 -14 c 0
 325 -14 100 198 100 493 c 4
620 944 m 0
 376 944 170 739 170 493 c 4
 170 236 364 56 620 56 c 0
 867 56 1066 246 1066 493 c 132
 1066 733 877 944 620 944 c 0
EndSplineSet
EndChar

StartChar: t4
Encoding: 3362 3362 70
Width: 2674
GlyphClass: 2
Flags: HW
LayerCount: 2
Fore
SplineSet
100 498 m 0
 100 771 322 1010 602 1010 c 0
 847 1010 1035 835 1035 578 c 0
 1035 520 1030 461 1030 402 c 0
 1030 234 1105 57 1266 57 c 0
 1498 57 1534 349 1537 577 c 2
 1543 980 l 2
 1544 999 1559 1014 1578 1014 c 0
 1597 1014 1613 998 1613 979 c 2
 1606 536 l 2
 1602 260 1729 58 2000 58 c 0
 2273 58 2471 276 2502 526 c 1
 2452 421 2336 338 2204 338 c 0
 2023 338 1873 488 1873 669 c 0
 1873 849 2018 1012 2204 1012 c 0
 2433 1012 2574 804 2574 579 c 0
 2574 255 2320 -12 2001 -12 c 0
 1788 -12 1639 117 1576 276 c 1
 1537 142 1435 -13 1266 -13 c 0
 1069 -13 961 187 961 387 c 0
 961 448 967 509 967 568 c 0
 967 789 821 941 602 941 c 0
 361 941 170 733 170 500 c 0
 170 255 373 57 614 57 c 0
 633 57 649 41 649 22 c 0
 649 3 634 -13 615 -13 c 2
 601 -13 l 2
 330 -13 100 224 100 498 c 0
2464 669 m 0
 2464 808 2356 942 2204 942 c 0
 2059 942 1942 802 1942 665 c 0
 1942 526 2066 409 2204 409 c 0
 2345 409 2464 530 2464 669 c 0
EndSplineSet
EndChar

StartChar: nh
Encoding: 3363 3363 71
Width: 2865
GlyphClass: 2
Flags: HW
LayerCount: 2
Fore
SplineSet
2253 58 m 0
 2501 58 2695 256 2695 505 c 0
 2695 749 2497 945 2254 945 c 0
 1973 945 1877 725 1877 439 c 1
 1879 24 l 2
 1879 6 1863 -11 1846 -11 c 128
 1823 -11 1809 5 1809 24 c 2
 1805 434 l 2
 1803 700 1731 945 1472 945 c 0
 1211 945 1141 704 1143 429 c 2
 1146 24 l 2
 1146 5 1130 -10 1111 -10 c 128
 1092 -10 1076 5 1076 24 c 2
 1073 427 l 2
 1071 728 962 946 668 946 c 0
 387 946 170 720 170 433 c 0
 170 418 171 403 172 388 c 1
 212 501 315 597 465 597 c 0
 641 597 778 459 778 291 c 0
 778 125 647 -10 478 -10 c 0
 248 -10 100 199 100 428 c 0
 100 745 345 1017 662 1017 c 0
 886 1017 1039 885 1103 714 c 1
 1152 872 1279 1014 1474 1014 c 0
 1667 1014 1792 871 1841 718 c 1
 1900 885 2040 1014 2257 1014 c 0
 2549 1014 2765 791 2765 498 c 0
 2765 209 2530 -12 2254 -12 c 0
 2221 -12 2190 -9 2190 24 c 128
 2190 39 2205 59 2219 59 c 128
 2233 59 2240 58 2253 58 c 0
708 291 m 0
 708 420 602 527 468 527 c 0
 330 527 224 420 224 284 c 0
 224 140 349 62 477 62 c 0
 608 62 708 161 708 291 c 0
EndSplineSet
EndChar

StartChar: th1
Encoding: 3364 3364 72
Width: 1816
GlyphClass: 2
Flags: HW
LayerCount: 2
Fore
SplineSet
492 18 m 128
 492 -3 480 -22 461 -22 c 128
 454 -22 448 -21 444 -19 c 0
 255 53 100 224 100 478 c 0
 100 784 344 1011 648 1011 c 0
 734 1011 822 993 905 952 c 1
 988 994 1077 1013 1164 1013 c 0
 1469 1013 1717 784 1717 478 c 0
 1717 227 1567 58 1384 -18 c 0
 1379 -20 1373 -21 1366 -21 c 128
 1351 -21 1335 -3 1335 12 c 0
 1335 29 1342 41 1357 47 c 0
 1516 114 1647 259 1647 478 c 0
 1647 744 1432 944 1165 944 c 0
 1104 944 1041 933 979 909 c 1
 1127 807 1253 627 1253 388 c 0
 1253 178 1123 -13 907 -13 c 0
 691 -13 561 178 561 388 c 0
 561 623 669 796 831 908 c 1
 770 931 707 942 647 942 c 0
 382 942 170 743 170 478 c 0
 170 258 305 109 469 46 c 0
 484 41 492 31 492 18 c 128
905 873 m 1
 761 788 632 622 632 391 c 0
 632 219 732 57 908 57 c 0
 1083 57 1182 217 1182 388 c 0
 1182 621 1051 789 905 873 c 1
EndSplineSet
EndChar

StartChar: th2
Encoding: 3365 3365 73
Width: 1626
GlyphClass: 2
Flags: HW
LayerCount: 2
Fore
SplineSet
135 1011 m 128
 154 1011 170 995 170 976 c 2
 175 72 l 1
 608 71 l 1
 608 72 l 1
 605 439 l 2
 602 762 743 1010 1062 1010 c 0
 1383 1010 1528 783 1526 445 c 2
 1524 35 l 2
 1524 16 1508 1 1489 1 c 2
 141 2 l 2
 122 2 106 17 106 36 c 2
 100 975 l 1
 100 983 l 130
 100 996 120 1011 135 1011 c 128
678 71 m 1
 1455 71 l 1
 1456 451 l 2
 1456 746 1340 940 1061 940 c 0
 772 940 672 715 675 416 c 2
 678 71 l 1
EndSplineSet
EndChar

StartChar: th3
Encoding: 3366 3366 74
Width: 1207
GlyphClass: 2
Flags: HW
LayerCount: 2
Fore
SplineSet
946 475 m 1
 1037 439 1107 355 1107 246 c 0
 1107 99 973 -12 825 -12 c 0
 771 -12 720 4 671 36 c 0
 660 43 655 50 655 60 c 128
 655 88 668 99 684 99 c 0
 697 99 712 93 726 84 c 128
 749 69 785 61 822 61 c 0
 933 61 1035 133 1035 241 c 0
 1035 378 935 428 782 429 c 1
 746 430 l 2
 728 430 712 446 712 464 c 128
 712 483 727 497 743 500 c 1
 773 502 l 1
 898 513 1004 559 1004 685 c 0
 1004 857 846 943 670 943 c 0
 399 943 169 726 169 446 c 0
 169 273 244 149 348 62 c 0
 357 55 361 46 361 36 c 128
 361 17 346 0 327 0 c 128
 318 0 310 3 303 9 c 0
 193 101 100 253 100 438 c 0
 100 763 353 1013 672 1013 c 0
 876 1013 1073 897 1073 692 c 0
 1073 603 1028 519 946 475 c 1
EndSplineSet
EndChar

StartChar: n1
Encoding: 3368 3368 76
Width: 2042
GlyphClass: 2
Flags: HW
LayerCount: 2
Fore
SplineSet
605 59 m 0
 636 59 667 68 699 68 c 128
 713 68 729 49 729 34 c 0
 729 13 719 1 700 -2 c 0
 666 -9 633 -12 601 -12 c 0
 313 -12 100 224 100 499 c 0
 100 769 296 1011 577 1011 c 0
 797 1011 947 861 1011 701 c 5
 1078 863 1233 1013 1454 1013 c 0
 1729 1013 1943 782 1943 501 c 0
 1943 212 1726 -10 1436 -10 c 0
 1401 -10 1366 -6 1329 2 c 0
 1310 6 1301 18 1301 37 c 0
 1301 53 1317 72 1331 72 c 128
 1337 72 1341 72 1344 71 c 0
 1375 64 1406 61 1435 61 c 0
 1686 61 1872 251 1872 500 c 0
 1872 752 1673 943 1456 943 c 0
 1199 943 1045 730 1045 486 c 2
 1046 21 l 2
 1046 2 1029 -13 1010 -13 c 128
 991 -13 976 2 976 21 c 2
 973 483 l 2
 971 737 833 941 576 941 c 128
 341 941 169 738 169 502 c 0
 169 255 356 59 605 59 c 0
EndSplineSet
EndChar

StartChar: p1
Encoding: 3370 3370 77
Width: 1700
GlyphClass: 2
Flags: HW
LayerCount: 2
Fore
SplineSet
444 592 m 0
 292 592 170 463 170 318 c 0
 170 193 255 97 351 62 c 0
 367 57 375 47 375 34 c 128
 375 13 362 -6 344 -6 c 128
 337 -6 323 -3 302 5 c 128
 196 44 100 182 100 318 c 0
 100 501 254 662 443 662 c 0
 632 662 790 506 790 321 c 0
 790 223 740 126 682 71 c 1
 1530 67 l 1
 1528 974 l 1
 1528 981 l 130
 1528 994 1548 1009 1563 1009 c 128
 1582 1009 1598 993 1598 974 c 2
 1600 32 l 2
 1600 13 1584 -3 1565 -3 c 2
 569 2 l 2
 551 2 534 17 534 34 c 0
 534 51 541 63 555 69 c 0
 641 107 718 199 718 317 c 0
 718 473 597 592 444 592 c 0
EndSplineSet
EndChar

StartChar: p2
Encoding: 3371 3371 78
Width: 2219
GlyphClass: 2
Flags: HW
LayerCount: 2
Fore
SplineSet
100 309 m 0
 100 490 252 651 439 651 c 0
 628 651 782 504 782 313 c 0
 782 214 737 124 680 68 c 1
 1116 66 l 1
 1116 416 l 2
 1116 771 1263 1011 1611 1011 c 0
 1959 1011 2122 776 2119 408 c 2
 2116 31 l 2
 2116 15 2101 -4 2087 -4 c 2
 569 -2 l 2
 546 -2 534 12 534 41 c 0
 534 51 541 59 555 65 c 0
 638 103 712 193 712 308 c 0
 712 463 592 581 440 581 c 0
 289 581 171 453 171 310 c 0
 171 185 257 87 355 55 c 0
 371 50 379 40 379 27 c 128
 379 6 367 -14 349 -14 c 128
 342 -14 328 -10 307 -3 c 128
 200 36 100 171 100 309 c 0
1186 416 m 2
 1186 65 l 1
 2047 65 l 1
 2049 409 l 1
 2049 730 1921 941 1620 941 c 128
 1314 941 1186 740 1186 416 c 2
EndSplineSet
EndChar

StartChar: p3
Encoding: 3372 3372 79
Width: 2641
GlyphClass: 2
Flags: HW
LayerCount: 2
Fore
SplineSet
1146 714 m 1
 1200 874 1356 1016 1565 1016 c 0
 1854 1016 2065 811 2065 523 c 0
 2065 326 1950 155 1804 70 c 1
 2470 68 l 1
 2470 367 2471 666 2471 965 c 4
 2471 984 2487 1000 2506 1000 c 128
 2525 1000 2541 984 2541 965 c 2
 2540 32 l 2
 2540 14 2523 -3 2505 -3 c 2
 1602 0 l 2
 1584 0 1567 15 1567 33 c 128
 1567 51 1581 68 1597 69 c 0
 1814 98 1994 284 1994 527 c 0
 1994 770 1811 945 1569 945 c 0
 1284 945 1182 725 1182 431 c 2
 1182 26 l 2
 1182 8 1165 -9 1147 -9 c 128
 1129 -9 1112 6 1112 25 c 2
 1111 431 l 2
 1111 742 996 947 692 947 c 0
 398 947 178 719 171 425 c 1
 215 527 330 621 473 621 c 0
 657 621 794 487 794 296 c 0
 794 120 650 -16 473 -16 c 0
 243 -16 100 200 100 417 c 0
 100 752 359 1017 688 1017 c 0
 928 1017 1084 897 1146 714 c 1
724 296 m 0
 724 444 607 552 473 552 c 0
 333 552 214 436 214 296 c 0
 214 157 336 53 473 53 c 0
 607 53 724 160 724 296 c 0
EndSplineSet
EndChar

StartChar: p4
Encoding: 3373 3373 80
Width: 1316
GlyphClass: 2
Flags: HW
LayerCount: 2
Fore
SplineSet
771 350 m 0
 826 350 919 360 948 360 c 0
 1084 360 1213 299 1213 168 c 0
 1213 22 1064 -20 881 -20 c 0
 796 -20 690 -13 563 0 c 0
 546 1 531 18 531 36 c 128
 531 51 546 70 560 70 c 128
 641 70 759 52 880 52 c 128
 1028 52 1141 69 1141 172 c 0
 1141 247 1041 291 955 291 c 0
 904 291 841 282 786 282 c 0
 629 282 500 330 500 473 c 0
 500 597 610 665 733 665 c 0
 819 665 910 617 1005 617 c 0
 1078 617 1146 655 1146 732 c 0
 1146 883 939 946 750 946 c 0
 440 946 170 732 170 417 c 0
 170 263 252 124 345 45 c 0
 354 38 358 31 358 22 c 0
 358 -4 348 -17 327 -17 c 0
 316 -17 307 -14 300 -8 c 0
 176 96 100 233 100 426 c 0
 100 784 400 1015 760 1015 c 0
 981 1015 1216 937 1216 730 c 0
 1216 617 1117 547 1006 547 c 0
 920 547 814 596 719 596 c 0
 638 596 567 538 567 476 c 0
 567 385 666 350 771 350 c 0
EndSplineSet
EndChar

StartChar: m1
Encoding: 3374 3374 81
Width: 1390
GlyphClass: 2
Flags: HW
LayerCount: 2
Fore
SplineSet
100 446 m 2
 100 757 379 1011 692 1011 c 0
 1028 1011 1293 735 1291 407 c 2
 1289 35 l 2
 1289 16 1273 0 1254 0 c 2
 135 1 l 2
 117 1 100 18 100 36 c 2
 100 446 l 2
860 693 m 0
 860 831 771 935 642 935 c 0
 390 935 170 694 170 442 c 2
 170 71 l 1
 235 71 l 2
 531 71 860 370 860 693 c 0
847 918 m 1
 905 855 929 778 929 696 c 0
 929 402 690 169 482 71 c 1
 1219 70 l 1
 1219 443 l 2
 1219 675 1039 858 847 918 c 1
EndSplineSet
EndChar

StartChar: y1
Encoding: 3375 3375 82
Width: 1948
GlyphClass: 2
Flags: HW
LayerCount: 2
Fore
SplineSet
412 1016 m 0
 571 1016 669 895 710 774 c 1
 763 897 875 1014 1045 1014 c 0
 1258 1014 1389 829 1389 615 c 0
 1389 377 1266 198 1094 88 c 1
 1155 67 1212 57 1268 57 c 0
 1557 57 1778 283 1778 565 c 0
 1778 714 1717 852 1603 954 c 0
 1595 961 1591 970 1591 979 c 0
 1591 998 1608 1016 1627 1016 c 0
 1635 1016 1643 1013 1650 1006 c 0
 1779 891 1848 734 1848 565 c 0
 1848 241 1589 -12 1263 -12 c 0
 1182 -12 1097 5 1013 44 c 1
 927 5 841 -11 757 -11 c 0
 394 -11 100 282 100 650 c 0
 100 845 215 1016 412 1016 c 0
412 945 m 0
 256 945 170 805 170 649 c 0
 170 322 427 59 753 59 c 0
 814 59 877 69 935 89 c 1
 768 201 672 376 669 592 c 0
 667 765 592 945 412 945 c 0
1044 944 m 0
 850 944 740 759 740 578 c 0
 740 380 854 210 1014 123 c 1
 1186 212 1319 388 1319 614 c 0
 1319 791 1218 944 1044 944 c 0
EndSplineSet
EndChar

StartChar: r3
Encoding: 3376 3376 83
Width: 1427
GlyphClass: 2
Flags: HW
LayerCount: 2
Fore
SplineSet
519 384 m 0
 519 610 701 792 927 792 c 0
 1015 792 1103 763 1173 711 c 1
 1083 842 910 943 713 943 c 0
 425 943 170 736 170 448 c 0
 170 259 279 118 408 49 c 0
 418 44 427 30 427 18 c 0
 427 -1 411 -17 392 -17 c 0
 387 -17 379 -15 375 -13 c 0
 226 67 100 230 100 448 c 0
 100 777 387 1013 714 1013 c 0
 1043 1013 1328 778 1328 444 c 0
 1328 193 1157 -10 905 -10 c 0
 686 -10 519 165 519 384 c 0
589 385 m 0
 589 205 725 60 905 60 c 0
 1116 60 1258 233 1258 444 c 0
 1258 598 1084 722 927 722 c 0
 741 722 589 572 589 385 c 0
EndSplineSet
EndChar

StartChar: rh
Encoding: 3377 3377 84
Width: 1344
GlyphClass: 2
Flags: HW
LayerCount: 2
Fore
SplineSet
100 469 m 0
 100 788 363 1015 681 1015 c 0
 987 1015 1245 791 1245 468 c 0
 1245 227 1072 44 861 -12 c 0
 858 -13 854 -13 849 -13 c 128
 832 -13 817 3 817 15 c 128
 817 39 827 52 843 56 c 0
 1021 104 1175 255 1175 472 c 0
 1175 743 945 943 673 943 c 0
 400 943 170 742 170 468 c 0
 170 251 323 106 496 56 c 0
 513 51 522 42 522 28 c 0
 522 1 510 -13 487 -13 c 0
 484 -13 480 -13 476 -12 c 0
 277 45 100 218 100 469 c 0
EndSplineSet
EndChar

StartChar: l3
Encoding: 3378 3378 85
Width: 1646
GlyphClass: 2
Flags: HW
LayerCount: 2
Fore
SplineSet
1474 978 m 2
 1474 997 1490 1013 1509 1013 c 0
 1528 1013 1544 997 1544 978 c 2
 1546 35 l 2
 1546 16 1530 0 1511 0 c 2
 135 1 l 2
 116 1 100 17 100 36 c 2
 100 378 l 2
 100 582 118 694 205 818 c 128
 277 921 412 1010 575 1010 c 0
 851 1010 1057 800 1057 525 c 0
 1057 490 1053 455 1045 421 c 0
 1040 403 1029 394 1011 394 c 2
 171 392 l 1
 170 392 l 1
 170 71 l 1
 1476 70 l 1
 1474 978 l 2
584 938 m 128
 437 938 327 870 261 776 c 128
 197 685 175 593 171 462 c 1
 981 464 l 1
 985 486 986 509 986 530 c 0
 986 745 812 938 584 938 c 128
EndSplineSet
EndChar

StartChar: lh
Encoding: 3379 3379 86
Width: 1262
GlyphClass: 2
Flags: HW
LayerCount: 2
Fore
SplineSet
371 230 m 0
 207 230 102 389 102 540 c 4
 102 837 388 1013 682 1013 c 0
 911 1013 1129 894 1129 666 c 0
 1129 583 1095 520 1026 479 c 1
 1105 440 1165 360 1165 268 c 0
 1165 69 989 0 781 0 c 2
 376 0 l 2
 254 0 170 -36 170 -129 c 0
 170 -230 249 -260 361 -260 c 2
 1113 -260 l 2
 1136 -260 1148 -272 1148 -295 c 0
 1148 -313 1131 -330 1113 -330 c 2
 361 -330 l 2
 204 -330 100 -267 100 -130 c 0
 100 20 222 68 376 70 c 1
 781 70 l 2
 947 70 1094 109 1094 268 c 0
 1094 385 991 438 864 445 c 1
 828 445 l 1
 811 446 795 461 795 478 c 128
 795 496 809 514 820 514 c 2
 888 515 l 1
 986 515 1059 571 1059 665 c 0
 1059 845 880 943 682 943 c 0
 455 943 271 836 200 672 c 1
 247 706 300 722 353 722 c 0
 487 722 612 618 612 471 c 0
 612 333 509 230 371 230 c 0
354 653 m 0
 262 653 196 592 172 521 c 1
 172 520 l 1
 174 409 262 301 378 301 c 0
 479 301 541 382 541 473 c 0
 541 574 456 653 354 653 c 0
EndSplineSet
EndChar

StartChar: zh
Encoding: 3380 3380 87
Width: 1128
GlyphClass: 2
Flags: HW
LayerCount: 2
Fore
SplineSet
824 248 m 0
 824 94 675 -12 518 -12 c 0
 406 -12 320 37 255 95 c 0
 247 102 244 111 244 120 c 0
 244 138 257 156 275 156 c 128
 286 156 296 153 303 147 c 0
 352 102 429 59 518 59 c 0
 636 59 755 133 755 246 c 0
 755 292 736 338 699 384 c 1
 657 376 615 372 575 372 c 0
 335 372 100 506 100 756 c 0
 100 866 143 943 207 1003 c 0
 215 1011 224 1014 232 1014 c 0
 250 1014 266 998 266 978 c 128
 266 968 262 959 254 952 c 0
 209 910 168 836 168 756 c 0
 168 549 376 443 578 443 c 0
 598 443 618 444 639 446 c 1
 517 549 446 669 446 750 c 0
 446 907 575 1011 735 1011 c 0
 897 1011 1028 875 1028 718 c 0
 1028 554 901 447 772 403 c 0
 772 402 773 401 774 400 c 0
 808 353 824 300 824 248 c 0
958 721 m 0
 958 844 850 941 726 941 c 0
 619 941 516 853 516 746 c 0
 516 619 656 529 724 461 c 1
 845 494 958 578 958 721 c 0
EndSplineSet
EndChar

StartChar: v1
Encoding: 3381 3381 88
Width: 1748
GlyphClass: 2
Flags: HW
LayerCount: 2
Fore
SplineSet
645 1010 m 0
 944 1010 1202 769 1202 471 c 0
 1202 299 1109 151 992 70 c 1
 1576 68 l 1
 1578 977 l 2
 1578 996 1593 1012 1612 1012 c 128
 1627 1012 1648 997 1648 984 c 130
 1648 976 l 1
 1646 33 l 2
 1646 15 1629 -2 1611 -2 c 2
 839 0 l 2
 821 0 804 16 804 34 c 0
 804 53 813 64 830 69 c 0
 991 115 1132 269 1132 468 c 0
 1132 728 910 940 645 940 c 0
 387 940 171 737 171 479 c 0
 171 247 340 80 556 65 c 0
 574 64 589 48 589 29 c 128
 589 14 575 -5 561 -5 c 0
 302 -5 100 217 100 479 c 0
 100 776 350 1010 645 1010 c 0
EndSplineSet
EndChar

StartChar: z1
Encoding: 3382 3382 89
Width: 1917
GlyphClass: 2
Flags: HW
LayerCount: 2
Fore
SplineSet
486 1012 m 128
 504 1012 517 992 517 972 c 128
 517 959 510 950 495 944 c 0
 325 875 172 680 172 447 c 0
 172 249 307 56 501 56 c 0
 711 56 772 216 778 444 c 0
 784 769 977 1011 1294 1011 c 0
 1593 1011 1817 766 1817 469 c 0
 1817 230 1670 -11 1427 -11 c 0
 1211 -11 1069 164 1069 379 c 0
 1069 650 1295 834 1561 834 c 1
 1504 894 1400 940 1291 940 c 0
 1028 940 865 735 850 483 c 0
 833 197 783 -12 504 -12 c 0
 262 -12 102 208 102 450 c 0
 102 720 278 930 469 1009 c 0
 474 1011 479 1012 486 1012 c 128
1643 774 m 1
 1624 776 1605 776 1586 776 c 0
 1314 776 1139 608 1139 381 c 0
 1139 218 1255 58 1412 58 c 0
 1632 58 1740 263 1740 469 c 0
 1740 582 1707 695 1643 774 c 1
EndSplineSet
EndChar

StartChar: sh
Encoding: 3383 3383 90
Width: 1932
GlyphClass: 2
Flags: HW
LayerCount: 2
Fore
SplineSet
718 287 m 0
 718 204 677 119 628 70 c 1
 1283 70 l 1
 1286 413 l 1
 1250 406 1214 402 1177 402 c 0
 977 402 792 528 792 729 c 0
 792 883 924 1013 1090 1013 c 0
 1274 1013 1360 896 1358 709 c 2
 1356 504 l 1
 1561 576 1724 760 1763 983 c 0
 1766 999 1781 1012 1797 1012 c 0
 1816 1012 1832 996 1832 977 c 2
 1832 35 l 2
 1832 16 1816 0 1797 0 c 2
 517 0 l 2
 498 0 482 16 482 35 c 0
 482 48 491 62 503 67 c 0
 578 100 647 181 647 284 c 0
 647 418 540 523 409 523 c 0
 277 523 169 414 169 286 c 0
 169 182 237 100 314 67 c 0
 326 62 336 47 336 34 c 0
 336 15 320 -1 301 -1 c 0
 297 -1 290 0 286 2 c 0
 188 44 100 149 100 283 c 0
 100 457 236 593 409 593 c 0
 577 593 718 453 718 287 c 0
1092 942 m 0
 962 942 863 848 863 728 c 0
 863 566 1018 472 1180 472 c 0
 1215 472 1251 476 1286 484 c 1
 1288 710 l 1
 1288 854 1232 942 1092 942 c 0
1762 768 m 1
 1679 611 1533 485 1356 430 c 1
 1353 70 l 1
 1762 70 l 1
 1762 768 l 1
EndSplineSet
EndChar

StartChar: s1
Encoding: 3384 3384 91
Width: 2513
GlyphClass: 2
Flags: HW
LayerCount: 2
Fore
SplineSet
2413 480 m 0
 2413 218 2214 -8 1939 -8 c 0
 1663 -8 1510 191 1510 480 c 2
 1510 526 l 2
 1510 743 1469 943 1272 943 c 0
 1083 943 1021 720 1021 527 c 130
 1021 28 l 2
 1021 9 1005 -6 986 -6 c 128
 967 -6 951 9 951 28 c 2
 951 456 l 2
 951 733 861 942 591 942 c 0
 353 942 169 748 169 512 c 0
 169 256 362 64 622 64 c 0
 651 64 679 68 708 68 c 128
 728 68 737 51 737 36 c 128
 737 -4 681 -7 638 -7 c 0
 331 -7 100 206 100 509 c 0
 100 787 311 1012 590 1012 c 0
 787 1012 918 899 979 751 c 1
 1016 879 1115 1012 1260 1012 c 0
 1500 1012 1580 788 1580 527 c 2
 1580 504 l 2
 1580 239 1690 60 1935 60 c 0
 2180 60 2341 269 2341 489 c 0
 2341 744 2151 941 1864 941 c 128
 1851 941 1835 961 1835 976 c 128
 1835 995 1850 1011 1870 1011 c 0
 2175 1011 2413 784 2413 480 c 0
EndSplineSet
EndChar

StartChar: h1
Encoding: 3385 3385 92
Width: 2333
GlyphClass: 2
Flags: HW
LayerCount: 2
Fore
SplineSet
1715 942 m 0
 1468 942 1274 743 1274 495 c 0
 1274 275 1439 106 1624 68 c 0
 1643 64 1652 53 1652 34 c 0
 1652 16 1635 -1 1617 -1 c 2
 574 0 l 6
 553 0 539 16 539 38 c 132
 539 50 546 60 560 67 c 4
 649 106 726 201 726 322 c 0
 726 482 606 599 448 599 c 0
 291 599 170 480 170 322 c 0
 170 192 257 97 354 62 c 0
 370 57 378 47 378 34 c 128
 378 13 365 -6 347 -6 c 128
 340 -6 335 -5 331 -4 c 0
 209 40 100 157 100 320 c 0
 100 517 249 671 446 671 c 0
 641 671 796 517 796 318 c 0
 796 222 760 138 688 69 c 5
 1440 69 l 1
 1299 159 1206 299 1206 504 c 0
 1206 784 1428 1011 1719 1011 c 0
 2001 1011 2233 772 2233 488 c 0
 2233 249 2082 70 1905 -3 c 0
 1900 -5 1895 -6 1890 -6 c 128
 1871 -6 1856 7 1856 30 c 128
 1856 45 1863 55 1878 61 c 0
 2031 125 2163 280 2163 487 c 0
 2163 731 1974 942 1715 942 c 0
EndSplineSet
EndChar

StartChar: avagraha
Encoding: 3389 3389 93
Width: 1462
GlyphClass: 2
Flags: HW
LayerCount: 2
Fore
SplineSet
74.1533203125 -287.575195312 m 0
 74.1533203125 -420.465820312 180.240234375 -519.516601562 308.831054688 -519.516601562 c 0
 517.970242079 -519.516601562 571.312415501 -307.440978928 599.841796875 -122 c 2
 760.841796875 942 l 2
 795.967460847 1170.31681582 877.892450639 1434.82910156 1146.62792969 1434.82910156 c 0
 1330.04581315 1434.82910156 1462.79882812 1298.36962346 1462.79882812 1112.08789062 c 0
 1462.79882812 1074.64941406 1452.84179688 1044 1420.84179688 1044 c 0
 1399.84179688 1044 1382.84179688 1061 1382.84179688 1082 c 0
 1382.84179688 1095.63438819 1386.49414062 1111.21954001 1386.49414062 1124.73828125 c 0
 1386.49414062 1259.20898438 1280.33203125 1359.70800781 1144.04394531 1359.70800781 c 0
 924.752478221 1359.70800781 864.934474228 1124.45292584 834.841796875 931 c 2
 673.841796875 -133 l 2
 641.531568971 -353.297008433 564.538144557 -594.465820312 309.424804688 -594.465820312 c 0
 136.520816942 -594.465820312 0 -463.419336313 0 -287.55078125 c 0
 0 -247.361328125 2.9951171875 -180 45.841796875 -180 c 0
 66.841796875 -180 83.841796875 -197 83.841796875 -218 c 0
 83.841796875 -240.485648693 74.1533203125 -265.816054845 74.1533203125 -287.575195312 c 0
EndSplineSet
EndChar

StartChar: a2
Encoding: 3390 3390 94
Width: 977
GlyphClass: 2
Flags: HW
LayerCount: 2
Fore
SplineSet
448 61 m 0
 667 61 808 293 808 523 c 0
 808 737 681 943 461 943 c 0
 313 943 194 826 180 689 c 0
 179 672 162 657 144 657 c 128
 129 657 110 673 110 686 c 128
 110 865 282 1012 449 1012 c 0
 700 1012 878 790 878 523 c 0
 878 257 721 -11 450 -11 c 0
 272 -11 100 136 100 322 c 128
 100 335 120 351 135 351 c 128
 154 351 169 336 170 318 c 0
 181 176 298 61 448 61 c 0
EndSplineSet
EndChar

StartChar: i1
Encoding: 3391 3391 95
Width: 340
GlyphClass: 2
Flags: HW
LayerCount: 2
Fore
SplineSet
-463 1026 m 0
 -498 1026 -501 1054 -501 1088 c 0
 -501 1276 -339 1431 -153 1431 c 0
 -87 1431 -20 1412 39 1373 c 0
 143 1304 206 1198 228 1055 c 0
 234 1014 237 954 238 876 c 2
 240 23 l 2
 240 5 224 -12 207 -12 c 128
 183 -12 170 2 170 23 c 2
 168 876 l 2
 168 1026 161 1105 107 1201 c 128
 60 1284 -37 1361 -153 1361 c 0
 -312 1361 -431 1232 -431 1085 c 0
 -431 1082 -431 1079 -431 1076 c 0
 -431 1047 -432 1026 -463 1026 c 0
EndSplineSet
EndChar

StartChar: i2
Encoding: 3392 3392 96
Width: 398
GlyphClass: 2
Flags: HW
LayerCount: 2
Fore
SplineSet
262 -11 m 128
 244 -11 225 2 225 14 c 2
 225 25 l 1
 227 1046 l 2
 227 1215 161 1307 -3 1307 c 0
 -18 1307 -34 1306 -50 1304 c 1
 -5 1275 29 1220 29 1160 c 0
 29 1066 -47 992 -140 992 c 0
 -236 992 -307 1064 -307 1160 c 0
 -307 1290 -168 1375 -10 1375 c 0
 194 1375 297 1264 297 1059 c 2
 297 1046 l 1
 295 25 l 1
 295 24 l 2
 295 7 279 -11 262 -11 c 128
-41 1162 m 0
 -41 1216 -88 1261 -142 1261 c 0
 -201 1261 -235 1204 -235 1157 c 0
 -235 1107 -200 1061 -140 1061 c 0
 -85 1061 -41 1107 -41 1162 c 0
EndSplineSet
EndChar

StartChar: u1
Encoding: 3393 3393 97
Width: 733
GlyphClass: 2
Flags: HW
LayerCount: 2
Fore
SplineSet
367 -545 m 4
 213 -545 102 -421 102 -280 c 4
 102 -183 156 -92 240 -46 c 5
 322 104 465 372 465 584 c 4
 465 796 366 911 182 946 c 4
 163 950 154 964 154 979 c 4
 154 997 166 1015 187 1015 c 4
 403 1015 535 808 535 592 c 4
 535 436 468 237 336 -16 c 5
 347 -15 356 -14 367 -14 c 4
 511 -14 633 -127 633 -281 c 4
 633 -432 514 -545 367 -545 c 4
563 -281 m 4
 563 -173 473 -81 367 -81 c 4
 253 -81 171 -174 171 -279 c 4
 171 -385 256 -476 368 -476 c 4
 472 -476 563 -390 563 -281 c 4
EndSplineSet
EndChar

StartChar: u2
Encoding: 3394 3394 98
Width: 1029
GlyphClass: 2
Flags: HW
LayerCount: 2
Fore
SplineSet
443 -857 m 4
 679 -857 859 -681 859 -439 c 4
 859 -243 710 -69 522 -51 c 5
 608 -93 684 -193 684 -311 c 4
 684 -472 556 -601 393 -601 c 4
 232 -601 100 -469 100 -312 c 4
 100 -185 169 -97 256 -50 c 5
 336 129 475 385 475 592 c 4
 475 777 376 911 226 942 c 4
 207 945 197 957 197 977 c 4
 197 994 213 1011 232 1011 c 4
 234 1011 237 1011 239 1010 c 4
 422 973 546 809 546 589 c 4
 546 408 432 163 355 -1 c 5
 401 15 445 22 490 22 c 4
 735 22 929 -188 929 -441 c 4
 929 -720 719 -927 447 -927 c 4
 328 -927 236 -890 160 -836 c 4
 150 -829 145 -821 145 -810 c 132
 145 -790 160 -772 179 -772 c 132
 188 -772 195 -774 201 -779 c 4
 262 -822 346 -857 443 -857 c 4
269 -130 m 5
 221 -173 168 -237 168 -318 c 4
 168 -439 278 -531 392 -531 c 4
 519 -531 614 -433 614 -309 c 4
 614 -186 509 -90 393 -90 c 4
 352 -90 309 -102 269 -130 c 5
EndSplineSet
EndChar

StartChar: r1
Encoding: 3395 3395 99
Width: 430
GlyphClass: 2
Flags: HW
LayerCount: 2
Fore
SplineSet
33 962 m 4
 29 968 28 974 28 980 c 4
 28 1000 46 1015 65 1015 c 4
 76 1015 87 1009 94 997 c 4
 241 742 331 473 331 142 c 4
 331 -273 113 -610 -312 -610 c 4
 -501 -610 -683 -555 -683 -372 c 4
 -683 -198 -499 -128 -336 -128 c 4
 -167 -128 30 -195 30 -376 c 4
 30 -393 27 -411 22 -429 c 5
 181 -313 261 -111 261 143 c 4
 261 459 174 719 33 962 c 4
-333 -198 m 4
 -461 -198 -614 -241 -614 -372 c 4
 -614 -495 -472 -539 -345 -539 c 4
 -207 -539 -41 -510 -41 -375 c 4
 -41 -241 -202 -198 -333 -198 c 4
EndSplineSet
EndChar

StartChar: e1
Encoding: 3398 3398 100
Width: 1419
GlyphClass: 2
Flags: HW
LayerCount: 2
Fore
SplineSet
178 520 m 1
 236 615 345 692 478 692 c 128
 690 692 843 531 843 341 c 0
 843 131 677 -13 494 -13 c 0
 255 -13 100 199 100 440 c 0
 100 770 375 1014 700 1014 c 0
 1048 1014 1320 766 1320 418 c 0
 1320 260 1257 111 1161 4 c 0
 1154 -4 1146 -8 1136 -8 c 128
 1117 -8 1100 8 1100 27 c 128
 1100 36 1103 44 1109 51 c 0
 1195 146 1249 277 1249 417 c 0
 1249 721 1012 944 710 944 c 0
 435 944 219 760 179 524 c 0
 178 522 178 521 178 520 c 1
480 622 m 128
 319 622 195 494 195 330 c 0
 195 187 342 56 494 56 c 0
 652 56 772 180 772 339 c 0
 772 505 647 622 480 622 c 128
EndSplineSet
EndChar

StartChar: e2
Encoding: 3399 3399 101
Width: 1010
GlyphClass: 2
Flags: HW
LayerCount: 2
Fore
SplineSet
910 229 m 0
 910 79 773 -12 623 -12 c 0
 329 -12 100 225 100 521 c 0
 100 798 305 1013 584 1013 c 0
 746 1013 894 924 894 764 c 4
 894 655 806 570 692 570 c 0
 577 570 487 665 487 781 c 0
 487 849 521 907 561 942 c 1
 336 929 170 757 170 522 c 0
 170 275 343 109 550 66 c 1
 513 103 486 159 486 221 c 0
 486 343 578 436 701 436 c 0
 824 436 910 338 910 229 c 0
824 765 m 0
 824 848 761 899 697 923 c 1
 620 922 557 862 557 783 c 0
 557 707 614 640 693 640 c 0
 767 640 824 694 824 765 c 0
702 73 m 0
 780 73 840 171 840 234 c 0
 840 302 778 365 699 365 c 0
 618 365 555 301 555 221 c 0
 555 138 620 73 702 73 c 0
EndSplineSet
EndChar

StartChar: xx
Encoding: 3405 3405 106
Width: 142
GlyphClass: 4
Flags: HW
LayerCount: 2
Fore
SplineSet
-273 1333 m 0
 -273 1369 -270 1430 -230 1430 c 0
 -211 1430 -195 1414 -195 1395 c 0
 -195 1373 -203 1350 -203 1330 c 0
 -203 1211 -106 1117 13 1117 c 0
 131 1117 230 1208 230 1329 c 0
 230 1348 223 1370 223 1391 c 0
 223 1410 239 1426 258 1426 c 0
 291 1426 300 1387 300 1345 c 0
 300 1172 185 1048 16 1048 c 4
 -146 1048 -273 1168 -273 1333 c 0
EndSplineSet
EndChar

StartChar: dotreph
Encoding: 3406 3406 107
Width: 0
GlyphClass: 4
Flags: HW
LayerCount: 2
Fore
SplineSet
0 1284 m 0
 0 1322 32 1354 70 1354 c 4
 108 1354 139 1322 139 1284 c 0
 139 1246 108 1215 70 1215 c 0
 32 1215 0 1246 0 1284 c 0
EndSplineSet
EndChar

StartChar: au2
Encoding: 3415 3415 108
Width: 1584
GlyphClass: 2
Flags: HW
LayerCount: 2
Fore
SplineSet
455 1014 m 4
 617 1014 722 915 763 787 c 1
 823 906 936 1004 1104 1004 c 0
 1326 1004 1484 812 1484 597 c 0
 1484 230 1132 0 759 0 c 0
 631 0 518 25 408 75 c 0
 394 81 387 90 387 103 c 128
 387 124 399 142 418 142 c 128
 426 142 432 141 437 139 c 0
 542 91 652 69 759 69 c 0
 1086 69 1413 275 1413 592 c 0
 1413 770 1289 934 1106 934 c 0
 916 934 787 778 787 595 c 128
 787 566 783 535 754 535 c 128
 720 535 715 558 715 590 c 0
 715 604 716 621 716 638 c 0
 716 815 616 943 457 943 c 0
 292 943 171 820 171 655 c 0
 171 616 178 577 194 541 c 0
 196 536 197 531 197 526 c 0
 197 508 183 491 165 491 c 0
 148 491 136 498 131 513 c 0
 110 559 100 608 100 657 c 0
 100 858 259 1014 455 1014 c 4
EndSplineSet
EndChar

StartChar: datemark
Encoding: 3449 3449 109
Width: 2465
GlyphClass: 2
Flags: HW
LayerCount: 2
Fore
SplineSet
776 46 m 128
 776 3 654 1 617 1 c 0
 324 1 100 227 100 514 c 0
 100 804 318 1030 607 1030 c 0
 830 1030 991 908 1054 719 c 1
 1118 894 1285 1026 1519 1026 c 0
 1790 1026 1979 846 2048 638 c 1
 2330 633 l 2
 2349 633 2365 617 2365 598 c 128
 2365 583 2351 563 2338 563 c 130
 2329 563 l 1
 2067 567 l 1
 2074 530 2078 495 2078 460 c 0
 2078 220 1930 0 1687 -0 c 0
 1504 0 1365 131 1365 312 c 0
 1365 568 1594 641 1883 641 c 0
 1912 641 1941 640 1973 639 c 1
 1905 816 1746 958 1510 958 c 0
 1203 958 1091 747 1087 444 c 1
 1084 34 l 1
 1084 33 l 2
 1084 14 1067 -1 1048 -1 c 128
 1029 -1 1014 14 1014 33 c 2
 1016 443 l 2
 1016 451 1016 459 1016 467 c 0
 1016 756 890 959 613 959 c 0
 361 959 170 768 170 515 c 0
 170 265 362 71 617 71 c 4
 654 71 692 75 731 86 c 0
 734 87 740 87 746 87 c 128
 764 87 776 68 776 46 c 128
1974 569 m 2
 1947 569 1922 570 1898 570 c 0
 1653 570 1435 535 1435 309 c 0
 1435 170 1547 71 1684 71 c 0
 1888 71 2007 261 2007 456 c 4
 2007 493 2003 531 1995 569 c 1
 1974 569 l 2
EndSplineSet
EndChar

StartChar: ZWNJ
Encoding: 8204 8204 110
Width: 270
GlyphClass: 2
Flags: HW
LayerCount: 2
Fore
SplineSet
100 1032 m 1
 170 1032 l 1
 170 43 l 1
 100 43 l 1
 100 1032 l 1
EndSplineSet
EndChar

StartChar: ZWJ
Encoding: 8205 8205 111
Width: 281
GlyphClass: 2
Flags: HW
LayerCount: 2
Fore
SplineSet
140 1157 m 1
 61 1003 l 1
 0 1003 l 1
 110 1204 l 1
 8 1387 l 1
 73 1387 l 1
 119 1298 l 2
 123 1291 129 1276 139 1254 c 1
 212 1387 l 1
 276 1387 l 1
 171 1207 l 1
 281 1003 l 1
 220 1003 l 1
 140 1157 l 1
106 930 m 1
 166 930 l 1
 166 -12 l 1
 106 -12 l 1
 106 930 l 1
EndSplineSet
EndChar

StartChar: rupee
Encoding: 8377 8377 112
Width: 1231
GlyphClass: 2
Flags: HW
LayerCount: 2
Fore
SplineSet
135 1246 m 0
 135 1261 150 1276 165 1276 c 2
 1059 1273 l 2
 1074 1273 1089 1258 1089 1242 c 0
 1089 1227 1075 1213 1061 1213 c 2
 1059 1213 l 1
 663 1215 l 1
 734 1152 774 1084 774 980 c 0
 774 956 772 930 767 901 c 1
 832 901 l 2
 910 901 988 901 1067 900 c 0
 1083 900 1097 885 1097 870 c 0
 1097 855 1082 840 1067 840 c 0
 973 841 879 841 784 841 c 2
 746 841 l 1
 662 666 526 559 329 484 c 1
 869 55 l 2
 879 46 880 42 880 35 c 0
 880 18 862 0 849 0 c 0
 845 0 840 2 832 8 c 2
 240 477 l 2
 233 483 230 490 230 499 c 0
 230 516 241 528 254 530 c 0
 459 565 586 695 684 842 c 1
 514 843 343 843 173 843 c 0
 158 843 143 858 143 874 c 0
 143 889 156 903 171 903 c 2
 173 903 l 1
 704 902 l 1
 710 930 713 957 713 983 c 0
 713 1105 646 1197 526 1214 c 1
 165 1216 l 2
 149 1216 135 1231 135 1246 c 0
EndSplineSet
EndChar

StartChar: uni25CC
Encoding: 9676 9676 113
Width: 1131
GlyphClass: 2
Flags: HW
LayerCount: 2
Fore
SplineSet
940 759 m 1
 911 801 881 834 847 856 c 1
 876 896 l 1
 919 867 941 849 959 831 c 1
 961 830 l 1
 973 815 983 803 990 793 c 1
 940 759 l 1
646 990 m 1
 637 937 l 1
 608 941 587 942 568 942 c 0
 549 942 526 941 499 937 c 1
 490 990 l 1
 521 996 548 998 570 998 c 0
 592 998 617 996 646 990 c 1
1071 590 m 1
 1076 564 1077 542 1077 518 c 0
 1077 494 1074 470 1070 445 c 1
 1011 455 l 1
 1014 480 1016 498 1016 514 c 0
 1016 530 1014 553 1011 580 c 1
 1071 590 l 1
988 242 m 1
 962 207 949 188 930 169 c 1
 923 165 903 152 877 137 c 1
 844 182 l 1
 878 204 903 220 917 240 c 0
 926 254 935 266 941 275 c 1
 988 242 l 1
296 853 m 1
 259 830 235 813 222 789 c 1
 202 759 l 1
 153 793 l 1
 178 827 196 849 209 861 c 1
 216 866 235 879 262 897 c 1
 296 853 l 1
127 454 m 1
 70 445 l 1
 66 470 65 493 65 517 c 0
 65 541 66 566 70 590 c 1
 127 581 l 1
 124 561 123 541 123 518 c 0
 123 495 124 472 127 454 c 1
646 45 m 1
 623 41 600 39 571 39 c 0
 541 39 514 41 490 45 c 1
 499 98 l 1
 529 94 549 93 568 93 c 0
 586 93 609 94 637 98 c 1
 646 45 l 1
262 138 m 1
 203 177 194 186 175 210 c 1
 174 210 l 1
 153 241 l 1
 202 276 l 1
 238 221 253 209 296 183 c 1
 262 138 l 1
EndSplineSet
EndChar

StartChar: r4
Encoding: 65539 -1 114
Width: 623
GlyphClass: 2
LigCaretCntFixed: 1
Flags: HW
LayerCount: 2
Fore
SplineSet
490 -265 m 0
 512 -265 523 -282 523 -299 c 0
 523 -317 512 -335 490 -335 c 0
 217 -335 100 -223 100 61 c 0
 100 330 203 750 250 984 c 0
 253 1003 265 1012 286 1013 c 0
 308 1013 318 998 318 975 c 0
 318 969 316 961 315 954 c 128
 270 728 169 301 169 36 c 0
 169 -191 271 -258 490 -265 c 0
EndSplineSet
LCarets2: 1 0
EndChar

StartChar: y2
Encoding: 65540 -1 115
Width: 618
GlyphClass: 2
LigCaretCntFixed: 1
Flags: HW
LayerCount: 2
Fore
SplineSet
70 21 m 128
 89 21 103 3 103 -17 c 128
 103 -29 96 -39 82 -47 c 128
 21 -84 -28 -160 -28 -245 c 0
 -28 -377 81 -484 216 -484 c 0
 372 -484 487 -358 487 -205 c 0
 487 178 110 302 110 762 c 0
 110 839 120 912 142 985 c 0
 147 1002 156 1011 170 1011 c 0
 197 1011 211 999 211 976 c 0
 211 972 210 969 209 966 c 0
 188 896 178 827 178 759 c 0
 178 346 557 155 557 -201 c 0
 557 -390 416 -554 220 -554 c 0
 23 -554 -91 -395 -91 -238 c 0
 -91 -140 -47 -43 49 16 c 0
 55 20 62 21 70 21 c 128
EndSplineSet
LCarets2: 1 3
EndChar

StartChar: v2
Encoding: 65543 -1 118
Width: 397
GlyphClass: 3
LigCaretCntFixed: 1
Flags: HW
LayerCount: 2
Fore
SplineSet
297 978 m 2
 297 -251 l 2
 297 -271 285 -286 264 -286 c 2
 -268 -286 l 2
 -287 -286 -303 -270 -303 -251 c 0
 -303 -231 -287 -216 -268 -216 c 2
 227 -221 l 1
 227 972 l 2
 227 999 245 1012 263 1012 c 0
 280 1012 297 1000 297 978 c 2
EndSplineSet
LCarets2: 1 0
EndChar

StartChar: k1cil
Encoding: 3455 3455 119
Width: 1998
GlyphClass: 3
Flags: HW
LayerCount: 2
Fore
SplineSet
1374 244 m 5
 1310 114 1186 -2 1006 -2 c 4
 851 -2 733 91 667 194 c 5
 630 86 531 -6 389 -6 c 4
 234 -6 101 116 101 271 c 4
 101 518 344 608 596 616 c 5
 636 834 800 1011 1007 1011 c 4
 1217 1011 1347 859 1400 692 c 5
 1453 839 1600 1025 1600 1183 c 4
 1600 1282 1551 1365 1493 1413 c 4
 1485 1420 1481 1429 1481 1439 c 4
 1481 1457 1494 1475 1515 1475 c 4
 1539 1475 1570 1446 1608 1388 c 4
 1650 1324 1672 1256 1672 1184 c 4
 1672 955 1498 804 1450 616 c 5
 1680 597 1898 481 1898 247 c 4
 1898 105 1795 -12 1655 -12 c 4
 1498 -12 1405 115 1374 244 c 5
1347 621 m 5
 1309 790 1197 943 1007 943 c 4
 819 943 702 786 667 618 c 5
 1347 621 l 5
1358 550 m 5
 657 548 l 5
 656 531 655 514 655 497 c 4
 655 279 782 68 1005 68 c 4
 1233 68 1360 280 1360 499 c 4
 1360 516 1359 533 1358 550 c 5
1437 547 m 5
 1430 495 1426 446 1426 402 c 4
 1426 224 1493 57 1654 57 c 4
 1752 57 1828 149 1828 249 c 4
 1828 446 1632 532 1437 547 c 5
613 292 m 6
 613 310 l 5
 594 368 585 430 585 495 c 4
 585 512 586 529 587 546 c 5
 371 536 171 463 171 275 c 4
 171 156 265 65 386 65 c 4
 494 65 562 122 596 205 c 4
 612 244 613 264 613 292 c 6
EndSplineSet
EndChar

StartChar: nhcil
Encoding: 3450 3450 120
Width: 2861
GlyphClass: 2
Flags: HW
LayerCount: 2
Fore
SplineSet
643 1012 m 0
 859 1012 1007 876 1070 711 c 1
 1118 862 1240 1013 1427 1013 c 128
 1615 1013 1735 860 1783 713 c 1
 1838 860 1977 1013 2184 1013 c 0
 2226 1013 2271 1007 2318 995 c 1
 2319 1006 2319 1017 2319 1028 c 0
 2319 1166 2240 1255 2152 1308 c 0
 2141 1315 2135 1323 2135 1332 c 0
 2135 1359 2145 1372 2164 1373 c 0
 2174 1373 2182 1371 2188 1368 c 0
 2293 1305 2390 1195 2390 1029 c 0
 2390 1011 2388 992 2386 973 c 1
 2594 889 2761 664 2761 386 c 0
 2761 182 2641 -12 2434 -12 c 0
 2242 -12 2115 161 2115 347 c 0
 2115 576 2259 734 2306 926 c 1
 2265 937 2226 943 2188 943 c 0
 1911 943 1818 723 1818 433 c 1
 1820 22 l 2
 1820 4 1803 -13 1785 -13 c 128
 1766 -13 1750 2 1750 22 c 2
 1747 429 l 2
 1745 688 1680 943 1427 943 c 128
 1172 943 1109 692 1109 424 c 1
 1112 22 l 2
 1112 4 1095 -13 1077 -13 c 128
 1059 -13 1042 2 1042 21 c 2
 1039 422 l 2
 1037 713 935 940 651 940 c 0
 378 940 169 695 169 433 c 0
 169 419 170 405 171 390 c 1
 211 497 310 587 453 587 c 0
 623 587 756 454 756 290 c 0
 756 128 630 1 465 1 c 0
 239 1 100 199 100 428 c 0
 100 734 335 1012 643 1012 c 0
2188 344 m 0
 2188 189 2297 57 2433 57 c 0
 2599 57 2691 219 2691 385 c 0
 2691 626 2550 825 2373 902 c 1
 2323 704 2188 574 2188 344 c 0
458 518 m 0
 324 518 221 412 221 284 c 0
 221 146 342 71 464 71 c 0
 590 71 686 166 686 291 c 0
 686 412 585 518 458 518 c 0
EndSplineSet
LCarets2: 2 0 0
EndChar

StartChar: n1cil
Encoding: 3451 3451 121
Width: 2199
GlyphClass: 2
Flags: HW
LayerCount: 2
Fore
SplineSet
602 60 m 4
 628 60 654 67 679 67 c 4
 697 67 713 48 713 32 c 4
 713 11 703 -1 683 -4 c 4
 655 -9 628 -11 601 -11 c 4
 314 -11 100 225 100 509 c 4
 100 796 320 1010 607 1010 c 4
 821 1010 993 865 1052 699 c 5
 1120 854 1302 1016 1540 1016 c 4
 1564 1016 1587 1014 1612 1011 c 5
 1615 1032 1616 1054 1616 1074 c 4
 1616 1195 1566 1292 1497 1362 c 4
 1490 1369 1487 1377 1487 1387 c 132
 1487 1406 1502 1422 1522 1422 c 132
 1532 1422 1540 1418 1547 1411 c 4
 1627 1330 1687 1216 1687 1075 c 4
 1687 1050 1685 1024 1681 998 c 5
 1909 940 2099 740 2099 456 c 4
 2099 227 1953 -11 1716 -11 c 4
 1514 -11 1358 173 1358 375 c 4
 1358 585 1539 762 1596 943 c 5
 1580 945 1564 946 1549 946 c 4
 1252 946 1087 740 1085 447 c 6
 1082 28 l 6
 1082 9 1065 -6 1047 -6 c 132
 1029 -6 1012 9 1012 28 c 6
 1013 464 l 6
 1013 739 873 940 609 940 c 4
 353 940 171 753 171 508 c 4
 171 263 355 60 602 60 c 4
1428 371 m 4
 1428 218 1557 58 1708 58 c 4
 1908 58 2029 261 2029 454 c 4
 2029 680 1876 874 1666 930 c 5
 1618 771 1428 565 1428 371 c 4
EndSplineSet
LCarets2: 2 0 0
EndChar

StartChar: l3cil
Encoding: 3453 3453 122
Width: 2082
GlyphClass: 3
Flags: HW
LayerCount: 2
Fore
SplineSet
556 386 m 0
 556 620 689 791 835 891 c 1
 766 921 698 941 634 941 c 0
 383 941 170 731 170 465 c 0
 170 280 280 127 405 55 c 4
 417 48 423 39 423 27 c 132
 423 7 410 -10 391 -10 c 132
 383 -10 376 -9 370 -6 c 4
 226 77 100 252 100 464 c 0
 100 775 353 1011 639 1011 c 0
 726 1011 817 983 907 934 c 1
 1014 990 1137 1013 1261 1013 c 0
 1374 1013 1487 995 1591 946 c 1
 1602 987 1607 1024 1607 1060 c 0
 1607 1196 1511 1310 1385 1334 c 0
 1366 1337 1356 1349 1356 1370 c 0
 1356 1389 1376 1408 1398 1403 c 0
 1556 1373 1678 1232 1678 1063 c 0
 1678 1016 1670 966 1654 912 c 1
 1828 808 1982 620 1982 363 c 0
 1982 173 1869 -9 1675 -9 c 0
 1490 -9 1372 163 1372 347 c 0
 1372 532 1514 738 1569 879 c 1
 1472 926 1366 943 1261 943 c 0
 1163 943 1065 929 977 890 c 1
 1114 787 1220 615 1220 387 c 0
 1220 189 1092 -9 886 -9 c 0
 678 -9 556 184 556 386 c 0
906 853 m 1
 755 764 627 610 627 384 c 0
 627 222 723 58 887 58 c 0
 1050 58 1150 231 1150 392 c 0
 1150 602 1052 759 906 853 c 1
1630 845 m 1
 1570 697 1443 511 1443 349 c 0
 1443 204 1528 61 1676 61 c 0
 1827 61 1914 216 1914 362 c 0
 1914 582 1785 747 1630 845 c 1
EndSplineSet
LCarets2: 2 0 0
EndChar

StartChar: lhcil
Encoding: 3454 3454 123
Width: 1903
GlyphClass: 3
Flags: HW
LayerCount: 2
Fore
SplineSet
1454 -11 m 4
 1250 -11 1127 169 1127 368 c 4
 1127 602 1269 750 1344 925 c 5
 1302 937 1261 943 1223 943 c 4
 1010 943 893 790 893 571 c 4
 893 523 896 484 896 436 c 4
 896 182 776 -13 524 -13 c 4
 268 -13 100 215 100 458 c 4
 100 722 266 927 458 1015 c 4
 462 1017 469 1018 473 1018 c 4
 492 1018 508 1002 508 983 c 4
 508 970 499 956 487 951 c 4
 317 873 170 702 170 464 c 4
 170 253 304 57 523 57 c 4
 727 57 826 214 826 420 c 4
 826 474 823 520 823 575 c 4
 823 831 968 1013 1222 1013 c 4
 1277 1013 1322 1003 1369 990 c 5
 1385 1039 1392 1094 1392 1141 c 4
 1392 1235 1357 1306 1296 1379 c 4
 1291 1384 1287 1395 1287 1402 c 4
 1287 1421 1303 1437 1322 1437 c 4
 1331 1437 1343 1431 1349 1424 c 4
 1420 1338 1462 1251 1462 1139 c 4
 1462 1085 1453 1023 1435 967 c 5
 1639 880 1803 677 1803 406 c 4
 1803 196 1673 -11 1454 -11 c 4
1197 368 m 4
 1197 209 1289 59 1453 59 c 4
 1632 59 1732 233 1732 408 c 4
 1732 647 1590 823 1411 901 c 5
 1340 731 1197 582 1197 368 c 4
EndSplineSet
LCarets2: 2 0 0
EndChar

StartChar: r3cil
Encoding: 3452 3452 124
Width: 1423
GlyphClass: 3
Flags: HW
LayerCount: 2
Fore
SplineSet
840 1387 m 0
 836 1393 834 1399 834 1405 c 0
 834 1423 851 1440 872 1440 c 128
 883 1440 893 1435 900 1424 c 0
 945 1352 967 1276 967 1197 c 0
 967 1126 949 1053 913 977 c 1
 1123 908 1323 680 1323 412 c 0
 1323 186 1174 -14 935 -14 c 0
 714 -14 557 160 557 380 c 0
 557 606 720 789 808 931 c 1
 774 937 740 940 705 940 c 0
 418 940 170 733 170 438 c 0
 170 253 289 109 425 50 c 0
 439 44 446 31 446 17 c 0
 446 0 435 -18 415 -18 c 128
 408 -18 402 -17 397 -14 c 0
 239 55 100 221 100 436 c 0
 100 761 379 1011 702 1011 c 0
 750 1011 797 1005 844 995 c 1
 879 1065 897 1132 897 1196 c 0
 897 1263 878 1326 840 1387 c 0
880 914 m 1
 800 777 627 588 627 384 c 0
 627 200 755 54 937 54 c 0
 1124 54 1254 222 1254 410 c 0
 1254 656 1084 850 880 914 c 1
EndSplineSet
LCarets2: 2 0 0
EndChar

StartChar: k1u1
Encoding: 65544 -1 125
Width: 1907
GlyphClass: 3
LigCaretCntFixed: 1
Flags: HW
LayerCount: 2
Fore
SplineSet
1578 236 m 0
 1546 236 1518 243 1518 274 c 128
 1518 299 1538 310 1566 310 c 0
 1651 310 1737 338 1737 412 c 0
 1737 530 1591 550 1460 550 c 1
 1394 548 l 1
 1396 529 1396 511 1396 493 c 0
 1396 242 1243 -13 982 -13 c 0
 830 -13 715 98 653 195 c 1
 616 89 520 2 381 2 c 0
 226 2 100 117 100 272 c 0
 100 511 338 601 582 609 c 1
 620 814 758 1012 983 1012 c 0
 1205 1012 1345 818 1384 618 c 1
 1469 620 l 1
 1639 620 1806 564 1806 416 c 0
 1806 347 1773 306 1724 275 c 1
 1770 249 1807 206 1807 142 c 0
 1807 35 1694 -15 1587 -15 c 0
 1553 -15 1463 -11 1463 28 c 128
 1463 49 1475 69 1493 69 c 128
 1500 69 1505 68 1509 67 c 0
 1538 57 1566 54 1591 54 c 0
 1670 54 1738 99 1738 145 c 0
 1738 215 1648 236 1578 236 c 0
1313 616 m 1
 1277 778 1167 941 983 941 c 0
 799 941 689 775 654 611 c 1
 1313 616 l 1
1324 546 m 1
 643 540 l 1
 642 523 641 507 641 491 c 0
 641 279 765 57 982 57 c 0
 1201 57 1326 282 1326 493 c 0
 1326 510 1326 528 1324 546 c 1
599 310 m 1
 581 367 571 427 571 490 c 0
 571 506 572 522 573 539 c 1
 370 530 168 457 168 278 c 0
 168 157 263 71 381 71 c 0
 513 71 599 177 599 310 c 1
EndSplineSet
LCarets2: 1 0
EndChar

StartChar: k1u2
Encoding: 65545 -1 126
Width: 1933
GlyphClass: 3
LigCaretCntFixed: 1
Flags: HW
LayerCount: 2
Fore
SplineSet
381 -17 m 0
 227 -17 100 102 100 258 c 0
 100 501 348 588 580 597 c 1
 610 803 746 1013 985 1013 c 0
 1222 1013 1357 807 1389 606 c 1
 1413 607 1437 608 1461 608 c 0
 1624 608 1809 570 1809 399 c 0
 1809 328 1765 281 1716 254 c 1
 1780 214 1834 133 1834 42 c 0
 1834 -132 1696 -202 1522 -204 c 2
 497 -213 l 2
 356 -214 175 -232 175 -375 c 0
 175 -495 325 -521 447 -521 c 1
 1796 -500 l 1
 1797 -500 l 2
 1816 -500 1832 -516 1832 -535 c 0
 1832 -554 1817 -570 1798 -570 c 2
 442 -591 l 1
 280 -591 105 -539 105 -375 c 0
 105 -184 318 -145 496 -143 c 2
 1522 -134 l 2
 1655 -133 1764 -90 1764 42 c 0
 1764 145 1682 222 1580 222 c 0
 1548 222 1521 227 1521 258 c 0
 1521 287 1546 294 1576 294 c 0
 1654 294 1739 321 1739 399 c 0
 1739 520 1584 537 1463 537 c 0
 1441 537 1419 537 1397 536 c 1
 1398 523 1398 509 1398 495 c 0
 1398 242 1251 -14 983 -14 c 0
 830 -14 717 81 655 180 c 1
 619 72 512 -17 381 -17 c 0
985 943 m 0
 788 943 679 767 651 598 c 1
 1319 603 l 1
 1290 770 1180 943 985 943 c 0
1328 495 m 0
 1328 508 1328 522 1327 534 c 1
 644 528 l 1
 643 516 643 504 643 492 c 0
 643 277 760 56 982 56 c 0
 1209 56 1328 278 1328 495 c 0
573 492 m 0
 573 504 573 515 574 526 c 1
 385 517 170 452 170 258 c 0
 170 142 265 53 380 53 c 0
 503 53 600 153 600 272 c 0
 600 281 601 290 600 301 c 1
 581 363 573 428 573 492 c 0
EndSplineSet
LCarets2: 1 0
EndChar

StartChar: k1r1
Encoding: 65546 -1 127
Width: 1913
GlyphClass: 3
LigCaretCntFixed: 1
Flags: HW
LayerCount: 2
Fore
SplineSet
383 -13 m 0
 228 -13 100 106 100 263 c 0
 100 508 352 596 588 603 c 1
 620 804 758 1011 995 1011 c 0
 1235 1011 1373 807 1406 603 c 1
 1653 587 1814 403 1814 155 c 0
 1814 -260 1415 -569 999 -569 c 2
 998 -569 l 2
 837 -569 658 -531 658 -364 c 0
 658 -208 821 -149 967 -149 c 0
 1119 -149 1292 -203 1292 -367 c 0
 1292 -398 1285 -422 1273 -445 c 1
 1495 -359 1743 -144 1743 154 c 0
 1743 360 1615 515 1413 532 c 1
 1414 519 1415 506 1415 493 c 0
 1415 239 1263 -14 994 -14 c 0
 838 -14 723 83 660 184 c 1
 623 76 515 -13 383 -13 c 0
996 941 m 0
 800 940 690 771 659 604 c 1
 1335 605 l 1
 1304 771 1192 941 996 941 c 0
650 534 m 1
 649 520 649 506 649 491 c 0
 649 275 771 56 994 56 c 0
 1221 56 1345 276 1345 494 c 0
 1345 508 1344 522 1343 535 c 1
 650 534 l 1
579 490 m 0
 579 504 579 518 580 532 c 1
 389 524 170 460 170 264 c 0
 170 147 266 57 382 57 c 0
 507 57 607 160 607 281 c 0
 607 287 606 291 606 297 c 2
 606 302 l 1
 587 363 579 427 579 490 c 0
968 -219 m 0
 858 -219 728 -253 728 -365 c 0
 728 -483 876 -499 995 -499 c 1
 1099 -485 1222 -484 1222 -368 c 0
 1222 -250 1084 -219 968 -219 c 0
EndSplineSet
LCarets2: 1 0
EndChar

StartChar: k1k1
Encoding: 65548 -1 129
Width: 2517
GlyphClass: 3
LigCaretCntFixed: 1
Flags: HW
LayerCount: 2
Fore
SplineSet
384 -11 m 0
 232 -11 100 117 100 266 c 0
 100 515 337 604 588 612 c 1
 626 819 766 1014 992 1014 c 0
 1211 1014 1349 830 1393 639 c 1
 1477 824 1651 1013 1906 1013 c 0
 2196 1013 2417 762 2417 475 c 0
 2417 248 2267 72 2096 4 c 0
 2092 2 2086 1 2079 1 c 128
 2060 1 2048 19 2048 40 c 128
 2048 53 2055 63 2070 69 c 0
 2218 127 2347 279 2347 475 c 0
 2347 723 2156 942 1908 942 c 0
 1680 942 1534 781 1457 609 c 1
 1690 589 1910 484 1910 254 c 0
 1910 114 1785 -7 1647 -7 c 0
 1492 -7 1389 116 1353 240 c 1
 1291 115 1168 -7 994 -7 c 0
 841 -7 724 90 661 189 c 0
 660 191 659 192 659 193 c 1
 620 81 511 -11 384 -11 c 0
1327 614 m 1
 1292 781 1179 943 993 943 c 0
 808 943 694 779 660 613 c 1
 1327 614 l 1
1338 544 m 1
 649 543 l 1
 648 530 648 517 648 504 c 0
 648 276 766 63 992 63 c 0
 1218 63 1339 280 1339 505 c 0
 1339 518 1339 531 1338 544 c 1
171 269 m 0
 171 153 271 58 392 58 c 0
 504 58 606 173 606 285 c 0
 606 292 605 300 605 309 c 1
 586 366 577 427 577 491 c 0
 577 507 578 524 579 541 c 1
 361 533 171 459 171 269 c 0
1431 540 m 1
 1413 482 1405 426 1405 374 c 0
 1405 223 1485 64 1644 64 c 0
 1748 64 1841 149 1841 256 c 0
 1841 453 1635 528 1431 540 c 1
EndSplineSet
LCarets2: 2 0 0
EndChar

StartChar: k1k1u1
Encoding: 65549 -1 130
Width: 2561
GlyphClass: 3
LigCaretCntFixed: 1
Flags: HW
LayerCount: 2
Fore
SplineSet
384 -13 m 0
 232 -13 100 118 100 268 c 0
 100 517 338 605 588 613 c 1
 628 826 795 1012 994 1012 c 0
 1189 1012 1356 830 1398 623 c 1
 1495 829 1696 1018 1978 1018 c 0
 2201 1018 2425 901 2425 673 c 0
 2425 577 2366 490 2289 444 c 1
 2390 407 2461 338 2461 220 c 0
 2461 74 2334 -25 2195 -25 c 0
 2150 -25 2107 -13 2064 11 c 0
 2052 18 2046 30 2046 42 c 0
 2046 60 2058 77 2078 77 c 128
 2086 77 2098 72 2115 62 c 128
 2135 51 2161 46 2188 46 c 0
 2292 46 2393 112 2393 218 c 0
 2393 353 2271 390 2132 403 c 2
 2111 405 l 2
 2090 407 2079 419 2079 440 c 0
 2079 457 2093 473 2109 474 c 1
 2137 478 l 2
 2260 496 2354 561 2354 675 c 0
 2354 854 2170 947 1987 947 c 0
 1727 947 1558 787 1469 610 c 1
 1696 590 1910 483 1910 257 c 0
 1910 113 1784 -11 1646 -11 c 0
 1495 -11 1387 109 1350 235 c 1
 1288 114 1166 -11 996 -11 c 0
 842 -11 724 91 661 191 c 0
 660 192 660 193 659 194 c 1
 620 83 511 -13 384 -13 c 0
1328 615 m 1
 1293 782 1180 943 994 943 c 0
 808 943 694 782 660 614 c 1
 1328 615 l 1
649 544 m 1
 648 527 647 510 647 493 c 0
 647 278 772 59 992 59 c 0
 1215 59 1340 283 1340 497 c 0
 1340 513 1339 529 1338 545 c 1
 649 544 l 1
171 271 m 0
 171 154 270 55 392 55 c 0
 505 55 606 176 606 288 c 0
 606 294 605 299 605 305 c 2
 605 310 l 1
 586 368 577 428 577 492 c 0
 577 508 578 525 579 542 c 1
 362 534 171 459 171 271 c 0
1403 359 m 0
 1403 213 1491 59 1644 59 c 0
 1748 59 1841 151 1841 259 c 0
 1841 451 1638 527 1439 541 c 1
 1415 477 1403 416 1403 359 c 0
EndSplineSet
LCarets2: 1 0
EndChar

StartChar: k1k1u2
Encoding: 65550 -1 131
Width: 2610
GlyphClass: 3
LigCaretCntFixed: 1
Flags: HW
LayerCount: 2
Fore
SplineSet
2409 701 m 0
 2409 592 2375 496 2290 447 c 1
 2407 412 2512 310 2512 171 c 0
 2512 -118 2235 -199 1939 -202 c 1
 1459 -205 980 -209 499 -211 c 0
 324 -211 170 -239 170 -359 c 0
 170 -465 304 -477 438 -477 c 2
 2462 -481 l 2
 2481 -481 2497 -497 2497 -516 c 128
 2497 -531 2482 -551 2469 -551 c 2
 2461 -551 l 1
 437 -547 l 2
 258 -547 100 -511 100 -356 c 0
 100 -200 265 -144 453 -140 c 1
 948 -141 1444 -134 1939 -132 c 0
 2215 -130 2440 -64 2440 169 c 0
 2440 330 2305 386 2148 400 c 2
 2127 402 l 2
 2110 403 2095 418 2095 436 c 0
 2095 469 2123 472 2154 475 c 0
 2270 486 2339 583 2339 706 c 0
 2339 893 2114 940 1992 940 c 0
 1764 940 1542 823 1465 608 c 1
 1700 590 1926 482 1926 259 c 0
 1926 97 1801 -12 1662 -12 c 0
 1509 -12 1402 105 1366 237 c 1
 1304 111 1180 -12 1005 -12 c 0
 855 -12 733 88 671 188 c 0
 670 189 670 190 669 191 c 1
 632 84 535 -11 394 -11 c 0
 241 -11 110 115 110 268 c 0
 110 511 350 602 598 610 c 1
 638 826 799 1011 1006 1011 c 0
 1201 1011 1358 839 1404 646 c 1
 1493 881 1733 1011 1990 1011 c 0
 2161 1011 2409 932 2409 701 c 0
1340 612 m 1
 1305 779 1191 942 1005 942 c 0
 818 942 704 779 670 611 c 1
 1340 612 l 1
1351 542 m 1
 659 541 l 1
 658 524 657 507 657 490 c 0
 657 275 782 58 1003 58 c 0
 1226 58 1353 279 1353 493 c 0
 1353 509 1352 526 1351 542 c 1
615 302 m 2
 615 307 l 1
 596 365 587 425 587 489 c 0
 587 505 588 522 589 539 c 1
 389 531 177 458 177 277 c 0
 177 152 270 59 393 59 c 0
 516 59 616 167 616 288 c 0
 616 293 615 297 615 302 c 2
1653 59 m 0
 1766 59 1855 142 1855 251 c 0
 1855 449 1649 527 1443 539 c 1
 1427 478 1419 421 1419 369 c 0
 1419 216 1500 59 1653 59 c 0
EndSplineSet
LCarets2: 1 3
EndChar

StartChar: k1k1r1
Encoding: 65551 -1 132
Width: 2482
GlyphClass: 3
LigCaretCntFixed: 1
Flags: HW
LayerCount: 2
Fore
SplineSet
381 -11 m 0
 236 -11 100 110 100 264 c 0
 100 504 342 595 577 602 c 1
 609 801 745 1012 979 1012 c 0
 1202 1012 1336 818 1375 634 c 1
 1453 815 1621 1011 1863 1011 c 0
 2187 1011 2382 709 2382 387 c 0
 2382 -135 2020 -574 1492 -574 c 0
 1335 -574 1161 -532 1161 -368 c 0
 1161 -214 1324 -153 1469 -153 c 0
 1625 -153 1798 -210 1798 -373 c 0
 1798 -398 1793 -424 1779 -450 c 1
 2074 -329 2311 -16 2311 388 c 0
 2311 670 2146 941 1865 941 c 0
 1652 941 1504 762 1436 600 c 1
 1655 583 1882 481 1882 250 c 0
 1882 108 1758 -7 1622 -7 c 0
 1472 -7 1367 112 1331 233 c 1
 1271 113 1151 -12 979 -12 c 0
 824 -12 712 89 649 189 c 1
 612 84 506 -11 381 -11 c 0
978 943 m 0
 787 943 677 764 648 603 c 1
 1309 604 l 1
 1280 766 1170 943 978 943 c 0
1318 534 m 1
 640 533 l 1
 639 520 639 507 639 494 c 0
 639 282 757 59 978 59 c 0
 1200 59 1319 286 1319 497 c 0
 1319 509 1319 522 1318 534 c 1
169 265 m 0
 169 151 272 59 380 59 c 0
 497 59 596 168 596 284 c 0
 596 289 595 294 595 299 c 1
 598 299 l 1
 577 361 569 426 569 491 c 0
 569 505 569 518 570 532 c 1
 380 524 169 458 169 265 c 0
1622 62 m 0
 1727 62 1813 150 1813 255 c 0
 1813 452 1598 519 1411 531 c 1
 1394 475 1383 417 1383 360 c 0
 1383 206 1472 62 1622 62 c 0
1231 -367 m 0
 1231 -482 1368 -504 1490 -504 c 0
 1604 -504 1728 -482 1728 -371 c 0
 1728 -254 1589 -223 1474 -223 c 0
 1363 -223 1231 -255 1231 -367 c 0
EndSplineSet
LCarets2: 1 0
EndChar

StartChar: k1k1r3
Encoding: 65552 -1 133
Width: 2898
GlyphClass: 3
LigCaretCntFixed: 1
Flags: HW
LayerCount: 2
Fore
SplineSet
781 -11 m 0
 621 -11 491 110 491 265 c 0
 491 505 727 596 974 603 c 1
 1012 809 1151 1015 1376 1015 c 0
 1590 1015 1725 824 1772 643 c 1
 1849 824 2015 1011 2256 1011 c 0
 2594 1011 2798 676 2798 367 c 0
 2798 -177 2356 -380 1805 -392 c 2
 1203 -405 l 1
 613 -405 100 -176 100 393 c 0
 100 667 281 907 472 1009 c 0
 477 1012 483 1013 491 1013 c 128
 509 1013 524 994 524 974 c 128
 524 962 518 953 505 947 c 0
 332 855 170 639 170 389 c 0
 170 -135 659 -347 1199 -335 c 2
 1804 -322 l 2
 2318 -310 2728 -139 2728 373 c 0
 2728 654 2546 941 2254 941 c 0
 2053 941 1896 768 1831 601 c 1
 2067 583 2288 478 2288 248 c 0
 2288 108 2165 -11 2028 -11 c 0
 1873 -11 1771 112 1736 238 c 1
 1673 111 1552 -12 1376 -12 c 0
 1224 -12 1110 90 1045 187 c 1
 1007 83 898 -11 781 -11 c 0
1708 605 m 1
 1673 770 1561 945 1377 945 c 0
 1193 945 1080 770 1046 605 c 1
 1708 605 l 1
1719 535 m 1
 1035 535 l 1
 1034 518 1033 501 1033 485 c 0
 1033 273 1158 57 1376 57 c 0
 1596 57 1721 276 1721 487 c 0
 1721 503 1720 519 1719 535 c 1
991 284 m 2
 991 303 l 1
 972 360 963 421 963 484 c 0
 963 500 964 516 965 533 c 1
 766 525 558 453 558 273 c 0
 558 151 653 60 771 60 c 0
 892 60 991 164 991 284 c 2
2026 59 m 0
 2141 59 2218 140 2218 257 c 0
 2218 443 2013 520 1808 532 c 1
 1794 478 1787 425 1787 376 c 0
 1787 222 1867 59 2026 59 c 0
EndSplineSet
LCarets2: 1 0
EndChar

StartChar: k1th1
Encoding: 65558 -1 139
Width: 3330
GlyphClass: 3
LigCaretCntFixed: 1
Flags: HW
LayerCount: 2
Fore
SplineSet
391 -14 m 4
 230 -14 100 104 100 260 c 4
 100 500 339 591 584 599 c 5
 624 813 783 1012 988 1012 c 4
 1189 1012 1352 811 1391 598 c 5
 1491 588 1579 558 1654 508 c 5
 1682 778 1916 1008 2189 1008 c 4
 2266 1008 2346 992 2426 955 c 5
 2510 994 2593 1014 2676 1014 c 4
 2987 1014 3230 753 3230 466 c 4
 3230 232 3080 56 2900 -8 c 4
 2895 -10 2890 -10 2886 -10 c 4
 2866 -10 2852 7 2852 30 c 132
 2852 43 2860 52 2876 58 c 4
 3030 114 3160 264 3160 465 c 4
 3160 726 2939 941 2678 941 c 4
 2618 941 2560 931 2504 911 c 5
 2654 811 2770 619 2770 391 c 4
 2770 180 2642 -14 2426 -14 c 4
 2211 -14 2082 183 2082 392 c 4
 2082 619 2204 812 2348 910 c 5
 2292 929 2238 939 2185 939 c 4
 1922 939 1722 711 1722 439 c 4
 1722 261 1853 111 1975 52 c 4
 1989 46 1995 33 1995 20 c 4
 1995 2 1984 -15 1964 -15 c 132
 1956 -15 1950 -14 1945 -11 c 4
 1793 62 1664 214 1652 423 c 5
 1582 480 1498 515 1400 527 c 5
 1400 524 l 133
 1400 524 1403 489 1403 463 c 4
 1403 217 1236 -8 987 -8 c 4
 839 -8 718 81 657 179 c 4
 656 181 655 182 654 183 c 5
 616 78 509 -14 391 -14 c 4
1319 603 m 5
 1284 767 1160 942 989 942 c 4
 813 942 691 766 655 600 c 5
 1319 603 l 5
2427 876 m 5
 2281 796 2153 611 2153 391 c 4
 2153 220 2251 56 2426 56 c 4
 2600 56 2700 221 2700 392 c 4
 2700 605 2584 793 2427 876 c 5
1330 532 m 5
 645 530 l 5
 644 513 643 496 643 479 c 4
 643 265 767 61 986 61 c 4
 1207 61 1332 271 1332 482 c 4
 1332 498 1331 515 1330 532 c 5
389 56 m 4
 516 56 600 172 600 298 c 5
 582 354 573 412 573 474 c 4
 573 492 574 510 575 528 c 5
 360 518 169 447 169 259 c 4
 169 144 269 56 389 56 c 4
EndSplineSet
LCarets2: 1 3
EndChar

StartChar: k1th1u1
Encoding: 65559 -1 140
Width: 3409
GlyphClass: 3
LigCaretCntFixed: 1
Flags: HW
LayerCount: 2
Back
SplineSet
2302.0078125 1372 m 5
 2378.92773438 1411.15917969 2464.16015625 1434.67089844 2554.62792969 1434.67089844 c 0
 2593.53515625 1434.67089844 2633.40917969 1430.32226562 2674.0078125 1421 c 4
 2927.796875 1362.73730469 3122.1015625 1112.36523438 3122.1015625 810.481445312 c 0
 3122.1015625 806.662109375 3122.0703125 802.834960938 3122.0078125 799 c 4
 3117.0078125 485 2922.0078125 279 2658.0078125 221 c 4
 2571.0078125 202 2484.0078125 199 2399.0078125 198 c 6
 1976.0078125 191 l 6
 1843.0078125 189 1694.0078125 199 1622.0078125 127 c 4
 1604.05761719 109.049804688 1591.11914062 83.2236328125 1591.11914062 57.017578125 c 0
 1591.11914062 39.4267578125 1596.95019531 21.6650390625 1611.0078125 6 c 4
 1647.78613281 -34.6796875 1715.61816406 -43.6845703125 1790.62304688 -43.6845703125 c 0
 1850.21484375 -43.6845703125 1914.3359375 -38 1971.0078125 -38 c 6
 3127.0078125 -34 l 5
 3128.0078125 -34 l 6
 3147.0078125 -34 3163.0078125 -50 3163.0078125 -69 c 4
 3163.0078125 -88 3147.0078125 -104 3128.0078125 -104 c 6
 3127.0078125 -104 l 5
 1971.0078125 -108 l 6
 1914.45410156 -108 1855.63671875 -111.594726562 1799.60742188 -111.594726562 c 0
 1702.07617188 -111.594726562 1612.99414062 -100.703125 1559.0078125 -41 c 4
 1536.875 -16.724609375 1520.34863281 19.2744140625 1520.34863281 59.35546875 c 0
 1520.34863281 75.412109375 1523.00097656 92.1240234375 1529.0078125 109 c 4
 1555.0078125 184 1631.0078125 228 1705.0078125 245 c 4
 1767.58691406 259.284179688 1830.16601562 261.076171875 1890.85644531 261.076171875 c 0
 1911.18359375 261.076171875 1931.29882812 260.875 1951.13183594 260.875 c 0
 1959.13769531 260.875 1967.09863281 260.908203125 1975.0078125 261 c 6
 2398.0078125 268 l 6
 2482.0078125 269 2565.0078125 272 2643.0078125 289 c 4
 2878.0078125 341 3048.0078125 521 3052.0078125 800 c 4
 3052.05371094 803.12109375 3052.07617188 806.235351562 3052.07617188 809.344726562 c 0
 3052.07617188 1077.23144531 2882.40332031 1301.59667969 2658.0078125 1353 c 4
 2625.75195312 1360.36230469 2592.63574219 1363.91503906 2559.39160156 1363.91503906 c 0
 2497.81738281 1363.91503906 2435.80371094 1351.72851562 2378.0078125 1329 c 5
 2523.0078125 1232 2627.0078125 1058 2646.0078125 874 c 4
 2648.26171875 852.486328125 2649.46582031 830.6796875 2649.46582031 808.802734375 c 0
 2649.46582031 723.90234375 2631.32910156 637.9453125 2586.0078125 564 c 4
 2535.0078125 480 2440.0078125 400 2313.0078125 398 c 4
 2311.47070312 397.9765625 2309.9375 397.965820312 2308.40820312 397.965820312 c 0
 2177.65625 397.965820312 2077.40722656 482.028320312 2026.0078125 570 c 4
 1983.14355469 643.165039062 1965.94921875 726.161132812 1965.94921875 808.494140625 c 0
 1965.94921875 837.56640625 1968.09375 866.555664062 1972.0078125 895 c 4
 1996.0078125 1065 2088.0078125 1228 2227.0078125 1327 c 5
 2171.35546875 1347.04882812 2115.73242188 1356.37402344 2061.83789062 1356.37402344 c 0
 1808.1875 1356.37402344 1592.82324219 1149.82324219 1592.82324219 882.583984375 c 0
 1592.82324219 878.073242188 1592.88378906 873.544921875 1593.0078125 869 c 4
 1594.0078125 866 1596.0078125 860 1596.0078125 856 c 4
 1596.0078125 853 1596.0078125 849 1595.0078125 846 c 4
 1608.0078125 677 1712.0078125 534 1853.0078125 463 c 4
 1864.0078125 458 1873.0078125 444 1873.0078125 432 c 4
 1873.0078125 413 1857.0078125 397 1838.0078125 397 c 4
 1833.0078125 397 1825.0078125 399 1821.0078125 401 c 4
 1658.0078125 483 1541.0078125 645 1525.0078125 841 c 5
 1454.0078125 899 1375.0078125 933 1270.0078125 946 c 5
 1270.52734375 934.831054688 1270.79199219 923.639648438 1270.79199219 912.443359375 c 0
 1270.79199219 794.330078125 1241.34082031 675.735351562 1171.0078125 578 c 4
 1106.1796875 488.014648438 995.475585938 402.709960938 851.580078125 402.709960938 c 0
 846.759765625 402.709960938 841.90234375 402.805664062 837.0078125 403 c 4
 689.0078125 408 578.0078125 501 516.0078125 600 c 5
 500.0078125 552 472.0078125 509 434.0078125 475 c 4
 377.565429688 424.159179688 308.127929688 400.977539062 239.853515625 400.977539062 c 0
 149.666015625 400.977539062 61.5068359375 441.426757812 8.0078125 512 c 4
 -29.658203125 561.411132812 -46 616.563476562 -46 670.813476562 c 0
 -46 750.510742188 -10.7314453125 828.260742188 44.0078125 883 c 4
 135.0078125 973 279.0078125 1012 441.0078125 1018 c 5
 465.0078125 1174 550.0078125 1314 674.0078125 1384 c 4
 729.594726562 1414.88183594 791.275390625 1430.6640625 853.185546875 1430.6640625 c 0
 911.560546875 1430.6640625 970.138671875 1416.6328125 1024.0078125 1388 c 4
 1152.0078125 1319 1239.0078125 1176 1263.0078125 1017 c 5
 1369.0078125 1006 1450.0078125 977 1525.0078125 927 c 5
 1534.0078125 1037 1576.0078125 1144 1646.0078125 1229 c 4
 1746.28710938 1350.9609375 1899.82128906 1426.09472656 2064.3046875 1426.09472656 c 0
 2142.57910156 1426.09472656 2223.33300781 1409.08007812 2302.0078125 1372 c 5
1105.0078125 1228 m 4
 1051.41796875 1297.46777344 964.34375 1362.01171875 850.625976562 1362.01171875 c 0
 849.754882812 1362.01171875 848.881835938 1362.0078125 848.0078125 1362 c 4
 736.0078125 1361 649.0078125 1295 597.0078125 1225 c 4
 553.0078125 1166 526.0078125 1094 513.0078125 1019 c 5
 550.0078125 1019 l 5
 1114.0078125 1022 l 6
 1130.67480469 1022 1147.78515625 1022.44433594 1165.04492188 1022.44433594 c 0
 1173.67480469 1022.44433594 1182.34082031 1022.33300781 1191.0078125 1022 c 5
 1178.0078125 1097 1150.0078125 1169 1105.0078125 1228 c 4
2303.0078125 1293 m 5
 2163.0078125 1210 2064.0078125 1053 2041.0078125 886 c 4
 2037.41601562 861.112304688 2035.53515625 835.830078125 2035.53515625 810.625976562 c 0
 2035.53515625 737.594726562 2051.32324219 665.217773438 2087.0078125 605 c 4
 2127.41796875 535.021484375 2203.77148438 467.95703125 2306.49316406 467.95703125 c 0
 2307.9921875 467.95703125 2309.49707031 467.971679688 2311.0078125 468 c 4
 2410.0078125 470 2485.0078125 533 2526.0078125 600 c 4
 2563.27246094 661.05078125 2579.1640625 734.674804688 2579.1640625 808.908203125 c 0
 2579.1640625 828.301757812 2578.07910156 847.736328125 2576.0078125 867 c 4
 2557.0078125 1047 2450.0078125 1212 2303.0078125 1293 c 5
1199.0078125 951 m 5
 1171.0078125 952 1144.0078125 952 1115.0078125 952 c 6
 551.0078125 949 l 5
 505.0078125 949 l 5
 504.1796875 935.280273438 503.7578125 921.6015625 503.7578125 907.995117188 c 0
 503.7578125 806.563476562 527.22265625 709.118164062 581.0078125 628 c 4
 633.0078125 550 722.0078125 477 839.0078125 473 c 4
 843.044921875 472.836914062 847.051757812 472.756835938 851.028320312 472.756835938 c 0
 969.21484375 472.756835938 1060.79785156 543.506835938 1114.0078125 618 c 4
 1173.80078125 700.99609375 1200.14355469 804.700195312 1200.14355469 912.052734375 c 0
 1200.14355469 924.9921875 1199.76074219 937.984375 1199.0078125 951 c 5
461.0078125 719 m 4
 441.764648438 780.913085938 433.021484375 844.926757812 433.021484375 909.283203125 c 0
 433.021484375 921.846679688 433.354492188 934.423828125 434.0078125 947 c 5
 294.0078125 941 170.0078125 910 93.0078125 834 c 4
 50.537109375 792.127929688 23.0947265625 733.795898438 23.0947265625 673.7734375 c 0
 23.0947265625 633.453125 35.478515625 592.370117188 64.0078125 555 c 4
 104.379882812 501.549804688 171.264648438 471.055664062 239.658203125 471.055664062 c 0
 291.544921875 471.055664062 344.30078125 488.607421875 387.0078125 527 c 4
 440.0078125 575 460.0078125 641 460.0078125 712 c 4
 460.0078125 714 461.0078125 717 461.0078125 719 c 4
EndSplineSet
Fore
SplineSet
2448 954 m 1
 2525 993 2611 1017 2701 1017 c 0
 3045 1017 3268 720 3268 381 c 1
 3261 -36 2967 -215 2545 -220 c 1
 2122 -227 l 2
 1979 -229 1737 -211 1737 -361 c 0
 1737 -448 1849 -462 1937 -462 c 2
 3273 -452 l 1
 3274 -452 l 2
 3293 -452 3309 -468 3309 -487 c 0
 3309 -506 3293 -522 3274 -522 c 2
 3273 -522 l 1
 1946 -530 l 2
 1813 -530 1666 -500 1666 -359 c 0
 1666 -157 1923 -157 2121 -157 c 1
 2544 -150 l 1
 2930 -145 3198 6 3198 391 c 0
 3198 683 3000 946 2705 946 c 0
 2643 946 2582 934 2524 911 c 1
 2683 805 2795 617 2795 391 c 0
 2795 181 2672 -20 2454 -20 c 0
 2238 -20 2112 180 2112 390 c 0
 2112 614 2216 797 2373 909 c 1
 2317 929 2262 938 2208 938 c 0
 1954 938 1739 732 1739 465 c 0
 1739 274 1850 120 1999 45 c 0
 2010 40 2019 26 2019 14 c 0
 2019 -5 2003 -21 1984 -21 c 0
 1979 -21 1971 -19 1967 -17 c 0
 1804 65 1687 227 1671 423 c 1
 1600 481 1521 515 1416 528 c 1
 1417 517 1417 505 1417 494 c 0
 1417 242 1265 -15 998 -15 c 0
 839 -15 726 79 662 182 c 1
 626 73 515 -17 386 -17 c 0
 239 -17 100 97 100 253 c 0
 100 498 348 591 587 600 c 1
 619 806 758 1013 999 1013 c 0
 1239 1013 1378 804 1409 599 c 1
 1515 588 1596 559 1671 509 c 1
 1694 788 1928 1008 2210 1008 c 0
 2288 1008 2369 991 2448 954 c 1
997 944 m 0
 798 944 688 772 659 602 c 1
 1337 602 l 1
 1308 770 1195 944 997 944 c 0
2449 875 m 1
 2294 783 2182 607 2182 393 c 0
 2182 217 2277 50 2457 50 c 1
 2631 54 2725 218 2725 391 c 0
 2725 608 2608 787 2449 875 c 1
1345 532 m 1
 651 532 l 1
 650 518 650 504 650 490 c 0
 650 272 771 55 997 55 c 0
 1224 55 1346 277 1346 494 c 0
 1346 507 1346 519 1345 532 c 1
607 301 m 0
 588 363 579 427 579 491 c 0
 579 504 579 516 580 529 c 1
 385 521 169 455 169 256 c 0
 169 139 275 53 386 53 c 0
 519 53 606 165 606 294 c 0
 606 296 607 299 607 301 c 0
EndSplineSet
LCarets2: 1 0
EndChar

StartChar: k1th1u2
Encoding: 65560 -1 141
Width: 3255
GlyphClass: 3
LigCaretCntFixed: 1
Flags: HW
LayerCount: 2
Fore
SplineSet
2140 1018 m 0
 2238 1018 2328 985 2395 945 c 1
 2477 988 2561 1014 2664 1014 c 0
 2857 1014 3046 895 3046 693 c 0
 3046 608 3001 526 2944 480 c 1
 3059 443 3152 329 3152 193 c 0
 3152 -89 2864 -193 2599 -200 c 1
 1989 -200 l 1
 1869 -204 1682 -196 1682 -319 c 0
 1682 -415 1814 -428 1910 -428 c 1
 3120 -413 l 1
 3121 -413 l 2
 3140 -413 3156 -429 3156 -448 c 0
 3156 -467 3140 -483 3121 -483 c 2
 3120 -483 l 1
 1911 -498 l 1
 1473 -498 1588 -142 1987 -130 c 1
 2597 -130 l 1
 2825 -124 3082 -45 3082 192 c 0
 3082 320 2978 425 2850 425 c 0
 2838 425 2827 423 2815 423 c 0
 2796 423 2780 439 2780 458 c 0
 2780 474 2793 489 2809 492 c 0
 2899 508 2976 589 2976 693 c 0
 2976 855 2820 944 2663 944 c 0
 2585 944 2524 928 2460 899 c 1
 2600 783 2685 600 2685 389 c 0
 2685 190 2574 -13 2369 -13 c 0
 2170 -13 2059 177 2059 372 c 0
 2059 602 2173 793 2327 903 c 1
 2275 929 2205 948 2139 948 c 0
 1900 948 1723 736 1723 495 c 0
 1723 314 1823 146 1971 56 c 0
 1980 50 1988 36 1988 25 c 0
 1988 6 1972 -10 1953 -10 c 0
 1947 -10 1939 -7 1934 -4 c 0
 1785 87 1682 247 1658 420 c 1
 1577 491 1482 528 1348 536 c 1
 1349 522 1349 508 1349 494 c 0
 1349 248 1220 -12 964 -12 c 0
 819 -12 713 89 654 183 c 1
 617 77 510 -10 381 -10 c 0
 227 -10 100 109 100 265 c 0
 100 509 348 594 580 603 c 1
 605 805 731 1018 965 1018 c 0
 1196 1018 1316 807 1342 606 c 1
 1469 600 1568 568 1653 511 c 1
 1661 782 1865 1018 2140 1018 c 0
965 948 m 0
 774 948 675 771 651 605 c 1
 1271 608 l 1
 1247 771 1153 948 965 948 c 0
2393 863 m 1
 2243 768 2129 590 2129 373 c 0
 2129 218 2212 57 2369 57 c 0
 2534 57 2615 227 2615 390 c 0
 2615 591 2527 764 2393 863 c 1
1278 535 m 1
 644 535 l 1
 643 524 643 512 643 500 c 0
 643 291 747 58 964 58 c 0
 1178 58 1279 286 1279 495 c 0
 1279 508 1266 531 1278 535 c 1
573 500 m 0
 573 511 574 522 574 533 c 1
 386 525 170 460 170 266 c 0
 170 150 265 60 380 60 c 0
 503 60 601 161 601 281 c 0
 601 289 600 297 600 305 c 0
 581 368 573 435 573 500 c 0
EndSplineSet
LCarets2: 1 0
Colour: ffffff
EndChar

StartChar: k1th1r1
Encoding: 65561 -1 142
Width: 3337
GlyphClass: 3
LigCaretCntFixed: 1
Flags: HW
LayerCount: 2
Fore
SplineSet
383 -21 m 0
 228 -21 100 98 100 255 c 0
 100 415 227 514 348 556 c 0
 426 583 507 592 586 595 c 1
 616 801 755 1012 995 1012 c 0
 1237 1012 1376 801 1406 594 c 1
 1511 583 1592 555 1667 505 c 1
 1679 784 1899 1010 2183 1010 c 0
 2269 1010 2355 988 2432 949 c 1
 2507 988 2590 1010 2674 1010 c 0
 3025 1010 3237 683 3237 332 c 0
 3237 -161 2860 -566 2352 -566 c 0
 2191 -566 2010 -529 2010 -361 c 0
 2010 -205 2174 -145 2320 -145 c 0
 2472 -145 2647 -199 2647 -364 c 0
 2647 -400 2637 -427 2622 -452 c 1
 2918 -346 3167 -40 3167 333 c 0
 3167 643 2983 940 2676 940 c 0
 2618 940 2559 928 2504 906 c 1
 2662 794 2770 604 2770 374 c 0
 2770 168 2649 -10 2440 -10 c 4
 2225 -10 2107 176 2107 384 c 0
 2107 606 2206 792 2360 905 c 1
 2303 928 2242 940 2182 940 c 0
 1933 940 1737 734 1737 482 c 0
 1737 276 1862 125 2009 56 c 0
 2020 51 2029 36 2029 24 c 0
 2029 5 2013 -11 1994 -11 c 0
 1990 -11 1983 -10 1979 -8 c 0
 1824 65 1696 218 1671 414 c 1
 1600 474 1519 510 1412 523 c 1
 1412 513 1413 503 1413 493 c 0
 1413 239 1263 -18 993 -18 c 0
 837 -18 724 78 661 179 c 1
 624 70 516 -21 383 -21 c 0
995 942 m 0
 796 942 686 766 657 597 c 1
 1334 599 l 1
 1305 769 1194 942 995 942 c 0
2432 869 m 1
 2281 776 2177 596 2177 385 c 0
 2177 215 2267 60 2441 60 c 4
 2609 60 2700 208 2700 374 c 0
 2700 592 2587 775 2432 869 c 1
1342 529 m 1
 650 526 l 1
 649 514 649 502 649 490 c 0
 649 274 770 52 993 52 c 0
 1222 52 1343 275 1343 494 c 0
 1343 506 1343 518 1342 529 c 1
579 490 m 0
 579 501 579 514 580 525 c 1
 440 519 317 487 240 411 c 0
 199 370 170 321 170 256 c 0
 170 139 266 49 382 49 c 0
 507 49 606 152 606 273 c 2
 606 290 l 2
 606 292 606 297 607 299 c 0
 588 361 579 426 579 490 c 0
2080 -361 m 0
 2080 -481 2229 -496 2349 -496 c 0
 2455 -496 2577 -469 2577 -364 c 0
 2577 -245 2437 -215 2321 -215 c 0
 2211 -215 2080 -249 2080 -361 c 0
EndSplineSet
LCarets2: 1 0
Colour: ffffff
EndChar

StartChar: k1r3
Encoding: 65562 -1 143
Width: 2188
GlyphClass: 3
Flags: HW
LayerCount: 2
Fore
SplineSet
725 -9 m 0
 574 -9 451 142 451 292 c 0
 451 529 681 600 925 610 c 1
 959 821 1094 1012 1320 1012 c 0
 1546 1012 1681 821 1716 611 c 1
 1936 588 2089 427 2089 174 c 0
 2089 -209 1782 -369 1395 -371 c 1
 1116 -371 l 2
 557 -371 100 -138 100 410 c 0
 100 699 268 904 464 1006 c 0
 470 1009 476 1010 481 1010 c 0
 500 1010 515 994 515 972 c 128
 515 960 509 951 496 944 c 0
 320 852 171 669 171 410 c 0
 171 -84 583 -301 1090 -301 c 2
 1395 -301 l 2
 1737 -301 2022 -164 2022 170 c 0
 2022 386 1890 517 1724 539 c 1
 1724 537 l 1
 1725 520 1726 503 1726 486 c 0
 1726 235 1577 -10 1319 -10 c 0
 1171 -10 1058 82 996 179 c 1
 959 76 863 -9 725 -9 c 0
1644 613 m 1
 1612 783 1504 942 1319 942 c 0
 1135 942 1028 781 996 613 c 1
 1644 613 l 1
987 542 m 1
 985 523 985 504 985 486 c 0
 985 270 1099 59 1318 59 c 0
 1538 59 1655 274 1655 490 c 0
 1655 508 1654 524 1653 542 c 1
 987 542 l 1
914 486 m 0
 914 503 917 523 917 539 c 1
 712 529 520 479 520 299 c 0
 520 180 608 62 729 62 c 0
 850 62 943 160 943 271 c 0
 943 281 942 291 941 301 c 1
 923 361 914 423 914 486 c 0
EndSplineSet
LCarets2: 1 0
EndChar

StartChar: k1sh
Encoding: 65568 -1 149
Width: 3058
GlyphClass: 3
LigCaretCntFixed: 1
Flags: HW
LayerCount: 2
Fore
SplineSet
1892 719 m 0
 1892 886 2028 1011 2197 1011 c 0
 2376 1011 2470 895 2470 710 c 2
 2469 483 l 1
 2688 559 2850 756 2889 978 c 0
 2892 997 2904 1007 2924 1007 c 0
 2942 1007 2958 991 2958 972 c 2
 2958 32 l 2
 2958 13 2942 -3 2923 -3 c 2
 1606 -2 l 2
 1586 -2 1571 15 1571 36 c 128
 1571 48 1578 57 1594 66 c 128
 1666 106 1705 185 1705 266 c 0
 1705 428 1570 515 1422 536 c 1
 1422 533 l 1
 1423 517 1424 502 1424 486 c 0
 1424 219 1263 -9 1001 -9 c 0
 851 -9 729 84 667 183 c 0
 666 184 666 185 665 186 c 1
 626 73 515 -12 387 -12 c 0
 235 -12 100 109 100 259 c 0
 100 511 340 600 593 608 c 1
 633 825 798 1003 1005 1003 c 0
 1207 1003 1374 824 1413 608 c 1
 1605 587 1777 471 1777 266 c 0
 1777 193 1751 123 1704 68 c 1
 2395 68 l 1
 2398 392 l 1
 2360 385 2323 381 2288 381 c 0
 2081 381 1892 505 1892 719 c 0
2194 940 m 0
 2068 940 1961 843 1961 720 c 0
 1961 551 2116 450 2286 450 c 0
 2322 450 2359 455 2399 463 c 1
 2400 704 l 2
 2400 862 2325 940 2194 940 c 0
1341 612 m 1
 1306 780 1191 934 1003 934 c 0
 815 934 700 778 665 610 c 1
 1341 612 l 1
2888 762 m 1
 2802 597 2652 466 2468 409 c 1
 2465 68 l 1
 2888 67 l 1
 2888 762 l 1
655 539 m 1
 654 522 653 504 653 487 c 0
 653 270 777 61 1000 61 c 0
 1226 61 1353 273 1353 489 c 0
 1353 507 1353 524 1351 542 c 1
 655 539 l 1
171 262 m 0
 171 145 273 56 396 56 c 0
 509 56 611 167 611 279 c 0
 611 351 582 412 582 487 c 0
 582 504 583 521 584 538 c 1
 364 528 171 454 171 262 c 0
EndSplineSet
LCarets2: 2 0 0
EndChar

StartChar: k3u1
Encoding: 65574 -1 155
Width: 1834
GlyphClass: 3
Flags: HW
LayerCount: 2
Fore
SplineSet
171 -333 m 0
 171 -438 283 -460 413 -460 c 0
 841 -460 1270 -461 1698 -461 c 0
 1717 -461 1733 -476 1733 -495 c 128
 1733 -514 1718 -531 1698 -531 c 2
 424 -530 l 2
 248 -530 102 -494 102 -336 c 0
 102 -183 254 -142 411 -142 c 1
 965 -149 l 1
 1362 -149 1666 28 1666 419 c 0
 1666 695 1522 946 1252 946 c 0
 1039 946 946 789 946 551 c 2
 946 453 l 2
 946 183 836 -13 570 -13 c 0
 291 -13 100 216 100 493 c 0
 100 746 265 939 455 1016 c 0
 460 1018 466 1019 473 1019 c 128
 491 1019 503 999 503 979 c 128
 503 966 496 957 481 951 c 0
 309 881 170 716 170 481 c 0
 170 266 341 55 569 55 c 0
 795 55 876 220 876 453 c 2
 876 551 l 2
 876 828 984 1016 1257 1016 c 0
 1559 1016 1734 729 1734 437 c 0
 1734 -13 1419 -219 957 -219 c 1
 406 -212 l 1
 281 -212 171 -243 171 -333 c 0
EndSplineSet
LCarets2: 1 0
EndChar

StartChar: k3u2
Encoding: 65575 -1 156
Width: 1781
GlyphClass: 3
Flags: HW
LayerCount: 2
Fore
SplineSet
1398 355 m 0
 1383 355 1360 351 1348 351 c 128
 1333 351 1318 369 1318 385 c 0
 1318 422 1346 420 1384 426 c 128
 1483 442 1572 557 1572 662 c 0
 1572 809 1424 943 1272 943 c 4
 1037 943 944 788 944 540 c 2
 944 443 l 2
 944 176 835 -11 573 -11 c 0
 300 -11 100 224 100 477 c 0
 100 737 251 923 441 1002 c 0
 445 1004 451 1005 458 1005 c 128
 476 1005 490 987 490 966 c 128
 490 953 483 944 468 938 c 0
 302 869 170 705 170 479 c 0
 170 264 343 57 571 57 c 0
 795 57 874 213 874 443 c 2
 874 540 l 2
 874 826 990 1013 1274 1013 c 4
 1466 1013 1639 850 1639 659 c 0
 1639 555 1577 455 1502 404 c 1
 1595 367 1681 272 1681 143 c 0
 1681 -142 1432 -199 1109 -199 c 2
 434 -198 l 2
 289 -198 168 -233 168 -345 c 0
 168 -466 292 -496 424 -496 c 2
 1642 -496 l 2
 1662 -496 1677 -512 1677 -531 c 128
 1677 -550 1661 -566 1642 -566 c 2
 424 -566 l 2
 237 -566 100 -496 100 -350 c 0
 100 -178 257 -128 434 -128 c 2
 1168 -129 l 2
 1415 -129 1612 -65 1612 147 c 0
 1612 261 1504 355 1398 355 c 0
EndSplineSet
LCarets2: 1 0
EndChar

StartChar: k3r1
Encoding: 65576 -1 157
Width: 1845
GlyphClass: 3
Flags: HW
LayerCount: 2
Fore
SplineSet
169 500 m 0
 169 262 352 64 581 64 c 0
 800 64 884 220 884 444 c 2
 884 541 l 2
 884 808 990 1011 1252 1011 c 0
 1565 1011 1745 707 1745 393 c 0
 1745 -129 1361 -550 837 -550 c 0
 679 -550 506 -507 506 -342 c 0
 506 -187 671 -127 816 -127 c 0
 972 -127 1146 -185 1146 -349 c 0
 1146 -374 1141 -400 1127 -426 c 1
 1418 -311 1675 -6 1675 392 c 0
 1675 666 1522 941 1255 941 c 0
 1031 941 954 769 954 541 c 2
 954 444 l 2
 954 181 841 -6 581 -6 c 0
 316 -6 100 223 100 494 c 0
 100 741 262 938 456 1009 c 0
 461 1011 465 1011 469 1011 c 0
 489 1011 503 992 503 974 c 0
 503 961 496 949 480 943 c 0
 313 882 169 721 169 500 c 0
821 -197 m 0
 710 -197 576 -229 576 -342 c 0
 576 -450 709 -482 820 -482 c 0
 936 -482 1078 -455 1078 -348 c 0
 1078 -232 936 -197 821 -197 c 0
EndSplineSet
LCarets2: 1 0
EndChar

StartChar: k3k3
Encoding: 65577 -1 158
Width: 1838
GlyphClass: 3
LigCaretCntFixed: 1
Flags: HW
LayerCount: 2
Fore
SplineSet
1384 -11 m 4
 1585 -11 1736 -168 1736 -365 c 4
 1736 -547 1590 -689 1427 -707 c 5
 1418 -707 l 6
 1406 -707 1393 -690 1393 -677 c 4
 1393 -652 1411 -648 1443 -644 c 4
 1568 -630 1675 -497 1675 -367 c 4
 1675 -215 1551 -70 1395 -70 c 4
 1231 -70 1166 -160 1166 -322 c 6
 1166 -389 l 6
 1166 -582 1073 -706 897 -706 c 4
 702 -706 544 -546 544 -355 c 4
 544 -182 673 -48 818 -15 c 4
 820 -14 824 -14 829 -14 c 4
 841 -14 855 -30 855 -43 c 4
 855 -60 847 -71 831 -74 c 4
 709 -101 605 -213 605 -357 c 4
 605 -519 735 -647 894 -647 c 4
 1044 -647 1106 -549 1106 -389 c 6
 1106 -322 l 6
 1106 -133 1194 -11 1384 -11 c 4
EndSplineSet
Refer: 59 3351 N 1 0 0 1 0 0 2
LCarets2: 2 0 0
EndChar

StartChar: k3k3u1
Encoding: 65578 -1 159
Width: 1838
GlyphClass: 3
LigCaretCntFixed: 1
Flags: HW
LayerCount: 2
Fore
SplineSet
803 -862 m 4
 699 -862 645 -891 645 -955 c 4
 645 -1015 700 -1045 810 -1045 c 6
 1673 -1045 l 6
 1690 -1045 1704 -1058 1704 -1075 c 4
 1704 -1091 1690 -1105 1674 -1105 c 6
 810 -1105 l 6
 681 -1105 585 -1056 585 -956 c 4
 585 -847 677 -802 804 -802 c 4
 807 -802 810 -802 813 -802 c 4
 934 -804 1055 -806 1177 -807 c 4
 1458 -807 1644 -687 1644 -407 c 4
 1644 -248 1537 -75 1380 -75 c 4
 1229 -75 1170 -174 1170 -339 c 6
 1170 -405 l 6
 1170 -593 1088 -727 912 -727 c 4
 729 -727 584 -569 584 -389 c 4
 584 -203 693 -71 829 -16 c 4
 833 -14 837 -13 843 -13 c 4
 859 -13 870 -29 870 -47 c 4
 870 -58 864 -66 851 -71 c 4
 736 -118 644 -230 644 -387 c 4
 644 -532 761 -667 907 -667 c 4
 1052 -667 1110 -562 1110 -405 c 6
 1110 -339 l 6
 1110 -150 1195 -15 1370 -15 c 4
 1577 -15 1704 -206 1704 -404 c 4
 1704 -710 1496 -867 1175 -867 c 4
 1053 -867 933 -864 812 -862 c 4
 809 -862 806 -862 803 -862 c 4
EndSplineSet
Refer: 59 3351 N 1 0 0 1 0 0 2
LCarets2: 1 0
EndChar

StartChar: k3k3u2
Encoding: 65579 -1 160
Width: 1838
GlyphClass: 3
LigCaretCntFixed: 1
Flags: HW
LayerCount: 2
Fore
SplineSet
1505 -437 m 1
 1569 -468 1626 -536 1626 -633 c 0
 1626 -818 1432 -867 1228 -867 c 0
 1075 -867 923 -866 770 -866 c 0
 657 -866 596 -897 596 -966 c 0
 596 -1028 652 -1058 763 -1058 c 2
 1594 -1059 l 2
 1611 -1059 1624 -1072 1624 -1089 c 0
 1624 -1105 1610 -1119 1594 -1119 c 2
 763 -1118 l 2
 633 -1118 536 -1069 536 -968 c 0
 536 -858 621 -806 770 -806 c 0
 923 -806 1075 -807 1228 -807 c 0
 1390 -807 1564 -787 1564 -629 c 0
 1564 -554 1503 -475 1417 -475 c 0
 1410 -475 1402 -476 1392 -476 c 0
 1381 -476 1368 -459 1368 -446 c 0
 1368 -425 1383 -417 1406 -415 c 0
 1477 -408 1540 -332 1540 -259 c 0
 1540 -162 1443 -80 1342 -80 c 0
 1186 -80 1125 -177 1125 -341 c 2
 1125 -407 l 2
 1125 -593 1044 -722 870 -722 c 0
 686 -722 539 -563 539 -384 c 0
 539 -204 644 -76 775 -21 c 0
 779 -19 784 -18 790 -18 c 0
 806 -18 817 -34 817 -52 c 0
 817 -63 811 -71 798 -76 c 0
 687 -122 599 -231 599 -382 c 0
 599 -528 718 -662 865 -662 c 0
 1008 -662 1065 -561 1065 -407 c 2
 1065 -341 l 2
 1065 -149 1151 -19 1331 -19 c 0
 1472 -19 1599 -114 1599 -258 c 0
 1599 -331 1558 -400 1505 -437 c 1
EndSplineSet
Refer: 59 3351 N 1 0 0 1 0 0 2
LCarets2: 1 0
EndChar

StartChar: k3k3r1
Encoding: 65580 -1 161
Width: 1838
GlyphClass: 3
LigCaretCntFixed: 1
Flags: HW
LayerCount: 2
Fore
SplineSet
723 -328 m 4
 723 -464 828 -580 961 -580 c 4
 1087 -580 1134 -491 1134 -361 c 6
 1134 -303 l 6
 1134 -137 1202 -12 1365 -12 c 4
 1557 -12 1668 -198 1668 -390 c 4
 1668 -656 1500 -870 1302 -947 c 4
 1252 -966 1180 -981 1111 -981 c 4
 1011 -981 907 -949 907 -847 c 4
 907 -748 1011 -709 1103 -709 c 4
 1199 -709 1309 -746 1309 -850 c 4
 1309 -860 1308 -870 1305 -880 c 5
 1467 -803 1606 -621 1606 -390 c 4
 1606 -238 1524 -71 1365 -71 c 4
 1238 -71 1194 -172 1194 -303 c 6
 1194 -361 l 6
 1194 -525 1120 -642 958 -642 c 4
 794 -642 664 -495 664 -330 c 4
 664 -177 763 -58 883 -14 c 4
 887 -12 891 -12 895 -12 c 4
 912 -12 923 -28 923 -44 c 4
 923 -55 918 -65 904 -70 c 4
 807 -105 723 -200 723 -328 c 4
1104 -767 m 4
 1042 -767 966 -789 966 -850 c 4
 966 -898 1041 -925 1114 -925 c 4
 1199 -925 1243 -887 1243 -848 c 4
 1243 -808 1197 -767 1104 -767 c 4
EndSplineSet
Refer: 59 3351 N 1 0 0 1 0 0 2
LCarets2: 1 0
EndChar

StartChar: k3th3
Encoding: 65581 -1 162
Width: 1740
GlyphClass: 3
LigCaretCntFixed: 1
Flags: HW
LayerCount: 2
Fore
SplineSet
1260 455 m 128
 1260 495 1307 497 1348 495 c 0
 1459 495 1540 578 1540 688 c 0
 1540 846 1378 940 1215 940 c 0
 985 940 890 787 886 548 c 2
 884 421 l 1
 879 175 776 -10 531 -10 c 0
 272 -10 100 232 100 458 c 0
 100 711 254 918 429 1004 c 0
 434 1007 440 1008 445 1008 c 0
 464 1008 480 990 480 969 c 128
 480 957 473 947 460 941 c 0
 306 867 170 678 170 458 c 0
 170 258 324 61 532 61 c 0
 739 61 809 212 814 422 c 1
 816 549 l 2
 821 822 945 1011 1210 1011 c 0
 1411 1011 1613 888 1613 691 c 0
 1613 586 1553 506 1490 466 c 1
 1575 432 1641 360 1641 248 c 0
 1641 82 1488 -25 1323 -25 c 0
 1271 -25 1220 -13 1170 12 c 0
 1157 18 1150 28 1150 40 c 128
 1150 60 1164 78 1182 78 c 128
 1189 78 1203 74 1223 64 c 128
 1245 54 1286 46 1329 46 c 0
 1447 46 1571 126 1571 251 c 0
 1571 370 1470 418 1329 420 c 1
 1294 421 l 2
 1276 421 1260 437 1260 455 c 128
1237 -417 m 1024
EndSplineSet
LCarets2: 2 0 0
EndChar

StartChar: k3th3r1
Encoding: 65584 -1 165
Width: 1712
GlyphClass: 3
LigCaretCntFixed: 1
Flags: HW
LayerCount: 2
Fore
SplineSet
170 468 m 0
 170 257 307 54 516 54 c 0
 709 54 772 201 776 393 c 2
 779 513 l 1
 783 789 895 1009 1172 1009 c 0
 1360 1009 1532 867 1532 679 c 0
 1532 562 1457 459 1363 416 c 1
 1501 344 1612 196 1612 -4 c 0
 1612 -405 1258 -613 866 -613 c 0
 688 -613 489 -564 489 -378 c 0
 489 -201 673 -131 838 -131 c 0
 1009 -131 1202 -197 1202 -381 c 0
 1202 -433 1184 -471 1158 -504 c 1
 1357 -431 1542 -263 1542 -5 c 0
 1542 200 1370 391 1239 391 c 0
 1235 391 1231 391 1227 391 c 4
 1212 391 1200 410 1200 425 c 0
 1200 444 1216 460 1235 460 c 2
 1242 460 l 2
 1362 460 1462 560 1462 679 c 0
 1462 827 1322 939 1172 939 c 0
 935 939 853 749 849 512 c 1
 846 392 l 1
 842 162 749 -16 516 -16 c 0
 266 -16 100 219 100 468 c 0
 100 711 236 899 397 997 c 0
 402 1000 410 1002 416 1002 c 0
 435 1002 451 986 451 967 c 0
 451 956 444 943 434 937 c 0
 291 850 170 684 170 468 c 0
885 -543 m 0
 1002 -540 1132 -500 1132 -382 c 0
 1132 -243 974 -201 839 -201 c 0
 710 -201 559 -246 559 -378 c 0
 559 -526 744 -543 885 -543 c 0
EndSplineSet
LCarets2: 1 0
EndChar

StartChar: k3th3th4
Encoding: 65585 -1 166
Width: 3009
GlyphClass: 3
LigCaretCntFixed: 1
Flags: HW
LayerCount: 2
Fore
SplineSet
537 -15 m 0
 274 -15 100 234 100 499 c 0
 100 726 210 899 346 1006 c 0
 351 1010 361 1013 368 1013 c 0
 387 1013 403 997 403 978 c 0
 403 968 397 956 389 950 c 0
 268 855 170 702 170 499 c 0
 170 272 315 55 537 55 c 0
 713 55 823 185 823 365 c 0
 823 421 816 483 816 544 c 0
 816 807 978 1011 1237 1011 c 0
 1386 1011 1529 916 1529 760 c 0
 1529 675 1482 613 1425 581 c 1
 1516 553 1610 486 1610 370 c 0
 1610 251 1503 171 1384 171 c 0
 1343 171 1306 178 1274 178 c 0
 1229 178 1179 160 1179 118 c 0
 1179 28 1332 28 1423 28 c 0
 1700 28 1921 182 1922 429 c 2
 1925 974 l 2
 1925 993 1941 1008 1960 1008 c 0
 1979 1008 1995 993 1995 974 c 2
 1994 427 l 2
 1994 224 2190 52 2411 52 c 0
 2648 52 2840 252 2840 489 c 0
 2840 734 2636 940 2387 940 c 0
 2372 940 2355 938 2340 938 c 0
 2321 938 2305 954 2305 973 c 0
 2305 1011 2349 1010 2387 1010 c 0
 2674 1010 2910 771 2910 489 c 0
 2910 213 2687 -18 2411 -18 c 0
 2202 -18 2030 117 1961 280 c 1
 1884 81 1693 -42 1423 -42 c 0
 1286 -42 1109 -27 1109 118 c 0
 1109 208 1192 248 1278 248 c 0
 1319 248 1357 241 1389 241 c 0
 1468 241 1540 294 1540 371 c 0
 1540 497 1392 524 1276 536 c 2
 1228 541 l 2
 1211 543 1197 559 1197 576 c 0
 1197 594 1211 610 1229 611 c 2
 1271 614 l 2
 1372 621 1459 654 1459 760 c 0
 1459 875 1349 941 1237 941 c 0
 1017 941 886 767 886 543 c 0
 886 483 893 428 893 366 c 0
 893 146 752 -15 537 -15 c 0
EndSplineSet
LCarets2: 4 0 -225 0 0
EndChar

StartChar: k3n1u1
Encoding: 65589 -1 170
Width: 2405
GlyphClass: 3
LigCaretCntFixed: 1
Flags: HW
LayerCount: 2
Fore
SplineSet
1150 1005 m 0
 1306 1005 1406 879 1444 755 c 5
 1499 890 1623 1011 1806 1011 c 0
 1831 1011 1858 1009 1885 1004 c 4
 2138 960 2306 704 2306 413 c 0
 2306 343 2295 271 2267 205 c 4
 2266 200 2262 193 2259 189 c 4
 2215 97 2118 -3 1985 -3 c 0
 1965 -3 1944 -1 1923 4 c 4
 1819 28 1721 130 1721 260 c 0
 1721 289 1726 320 1737 351 c 4
 1771 446 1870 535 1996 535 c 0
 2109 535 2191 476 2236 397 c 5
 2236 411 l 2
 2236 667 2092 897 1873 935 c 4
 1852 939 1832 940 1813 940 c 0
 1701 940 1612 883 1559 816 c 4
 1494 733 1475 630 1474 490 c 5
 1474 32 l 6
 1474 13 1458 -2 1439 -2 c 4
 1420 -2 1404 13 1404 32 c 6
 1404 489 l 6
 1404 586 1399 682 1366 765 c 4
 1334 846 1256 937 1154 937 c 0
 1018 937 934 808 934 680 c 4
 934 572 986 463 986 347 c 0
 986 137 811 -2 603 -2 c 0
 562 -2 520 3 477 15 c 4
 277 69 100 260 100 505 c 0
 100 649 156 770 249 862 c 4
 333 945 456 1006 576 1006 c 4
 595 1006 611 990 611 971 c 4
 611 952 597 937 578 936 c 4
 474 930 373 886 299 813 c 4
 217 732 171 618 171 502 c 0
 171 293 323 129 495 83 c 4
 532 73 567 68 602 68 c 0
 774 68 917 178 917 351 c 0
 917 460 864 568 864 680 c 4
 864 843 974 1005 1150 1005 c 0
1791 259 m 0
 1791 150 1879 68 1981 68 c 0
 2089 68 2163 147 2199 226 c 5
 2201 238 2202 250 2202 261 c 0
 2202 377 2106 466 1997 466 c 0
 1883 466 1791 372 1791 259 c 0
EndSplineSet
LCarets2: 1 0
EndChar

StartChar: k3n1u2
Encoding: 65590 -1 171
Width: 2619
GlyphClass: 3
LigCaretCntFixed: 1
Flags: HW
LayerCount: 2
Fore
SplineSet
983 345 m 0
 983 137 808 -1 601 -1 c 0
 560 -1 518 4 475 16 c 4
 276 70 100 259 100 503 c 0
 100 647 156 767 249 859 c 4
 332 941 455 1002 575 1002 c 4
 594 1002 610 986 610 967 c 4
 610 948 595 933 576 932 c 4
 473 926 372 881 298 809 c 4
 216 729 171 617 171 502 c 0
 171 293 323 129 494 83 c 4
 530 73 566 68 601 68 c 0
 771 68 914 178 914 349 c 0
 914 458 860 566 860 677 c 4
 860 839 969 1001 1145 1001 c 0
 1302 1001 1400 875 1438 752 c 5
 1493 887 1617 1007 1799 1007 c 0
 1824 1007 1850 1005 1877 1000 c 4
 2094 962 2244 765 2284 545 c 5
 2412 472 2520 336 2520 144 c 0
 2520 -82 2370 -240 2198 -294 c 4
 2154 -308 2108 -315 2062 -315 c 0
 1978 -315 1893 -292 1821 -248 c 4
 1811 -242 1804 -229 1804 -218 c 4
 1804 -199 1820 -183 1839 -183 c 4
 1845 -183 1852 -186 1857 -189 c 4
 1917 -226 1990 -245 2061 -245 c 0
 2101 -245 2140 -239 2177 -227 c 4
 2323 -181 2448 -48 2448 145 c 0
 2448 286 2380 389 2295 454 c 5
 2296 439 2296 425 2296 410 c 0
 2296 319 2277 225 2225 146 c 4
 2178 74 2087 -1 1973 -1 c 0
 1816 -1 1706 129 1706 276 c 0
 1706 324 1718 375 1746 425 c 4
 1802 525 1923 604 2068 604 c 0
 2112 604 2157 597 2204 581 c 5
 2160 751 2036 901 1865 931 c 4
 1845 935 1825 936 1806 936 c 0
 1695 936 1606 880 1553 813 c 4
 1489 731 1469 628 1468 489 c 5
 1468 33 l 6
 1468 14 1452 -2 1433 -2 c 4
 1414 -2 1398 14 1398 33 c 6
 1398 487 l 6
 1398 584 1394 679 1361 762 c 4
 1329 843 1251 933 1149 933 c 0
 1014 933 930 804 930 677 c 4
 930 569 983 460 983 345 c 0
1775 278 m 0
 1775 161 1863 68 1972 68 c 0
 2061 68 2129 125 2167 184 c 4
 2210 248 2226 327 2226 409 c 0
 2226 439 2224 469 2220 499 c 5
 2177 519 2120 532 2063 532 c 0
 2029 532 1995 528 1963 517 c 4
 1874 487 1775 396 1775 278 c 0
EndSplineSet
LCarets2: 1 0
EndChar

StartChar: k3m1
Encoding: 65591 -1 172
Width: 2027
GlyphClass: 3
LigCaretCntFixed: 1
Flags: HW
LayerCount: 2
Fore
SplineSet
170 493 m 4
 170 257 334 53 569 53 c 4
 786 53 877 229 886 458 c 5
 889 513 l 5
 902 811 1037 1011 1334 1011 c 4
 1639 1011 1928 804 1927 468 c 6
 1926 34 l 6
 1926 15 1910 -1 1891 -1 c 6
 984 -1 l 6
 965 -1 948 14 948 32 c 4
 948 51 958 64 978 69 c 4
 1196 138 1486 361 1486 648 c 4
 1486 802 1413 926 1262 926 c 4
 1040 926 970 727 959 509 c 6
 956 454 l 5
 944 187 837 -17 563 -17 c 4
 293 -17 100 222 100 492 c 4
 100 733 241 920 408 1008 c 4
 414 1011 420 1012 425 1012 c 4
 444 1012 459 996 459 974 c 132
 459 962 453 953 440 946 c 4
 294 868 170 704 170 493 c 4
1442 931 m 5
 1521 867 1555 772 1555 671 c 4
 1555 387 1342 174 1152 69 c 5
 1856 69 l 5
 1857 468 l 6
 1857 740 1672 890 1442 931 c 5
EndSplineSet
LCarets2: 2 0 0
EndChar

StartChar: k3r3
Encoding: 65594 -1 175
Width: 2278
GlyphClass: 3
Flags: HW
LayerCount: 2
Fore
SplineSet
899 1002 m 4
 918 1002 934 986 934 967 c 4
 934 953 923 938 910 934 c 4
 742 874 597 707 597 488 c 4
 597 256 777 52 1008 52 c 4
 1232 52 1315 210 1315 438 c 6
 1315 542 l 6
 1315 806 1428 1010 1689 1010 c 4
 2006 1010 2178 699 2178 404 c 4
 2178 -115 1805 -362 1279 -362 c 5
 1076 -361 l 5
 513 -356 100 -75 100 461 c 4
 100 651 167 840 289 986 c 4
 295 993 308 999 317 999 c 4
 336 999 352 983 352 964 c 4
 352 957 348 946 343 941 c 4
 232 808 170 634 170 460 c 4
 170 -38 553 -286 1076 -291 c 5
 1277 -292 l 5
 1764 -292 2108 -77 2108 404 c 4
 2108 662 1964 940 1689 940 c 4
 1467 940 1385 766 1385 540 c 6
 1385 436 l 6
 1385 172 1270 -18 1008 -18 c 4
 738 -18 527 217 527 488 c 4
 527 739 695 931 887 1000 c 4
 890 1001 895 1002 899 1002 c 4
EndSplineSet
LCarets2: 1 0
EndChar

StartChar: k4r3
Encoding: 65603 -1 184
Width: 2939
GlyphClass: 3
Flags: HW
LayerCount: 2
Fore
SplineSet
845 940 m 0
 1045 940 1201 791 1201 594 c 0
 1201 494 1158 397 1085 332 c 1
 1492 335 l 1
 1492 515 l 2
 1492 826 1631 1014 1931 1014 c 0
 2215 1014 2365 843 2360 542 c 2
 2356 305 l 2
 2356 286 2340 271 2321 271 c 2
 1562 266 l 1
 1561 70 l 1
 2769 70 l 1
 2770 980 l 6
 2770 1003 2782 1015 2807 1015 c 4
 2824 1015 2840 998 2840 980 c 6
 2839 -95 l 2
 2839 -416 2648 -460 2320 -460 c 2
 1309 -459 l 2
 602 -459 100 -146 100 523 c 0
 100 680 152 845 230 988 c 0
 237 1000 247 1006 260 1007 c 1
 261 1007 l 2
 278 1007 296 991 296 975 c 128
 296 967 294 960 291 955 c 0
 218 822 170 668 170 522 c 0
 170 -116 665 -388 1309 -389 c 2
 2320 -390 l 2
 2602 -390 2769 -377 2769 -95 c 2
 2769 -0 l 1
 1526 -0 l 2
 1507 0 1491 16 1491 35 c 2
 1492 265 l 1
 956 261 l 2
 935 261 921 279 921 302 c 128
 921 315 929 324 945 329 c 0
 1043 363 1132 463 1132 590 c 0
 1132 771 994 861 856 861 c 0
 717 861 577 770 577 590 c 0
 577 469 654 376 743 338 c 0
 757 331 764 323 764 312 c 0
 764 284 754 270 735 270 c 0
 726 270 719 271 714 274 c 0
 603 323 507 439 507 590 c 0
 507 784 665 940 845 940 c 0
1562 515 m 2
 1562 336 l 1
 2287 341 l 1
 2290 542 l 2
 2294 801 2116 940 1939 940 c 0
 1753 940 1562 798 1562 515 c 2
EndSplineSet
LCarets2: 1 0
EndChar

StartChar: ngk1
Encoding: 65608 -1 189
Width: 1903
GlyphClass: 3
LigCaretCntFixed: 1
Flags: HW
LayerCount: 2
Fore
SplineSet
1496 -10 m 0
 1464 -10 1436 -5 1436 27 c 128
 1436 42 1451 61 1465 61 c 130
 1498 61 l 2
 1633 61 1734 178 1734 300 c 0
 1734 473 1589 551 1404 552 c 1
 1406 531 1406 510 1406 490 c 0
 1406 235 1268 -13 1009 -13 c 0
 855 -13 743 88 683 196 c 1
 643 85 540 -11 392 -11 c 0
 242 -11 100 119 100 266 c 0
 100 415 192 510 297 560 c 1
 193 585 104 658 104 783 c 0
 104 930 235 1014 361 1014 c 0
 518 1014 639 934 685 805 c 5
 745 915 859 1012 1007 1012 c 0
 1228 1012 1359 826 1395 622 c 1
 1399 622 l 2
 1615 622 1803 522 1803 308 c 0
 1803 134 1669 -10 1496 -10 c 0
378 944 m 0
 269 944 174 890 174 782 c 0
 174 656 289 620 421 617 c 2
 623 612 l 1
 628 645 633 673 633 702 c 0
 633 849 506 944 378 944 c 0
1324 621 m 1
 1292 787 1190 942 1007 942 c 0
 823 942 724 785 694 613 c 1
 1324 621 l 1
1333 551 m 1
 686 543 l 1
 685 529 685 514 685 500 c 0
 685 274 785 57 1008 57 c 0
 1227 57 1336 274 1336 489 c 0
 1336 509 1335 530 1333 551 c 1
632 299 m 0
 632 393 616 452 616 522 c 2
 616 542 l 1
 612 542 l 1
 362 538 170 472 170 277 c 0
 170 157 272 60 392 60 c 0
 525 60 632 164 632 299 c 0
EndSplineSet
LCarets2: 2 0 0
EndChar

StartChar: ngk1u1
Encoding: 65609 -1 190
Width: 1947
GlyphClass: 3
LigCaretCntFixed: 1
Flags: HW
LayerCount: 2
Fore
SplineSet
1634 -10 m 0
 1602 -10 1505 -6 1505 35 c 128
 1505 56 1517 75 1536 75 c 128
 1543 75 1549 74 1552 73 c 0
 1581 63 1608 58 1633 58 c 0
 1712 58 1777 104 1777 151 c 0
 1777 227 1674 242 1599 242 c 0
 1574 244 1561 256 1561 278 c 0
 1561 302 1579 314 1616 314 c 0
 1698 314 1775 346 1775 416 c 0
 1775 535 1627 551 1486 551 c 0
 1459 551 1429 550 1396 549 c 1
 1398 529 1398 509 1398 490 c 0
 1398 236 1261 -8 1002 -8 c 0
 855 -8 739 89 683 190 c 0
 682 191 682 192 682 193 c 1
 641 82 540 -10 392 -10 c 0
 241 -10 100 116 100 264 c 0
 100 410 185 502 283 553 c 1
 187 578 103 653 103 773 c 0
 103 916 232 1012 356 1012 c 0
 505 1012 625 911 673 786 c 1
 729 899 842 1010 990 1010 c 0
 1208 1010 1352 830 1387 619 c 1
 1422 621 1455 622 1485 622 c 0
 1684 622 1847 570 1847 421 c 0
 1847 356 1812 302 1765 279 c 1
 1820 248 1847 205 1847 149 c 0
 1847 32 1742 -10 1634 -10 c 0
1316 617 m 1
 1284 784 1183 942 1000 942 c 0
 822 942 716 780 692 612 c 1
 1316 617 l 1
620 611 m 1
 623 631 624 649 624 667 c 0
 624 803 517 941 370 941 c 0
 265 941 173 873 173 770 c 0
 173 646 287 610 420 610 c 2
 538 610 l 1
 557 611 585 611 620 611 c 1
683 542 m 1
 683 524 680 503 680 484 c 0
 680 275 790 62 1002 62 c 0
 1219 62 1328 275 1328 490 c 0
 1328 509 1328 528 1326 547 c 1
 683 542 l 1
171 276 m 0
 171 155 272 62 390 62 c 0
 528 62 631 158 631 298 c 0
 631 309 630 320 628 331 c 0
 616 381 610 433 610 486 c 0
 610 504 611 522 612 540 c 1
 543 540 l 1
 337 531 171 448 171 276 c 0
EndSplineSet
LCarets2: 1 0
EndChar

StartChar: ngk1u2
Encoding: 65610 -1 191
Width: 1948
GlyphClass: 3
LigCaretCntFixed: 1
Flags: HW
LayerCount: 2
Fore
SplineSet
1731 225 m 1
 1808 184 1848 123 1848 41 c 0
 1848 -128 1686 -186 1512 -186 c 2
 531 -187 l 2
 370 -187 216 -198 216 -325 c 0
 216 -457 394 -461 536 -461 c 2
 1811 -459 l 2
 1831 -459 1847 -475 1847 -494 c 128
 1847 -513 1831 -529 1812 -529 c 2
 536 -531 l 2
 353 -531 146 -508 146 -325 c 0
 146 -149 345 -117 531 -117 c 2
 1499 -116 l 2
 1657 -116 1778 -75 1778 43 c 0
 1778 126 1699 179 1618 187 c 1
 1611 186 1605 186 1599 186 c 0
 1559 186 1539 198 1539 222 c 128
 1539 246 1558 258 1597 258 c 0
 1604 258 1610 258 1618 257 c 1
 1686 263 1754 315 1754 385 c 0
 1754 520 1604 549 1454 549 c 0
 1434 549 1414 548 1392 548 c 1
 1394 527 1395 505 1395 485 c 0
 1395 234 1256 -11 1001 -11 c 0
 856 -11 732 85 681 188 c 1
 639 75 540 -11 391 -11 c 0
 242 -11 100 113 100 260 c 0
 100 409 192 505 297 555 c 1
 201 582 111 658 111 783 c 0
 111 918 236 1013 366 1013 c 0
 504 1013 632 906 674 787 c 1
 731 899 844 1004 992 1004 c 128
 1220 1004 1347 825 1383 618 c 1
 1442 618 l 2
 1642 618 1823 573 1823 388 c 0
 1823 322 1783 257 1731 225 c 1
1312 617 m 1
 1280 780 1179 935 999 935 c 0
 819 935 719 776 690 608 c 1
 1312 617 l 1
625 669 m 0
 625 824 505 940 365 940 c 0
 270 940 181 876 181 782 c 0
 181 648 302 611 450 607 c 2
 541 605 l 1
 558 606 584 606 617 607 c 1
 622 627 625 648 625 669 c 0
1322 547 m 1
 681 538 l 1
 681 531 l 1
 680 514 679 497 679 480 c 0
 679 270 788 59 1001 59 c 0
 1216 59 1325 273 1325 485 c 0
 1325 505 1324 526 1322 547 c 1
404 57 m 0
 523 57 631 170 631 291 c 0
 631 299 630 306 630 314 c 1
 616 368 609 423 609 479 c 0
 609 497 610 515 611 533 c 1
 544 535 l 1
 337 526 171 444 171 270 c 0
 171 147 275 57 404 57 c 0
EndSplineSet
LCarets2: 1 0
EndChar

StartChar: ngk1r1
Encoding: 65611 -1 192
Width: 1850
GlyphClass: 3
LigCaretCntFixed: 1
Flags: HW
LayerCount: 2
Fore
SplineSet
660 810 m 1
 715 912 820 1013 969 1013 c 0
 1209 1013 1329 784 1345 567 c 1
 1579 527 1750 351 1750 78 c 0
 1750 -379 1361 -614 904 -614 c 0
 725 -614 527 -565 527 -378 c 0
 527 -201 711 -132 876 -132 c 0
 1047 -132 1240 -198 1240 -382 c 0
 1240 -432 1223 -468 1199 -501 c 1
 1459 -435 1680 -240 1680 78 c 0
 1680 309 1542 458 1348 496 c 1
 1347 252 1226 -13 965 -13 c 0
 820 -13 717 84 662 181 c 1
 623 72 513 -13 385 -13 c 0
 230 -13 101 109 101 263 c 0
 101 394 192 490 285 535 c 1
 189 565 100 646 100 768 c 0
 100 914 221 1012 367 1012 c 0
 499 1012 617 924 660 810 c 1
969 943 m 0
 777 943 685 759 666 583 c 1
 1274 576 l 1
 1258 753 1163 943 969 943 c 0
367 942 m 0
 260 942 170 874 170 768 c 0
 170 582 382 584 567 584 c 2
 595 584 l 1
 598 623 610 656 610 697 c 0
 610 835 498 942 367 942 c 0
662 513 m 1
 660 296 742 57 965 57 c 0
 1185 57 1278 290 1278 501 c 2
 1278 505 l 1
 662 513 l 1
591 494 m 0
 591 499 591 504 591 509 c 1
 500 512 l 1
 337 504 171 433 171 263 c 0
 171 148 269 57 384 57 c 0
 507 57 609 157 609 283 c 0
 609 301 608 319 605 339 c 0
 595 391 591 442 591 494 c 0
877 -202 m 4
 748 -202 597 -246 597 -379 c 0
 597 -520 761 -538 904 -538 c 0
 1035 -538 1170 -508 1170 -382 c 0
 1170 -244 1011 -202 877 -202 c 4
EndSplineSet
LCarets2: 1 0
EndChar

StartChar: ngng
Encoding: 65612 -1 193
Width: 2636
GlyphClass: 3
LigCaretCntFixed: 1
Flags: HW
LayerCount: 2
Fore
SplineSet
982 919 m 1
 1048 970 1145 1015 1251 1015 c 0
 1465 1015 1598 865 1650 698 c 1
 1713 877 1873 1010 2106 1010 c 0
 2297.53259794 1010 2494 895.747409504 2494 689 c 0
 2494 586 2439 513 2371 473 c 1
 2457 440 2537 365 2537 250 c 0
 2537 83.1756691968 2374.91399477 -13 2208 -13 c 0
 2136 -13 2064 6 2001 43 c 0
 1991 49 1983 62 1983 73 c 0
 1983 92 1999 108 2018 108 c 0
 2023 108 2031 106 2036 103 c 0
 2088 73 2149 58 2209 58 c 0
 2336.65851763 58 2467 126.181019798 2467 250 c 0
 2467 390.702463121 2326.16461457 429 2183 429 c 2
 2118 429 l 2
 2099 429 2083 445 2083 464 c 0
 2083 483 2098 498 2117 499 c 2
 2177 501 l 1
 2315 504 2424 550 2424 689 c 0
 2424 854.034770607 2261.68220177 940 2106 940 c 0
 1802.51094187 940 1687 724.956094988 1687 416 c 2
 1687 23 l 2
 1687 4 1672 -12 1653 -12 c 0
 1634 -12 1618 3 1618 22 c 2
 1613 419 l 2
 1608.94559678 696.72662045 1527.01768773 945 1251 945 c 0
 1173 945 1096 914 1043 877 c 1
 1196.36480488 756.9236799 1318 562.604798639 1318 322 c 0
 1318 147.723529894 1216.20387357 -13 1042 -13 c 0
 843.861864234 -13 749 183.324343341 749 374 c 0
 749 568 807 746 927 870 c 1
 846 915 755 941 664 941 c 0
 379.42321238 941 170 714.851695697 170 419 c 0
 170 402 171 384 172 367 c 1
 210 440 291 500 385 500 c 0
 523 500 632 379 632 241 c 0
 632 107 528 -11 394 -11 c 0
 182.17864277 -11 100 213.205033931 100 419 c 0
 100 755.712200395 341.10058675 1011 665 1011 c 0
 777 1011 887 977 982 919 c 1
987 831 m 1
 877 724 819 559 819 376 c 0
 819 221.710832442 886.037646528 57 1042 57 c 0
 1175.34939768 57 1247 186.686114583 1247 322 c 0
 1247 545.548241058 1130.56411535 725.092046051 987 831 c 1
214 249 m 0
 214 147 292 59 394 59 c 0
 489 59 562 145 562 241 c 0
 562 341 484 430 385 430 c 0
 289 430 214 345 214 249 c 0
EndSplineSet
LCarets2: 2 0 0
EndChar

StartChar: ch1ch1
Encoding: 65617 -1 198
Width: 1609
GlyphClass: 3
LigCaretCntFixed: 1
Flags: HW
LayerCount: 2
Fore
SplineSet
983 381 m 0
 983 244 926 140 828 69 c 1
 1440 69 l 1
 1440 971 l 2
 1440 991 1455 1006 1475 1006 c 0
 1494 1006 1510 990 1510 971 c 2
 1510 34 l 2
 1510 33 1510 31 1509 30 c 1
 1509 -421 l 2
 1509 -443 1493 -456 1474 -456 c 2
 633 -463 l 2
 613 -463 598 -446 598 -426 c 128
 598 -416 602 -408 610 -401 c 2
 1080 -1 l 1
 35 -1 l 2
 16 -1 0 15 0 34 c 128
 0 53 16 69 35 69 c 2
 643 69 l 2
 786 69 913 213 913 365 c 0
 913 533 790 652 647 652 c 0
 512 652 404 546 404 406 c 0
 404 371 411 338 425 308 c 0
 427 303 428 298 428 290 c 128
 428 271 410 258 389 258 c 128
 376 258 367 265 361 279 c 0
 341 323 332 368 332 410 c 0
 332 566 469 722 635 722 c 0
 825 721 983 571 983 381 c 0
1439 -1 m 1
 1188 -1 l 1
 729 -392 l 1
 1439 -387 l 1
 1439 -1 l 1
EndSplineSet
LCarets2: 2 0 0
EndChar

StartChar: ch1ch2
Encoding: 65620 -1 201
Width: 1690
GlyphClass: 3
LigCaretCntFixed: 1
Flags: HW
LayerCount: 2
Fore
SplineSet
1023 389 m 0
 1023 248 969 150 859 73 c 1
 1520 75 l 1
 1520 1007 l 2
 1520 1026 1536 1043 1555 1043 c 0
 1573 1043 1590 1026 1590 1008 c 2
 1590 40 l 2
 1590 21 1574 5 1555 5 c 2
 36 0 l 1
 28 0 l 2
 15 0 0 21 0 36 c 128
 0 55 16 70 35 70 c 2
 668 72 l 2
 818 72 956 227 956 380 c 0
 956 558 841 684 673 684 c 0
 528 684 418 565 418 429 c 0
 418 394 425 358 441 323 c 0
 443 318 444 312 444 305 c 128
 444 286 426 273 405 273 c 128
 392 273 383 280 377 294 c 0
 356 340 347 387 347 431 c 0
 347 595 488 756 662 756 c 0
 865 753 1023 600 1023 389 c 0
381 -243 m 0
 292 -243 217 -312 217 -404 c 0
 217 -423 221 -443 229 -463 c 0
 230 -466 231 -471 231 -477 c 128
 231 -493 214 -504 196 -504 c 128
 165 -504 158 -433 158 -406 c 0
 158 -279 262 -185 376 -185 c 0
 504 -185 614 -287 614 -421 c 0
 614 -505 583 -568 523 -618 c 1
 846 -619 l 1
 788 -550 761 -471 761 -392 c 0
 761 -177 949 -4 1171 -4 c 0
 1392 -4 1587 -153 1587 -382 c 0
 1587 -539 1473 -680 1313 -680 c 0
 1166 -680 1048 -550 1048 -398 c 0
 1048 -240 1149 -116 1287 -79 c 1
 1249 -67 1211 -62 1174 -62 c 0
 987 -62 821 -201 821 -390 c 0
 821 -495 875 -577 939 -626 c 0
 947 -632 951 -639 951 -648 c 128
 951 -666 938 -680 921 -680 c 2
 39 -676 l 2
 22 -676 9 -663 9 -646 c 128
 9 -629 22 -615 39 -615 c 0
 150 -616 263 -616 372 -616 c 1
 473 -611 554 -529 554 -421 c 0
 554 -328 475 -243 381 -243 c 0
1107 -388 m 0
 1107 -510 1190 -619 1309 -619 c 0
 1428 -619 1527 -518 1527 -385 c 0
 1527 -266 1467 -184 1389 -129 c 1
 1385 -129 1381 -129 1377 -129 c 0
 1229 -129 1107 -241 1107 -388 c 0
EndSplineSet
LCarets2: 2 0 0
EndChar

StartChar: ch2u1
Encoding: 65621 -1 202
Width: 2852
GlyphClass: 3
LigCaretCntFixed: 1
Flags: HW
LayerCount: 2
Fore
SplineSet
2060 -253 m 1
 379 -248 l 2
 221 -248 70 -267 70 -378 c 0
 70 -478 189 -508 330 -508 c 0
 333 -508 336 -508 339 -508 c 0
 1129 -500 1924 -496 2716 -490 c 1
 2724 -490 l 2
 2738 -490 2752 -509 2752 -524 c 128
 2752 -543 2737 -560 2717 -560 c 0
 1925 -566 1130 -570 340 -578 c 1
 332 -578 l 2
 152 -578 -1 -527 -1 -380 c 0
 -1 -231 152 -178 339 -177 c 1
 2069 -183 l 1
 2420 -183 2682 -22 2682 314 c 0
 2682 537 2541 706 2368 772 c 1
 2440 672 2480 555 2480 439 c 0
 2480 216 2321 -4 2092 -4 c 0
 1864 -4 1704 184 1704 403 c 0
 1704 666 1915 854 2159 873 c 1
 2073 925 1978 944 1872 944 c 0
 1587 944 1350 722 1350 443 c 0
 1350 278 1433 139 1530 59 c 0
 1539 52 1543 43 1543 34 c 0
 1543 15 1526 -3 1507 -3 c 2
 42 3 l 2
 22 3 7 19 7 38 c 128
 7 53 20 73 34 73 c 2
 42 73 l 1
 657 71 l 2
 812 70 936 218 936 390 c 0
 936 533 823 671 665 671 c 0
 521 671 416 561 416 412 c 0
 416 384 421 357 431 334 c 128
 437 321 440 309 440 300 c 0
 440 280 426 269 402 269 c 128
 390 269 381 276 375 290 c 0
 355 335 345 381 345 424 c 0
 345 597 493 741 672 741 c 0
 847 741 1007 579 1007 396 c 0
 1007 250 949 144 843 70 c 1
 1421 67 l 1
 1344 156 1281 288 1281 441 c 0
 1281 778 1556 1015 1895 1015 c 0
 2039 1015 2168 970 2283 867 c 1
 2545 826 2752 609 2752 317 c 0
 2752 -66 2458 -253 2060 -253 c 1
2408 439 m 0
 2408 600 2347 707 2251 801 c 1
 2232 803 2214 804 2196 804 c 0
 1960 804 1775 632 1775 402 c 0
 1775 226 1901 69 2076 69 c 0
 2279 69 2408 239 2408 439 c 0
EndSplineSet
LCarets2: 1 0
EndChar

StartChar: ch2u2
Encoding: 65622 -1 203
Width: 2956
GlyphClass: 3
LigCaretCntFixed: 1
Flags: HW
LayerCount: 2
Fore
SplineSet
2664 296 m 1
 2772 267 2856 172 2856 43 c 0
 2856 -192 2630 -254 2380 -254 c 2
 338 -262 l 2
 216 -262 72 -270 72 -383 c 0
 72 -477 193 -500 331 -500 c 1
 2808 -482 l 1
 2816 -482 l 2
 2830 -482 2844 -501 2844 -516 c 128
 2844 -535 2828 -552 2809 -552 c 2
 2808 -552 l 1
 319 -570 l 1
 142 -570 0 -522 -0 -380 c 0
 0 -239 144 -192 321 -192 c 2
 2380 -184 l 1
 2599 -182 2786 -145 2786 45 c 0
 2786 145 2704 238 2601 238 c 0
 2584 238 2564 231 2548 231 c 0
 2523 231 2511 244 2511 270 c 128
 2511 283 2519 293 2535 298 c 0
 2612 323 2678 393 2678 495 c 0
 2678 673 2514 745 2309 749 c 1
 2377 654 2413 543 2413 433 c 0
 2413 211 2255 -5 2028 -5 c 0
 1818 -5 1659 155 1659 359 c 0
 1659 634 1903 781 2154 812 c 1
 2059 887 1946 938 1833 938 c 0
 1560 938 1316 707 1316 430 c 0
 1316 270 1396 134 1490 56 c 0
 1499 49 1503 40 1503 30 c 128
 1503 10 1488 -6 1468 -6 c 2
 42 1 l 2
 22 1 7 17 7 36 c 128
 7 55 22 71 42 71 c 6
 640 68 l 6
 791 67 911 210 911 378 c 0
 911 518 802 650 648 650 c 0
 509 650 407 544 407 400 c 0
 407 373 411 346 421 323 c 128
 427 310 430 300 430 291 c 0
 430 270 416 259 392 259 c 128
 380 259 371 266 365 280 c 0
 345 322 336 366 336 408 c 0
 336 574 478 722 641 722 c 0
 839 722 982 555 982 380 c 0
 982 242 924 139 825 67 c 1
 1382 65 l 1
 1308 150 1248 284 1248 431 c 0
 1248 769 1533 1009 1836 1009 c 128
 1998 1009 2136 935 2250 820 c 1
 2279 820 l 2
 2522 820 2748 724 2748 500 c 0
 2748 419 2720 351 2664 296 c 1
2008 68 m 0
 2212 68 2344 237 2344 433 c 0
 2344 546 2299 659 2221 748 c 1
 1954 732 1729 586 1729 360 c 0
 1729 201 1853 68 2008 68 c 0
EndSplineSet
LCarets2: 1 0
EndChar

StartChar: ch2r1
Encoding: 65623 -1 204
Width: 2811
GlyphClass: 3
LigCaretCntFixed: 1
Flags: HW
LayerCount: 2
Fore
SplineSet
418 244 m 0
 369 244 360 344 360 385 c 0
 360 555 494 680 653 680 c 0
 829 680 967 526 967 352 c 0
 967 231 904 128 821 68 c 1
 1344 66 l 1
 1260 175 1213 309 1213 450 c 0
 1213 755 1445 1014 1749 1014 c 4
 1886 1014 2021 961 2113 878 c 1
 2469 870 2711 561 2711 202 c 0
 2711 -301 2309 -609 1804 -609 c 0
 1615 -609 1427 -560 1427 -374 c 0
 1427 -197 1611 -127 1776 -127 c 0
 1947 -127 2140 -193 2140 -377 c 0
 2140 -428 2123 -466 2097 -499 c 1
 2392 -413 2641 -168 2641 203 c 0
 2641 510 2455 752 2185 800 c 1
 2260 704 2322 573 2322 415 c 0
 2322 189 2177 -12 1948 -12 c 0
 1736 -12 1596 175 1596 385 c 0
 1596 639 1792 831 2010 870 c 1
 1933 922 1841 944 1749 944 c 4
 1485 944 1283 716 1283 450 c 0
 1283 302 1343 159 1445 56 c 0
 1451 50 1456 39 1456 31 c 0
 1456 12 1440 -4 1421 -4 c 2
 85 -0 l 2
 66 0 50 16 50 35 c 0
 50 54 66 70 85 70 c 2
 86 70 l 1
 630 68 l 1
 634 70 641 73 645 73 c 0
 781 87 897 203 897 351 c 0
 897 488 790 609 652 609 c 0
 532 609 430 514 430 385 c 0
 430 353 436 322 449 294 c 0
 451 290 453 283 453 279 c 0
 453 260 437 244 418 244 c 0
2252 415 m 0
 2252 584 2176 715 2085 808 c 1
 1856 800 1666 620 1666 385 c 0
 1666 215 1779 59 1948 59 c 0
 2137 59 2252 227 2252 415 c 0
1777 -197 m 0
 1648 -197 1497 -241 1497 -374 c 0
 1497 -516 1665 -537 1809 -537 c 0
 1936 -537 2070 -500 2070 -377 c 0
 2070 -239 1911 -197 1777 -197 c 0
EndSplineSet
LCarets2: 1 0
EndChar

StartChar: ch3u1
Encoding: 65624 -1 205
Width: 1855
GlyphClass: 3
LigCaretCntFixed: 1
Flags: HW
LayerCount: 2
Fore
SplineSet
1100 937 m 0
 953 937 825 816 830 677 c 2
 837 496 l 2
 837 483 817 468 802 468 c 128
 784 468 767 482 767 501 c 2
 758 684 l 2
 749 858 624 945 456 945 c 0
 393 945 336 929 286 897 c 1
 296 898 306 899 316 899 c 0
 433 899 539 804 539 677 c 0
 539 542 432 460 322 460 c 0
 193 460 100 574 100 702 c 0
 100 900 278 1014 464 1014 c 0
 633 1014 744 943 799 820 c 1
 855 930 953 1006 1104 1006 c 0
 1293 1006 1444 866 1444 677 c 0
 1444 607 1423 541 1381 479 c 1
 1403 483 1426 484 1447 484 c 0
 1639 484 1804 343 1804 154 c 0
 1804 -158 1478 -226 1151 -228 c 2
 403 -233 l 2
 275 -234 171 -258 171 -345 c 0
 171 -441 307 -460 415 -460 c 128
 863 -461 1310 -461 1758 -462 c 0
 1777 -462 1793 -479 1793 -498 c 128
 1793 -513 1778 -532 1765 -532 c 2
 1758 -532 l 1
 1300 -531 832 -551 377 -529 c 1
 223 -526 102 -472 102 -341 c 0
 102 -207 238 -163 402 -163 c 1
 1151 -158 l 2
 1467 -156 1732 -99 1732 154 c 0
 1732 307 1597 414 1445 414 c 0
 1386 414 1328 398 1277 370 c 1
 1372 348 1456 271 1456 163 c 0
 1456 50 1368 -39 1257 -39 c 0
 1138 -39 1058 60 1058 166 c 0
 1058 205 1069 245 1091 286 c 1
 883 214 582 -11 357 -11 c 0
 232 -11 113 58 113 182 c 0
 113 316 242 379 373 379 c 0
 492 379 748 336 900 336 c 0
 1135 336 1373 449 1373 675 c 0
 1373 828 1253 937 1100 937 c 0
468 676 m 0
 468 759 402 830 317 830 c 0
 239 830 171 776 171 696 c 0
 171 598 251 531 327 531 c 0
 396 531 468 587 468 676 c 0
882 266 m 1
 798 267 460 309 378 309 c 0
 280 308 181 272 181 184 c 0
 181 100 268 61 356 61 c 0
 519 61 700 169 882 266 c 1
1257 31 m 0
 1332 31 1386 90 1386 165 c 0
 1386 265 1294 308 1193 308 c 1
 1152 266 1129 217 1129 168 c 0
 1129 98 1182 31 1257 31 c 0
EndSplineSet
LCarets2: 1 0
EndChar

StartChar: ch3u2
Encoding: 65625 -1 206
Width: 1915
GlyphClass: 3
LigCaretCntFixed: 1
Flags: HW
LayerCount: 2
Fore
SplineSet
407 -262 m 4
 285 -262 170 -271 170 -353 c 4
 170 -462 332 -465 456 -465 c 4
 893 -466 1330 -466 1767 -467 c 4
 1786 -467 1802 -483 1802 -502 c 132
 1802 -517 1787 -537 1774 -537 c 132
 1314 -537 855 -535 395 -535 c 4
 229 -535 100 -485 100 -355 c 4
 100 -231 229 -192 375 -192 c 4
 762 -192 1133 -198 1515 -198 c 4
 1658 -198 1794 -145 1794 -20 c 4
 1794 37 1744 107 1672 107 c 4
 1641 107 1597 81 1583 81 c 4
 1558 81 1545 93 1545 118 c 4
 1545 169 1681 190 1681 294 c 4
 1681 401 1580 471 1476 471 c 4
 1397 471 1307 417 1239 367 c 5
 1335 346 1420 269 1420 160 c 4
 1420 51 1335 -38 1226 -38 c 4
 1119 -38 1035 50 1035 157 c 4
 1035 198 1048 241 1073 287 c 5
 853 218 581 -13 349 -13 c 4
 226 -13 112 64 112 184 c 4
 112 315 238 395 365 395 c 4
 481 395 729 334 876 334 c 4
 1107 334 1334 448 1334 665 c 4
 1334 807 1216 942 1070 942 c 4
 928 942 804 807 809 673 c 6
 816 502 l 134
 816 479 796 470 781 470 c 132
 762 470 747 485 746 503 c 6
 737 680 l 5
 733 848 610 942 448 942 c 4
 388 942 333 918 285 888 c 5
 293 889 302 889 310 889 c 4
 425 889 527 796 527 672 c 4
 527 541 423 462 317 462 c 4
 189 462 100 572 100 699 c 4
 100 886 264 1012 452 1012 c 4
 616 1012 725 932 778 815 c 5
 832 919 928 1012 1073 1012 c 4
 1249 1012 1404 851 1404 677 c 4
 1404 619 1393 568 1371 522 c 5
 1407 533 1442 538 1476 538 c 4
 1621 538 1751 442 1751 292 c 4
 1751 250 1738 210 1712 171 c 5
 1790 152 1865 82 1865 -17 c 4
 1865 -190 1694 -268 1510 -268 c 4
 1148 -268 777 -262 407 -262 c 4
457 682 m 4
 457 762 392 820 311 820 c 4
 235 820 169 759 169 682 c 4
 169 589 250 533 321 533 c 4
 389 533 457 595 457 682 c 4
853 265 m 5
 746 266 474 325 370 325 c 4
 271 325 181 271 181 185 c 4
 181 107 265 56 340 56 c 4
 519 56 709 186 853 265 c 5
1350 162 m 4
 1350 260 1254 304 1170 304 c 5
 1127 254 1106 206 1106 161 c 4
 1106 93 1154 32 1225 32 c 4
 1297 32 1350 92 1350 162 c 4
EndSplineSet
LCarets2: 1 0
EndChar

StartChar: ch3r1
Encoding: 65626 -1 207
Width: 1777
GlyphClass: 3
LigCaretCntFixed: 1
Flags: HW
LayerCount: 2
Fore
SplineSet
320 455 m 0
 187 455 100 572 100 700 c 0
 100 887 265 1016 452 1016 c 0
 613 1016 729 936 787 827 c 1
 829 934 932 1016 1064 1016 c 0
 1261 1016 1424 863 1424 669 c 0
 1424 564 1373 475 1316 417 c 1
 1563 413 1727 184 1727 -45 c 0
 1727 -383 1453 -577 1112 -577 c 4
 951 -577 773 -537 773 -369 c 0
 773 -212 938 -151 1085 -151 c 0
 1242 -151 1418 -208 1418 -373 c 0
 1418 -398 1413 -425 1399 -451 c 1
 1530 -383 1658 -234 1658 -45 c 0
 1658 155 1522 342 1320 347 c 1
 1379 316 1434 253 1434 170 c 0
 1434 60 1347 -33 1238 -33 c 0
 1119 -33 1039 63 1039 170 c 0
 1039 205 1048 246 1066 280 c 1
 838 195 648 -9 349 -9 c 0
 228 -9 111 58 111 182 c 0
 111 317 243 375 375 375 c 0
 552 375 718 334 881 334 c 0
 1114 334 1354 432 1354 668 c 0
 1354 820 1223 946 1067 946 c 0
 908 946 827 831 832 670 c 2
 838 493 l 2
 839 471 821 459 803 459 c 0
 786 459 769 469 768 491 c 2
 763 629 l 2
 755 827 661 946 458 946 c 0
 385 946 312 921 264 882 c 1
 281 886 298 887 314 887 c 0
 435 887 529 792 529 671 c 0
 529 550 439 455 320 455 c 0
459 682 m 0
 459 762 394 818 312 818 c 0
 240 818 168 755 168 682 c 0
 168 590 238 526 324 526 c 0
 400 526 459 603 459 682 c 0
1237 38 m 0
 1308 38 1365 98 1365 170 c 0
 1365 258 1281 306 1192 306 c 0
 1188 306 1184 306 1180 306 c 1
 1139 276 1108 224 1108 170 c 0
 1108 101 1166 38 1237 38 c 0
383 305 m 0
 287 305 181 277 181 182 c 0
 181 100 267 60 350 60 c 0
 553 60 722 183 869 263 c 1
 702 264 547 305 383 305 c 0
1093 -221 m 0
 977 -221 844 -253 844 -367 c 0
 844 -485 991 -507 1112 -507 c 0
 1217 -507 1349 -476 1349 -370 c 0
 1349 -254 1209 -221 1093 -221 c 0
EndSplineSet
LCarets2: 1 0
EndChar

StartChar: ch3ch3
Encoding: 65627 -1 208
Width: 3081
GlyphClass: 3
LigCaretCntFixed: 1
Flags: HW
LayerCount: 2
Fore
SplineSet
2597 940 m 0
 2476 940 2351 825 2353 709 c 2
 2357 509 l 2
 2357 491 2342 474 2325 474 c 0
 2301 474 2288 485 2287 507 c 2
 2282 706 l 2
 2278 882 2171 946 2008 946 c 0
 1910 946 1827 921 1758 869 c 1
 1768 870 1778 870 1788 870 c 0
 1920 870 2025 764 2025 632 c 0
 2025 517 1941 412 1815 412 c 0
 1736 412 1674 445 1627 510 c 1
 1509 132 1158 -23 646 -23 c 0
 372 -23 124 -33 124 188 c 0
 124 315 252 381 374 381 c 0
 528 381 750 327 929 327 c 0
 1177 327 1425 437 1425 674 c 0
 1425 826 1309 937 1158 937 c 0
 1039 937 893 838 896 709 c 2
 900 509 l 2
 900 490 885 473 866 473 c 128
 847 473 831 489 830 507 c 2
 825 705 l 2
 821 881 734 946 531 946 c 0
 433 946 350 920 281 868 c 1
 291 869 300 870 310 870 c 0
 442 870 547 764 547 632 c 0
 547 517 463 411 337 411 c 0
 191 411 100 532 100 665 c 0
 100 890 311 1015 538 1015 c 0
 711 1015 829 959 874 848 c 1
 938 951 1031 1008 1166 1008 c 0
 1339 1008 1494 856 1494 679 c 0
 1494 403 1223 255 931 255 c 0
 750 255 571 310 387 310 c 0
 288 310 194 276 194 188 c 0
 194 36 402 48 664 48 c 0
 1164 48 1578 222 1578 671 c 0
 1578 886 1787 1015 2009 1015 c 0
 2145 1015 2285 961 2331 848 c 1
 2395 951 2475 1008 2611 1008 c 0
 2781 1008 2938 863 2938 685 c 0
 2938 557 2895 452 2784 371 c 1
 2877 350 2958 275 2958 171 c 0
 2958 54 2866 -36 2751 -36 c 0
 2629 -36 2534 60 2534 182 c 0
 2534 209 2539 237 2550 264 c 1
 2334 166 2127 -20 1848 -20 c 0
 1706 -20 1601 72 1601 173 c 0
 1601 301 1717 380 1873 380 c 0
 1985 380 2212 331 2381 331 c 0
 2640 331 2868 435 2868 679 c 0
 2868 825 2750 940 2597 940 c 0
1956 637 m 0
 1956 725 1878 801 1787 801 c 0
 1699 801 1646 749 1646 661 c 0
 1646 562 1731 482 1814 482 c 0
 1895 482 1956 544 1956 637 c 0
478 637 m 0
 478 725 401 800 310 800 c 0
 221 800 169 749 169 660 c 0
 169 561 253 481 336 481 c 0
 417 481 478 544 478 637 c 0
2389 261 m 1
 2294 261 1968 309 1877 309 c 0
 1774 309 1670 271 1670 180 c 0
 1670 92 1761 50 1854 50 c 0
 2088 50 2230 176 2389 261 c 1
2888 169 m 0
 2888 257 2809 309 2726 309 c 0
 2647 309 2604 259 2604 183 c 0
 2604 101 2667 34 2750 34 c 0
 2825 34 2888 98 2888 169 c 0
EndSplineSet
LCarets2: 2 0 0
EndChar

StartChar: ch3ch3u1
Encoding: 65628 -1 209
Width: 3261
GlyphClass: 3
LigCaretCntFixed: 1
Flags: HW
LayerCount: 2
Fore
SplineSet
2565 295 m 1
 2359 222 2073 -8 1851 -8 c 0
 1727 -8 1611 72 1611 194 c 0
 1611 328 1737 389 1867 389 c 0
 1983 389 2234 346 2382 346 c 0
 2612 346 2845 458 2845 679 c 0
 2845 829 2728 934 2579 934 c 0
 2435 934 2310 817 2315 681 c 1
 2317 502 l 130
 2317 490 2298 475 2285 475 c 0
 2261 475 2248 486 2247 508 c 2
 2243 687 l 1
 2235 857 2114 941 1954 941 c 0
 1903 941 1856 932 1815 913 c 1
 1935 913 2032 813 2032 694 c 0
 2032 568 1932 467 1817 467 c 0
 1729 467 1662 520 1628 584 c 1
 1530 133 1110 -8 565 -8 c 0
 317 -8 114 -1 114 192 c 0
 114 319 232 377 365 377 c 0
 550 377 691 329 875 329 c 0
 1115 329 1349 442 1349 667 c 0
 1349 811 1228 943 1080 943 c 0
 937 943 815 804 817 669 c 2
 820 490 l 130
 820 477 801 462 786 462 c 128
 767 462 751 477 750 495 c 2
 748 617 l 1
 740 821 665 943 452 943 c 0
 390 943 334 914 285 883 c 1
 296 884 307 885 318 885 c 0
 427 885 530 787 530 671 c 0
 530 558 439 453 324 453 c 0
 193 453 101 568 101 694 c 0
 101 882 266 1012 456 1012 c 0
 622 1012 732 928 785 810 c 1
 839 915 937 1012 1083 1012 c 0
 1264 1012 1417 855 1417 676 c 0
 1417 402 1161 258 874 258 c 0
 716 258 518 308 358 308 c 0
 266 308 184 272 184 192 c 0
 184 34 510 64 678 64 c 0
 1179 64 1484 261 1566 631 c 128
 1578 685 1591 726 1604 757 c 1
 1634 905 1781 1012 1950 1012 c 0
 2119 1012 2228 944 2283 822 c 1
 2337 927 2435 1004 2581 1004 c 0
 2767 1004 2915 867 2915 679 c 0
 2915 608 2893 541 2849 479 c 1
 2866 481 2883 482 2900 482 c 0
 3048 482 3162 398 3218 300 c 128
 3248 248 3261 192 3261 137 c 0
 3261 -182 2957 -267 2629 -269 c 2
 1868 -273 l 2
 1783 -273 1667 -269 1667 -359 c 0
 1667 -458 1810 -467 1958 -467 c 2
 3223 -469 l 2
 3242 -469 3258 -485 3258 -504 c 128
 3258 -519 3243 -539 3230 -539 c 130
 3222 -539 l 1
 1958 -537 l 2
 1781 -537 1600 -519 1600 -358 c 0
 1600 -245 1718 -201 1851 -201 c 2
 2628 -199 l 1
 2909 -197 3192 -135 3192 137 c 0
 3192 295 3057 414 2899 414 c 0
 2852 414 2804 403 2756 380 c 1
 2847 357 2927 283 2927 178 c 0
 2927 67 2842 -21 2732 -21 c 0
 2616 -21 2534 77 2534 180 c 0
 2534 217 2545 255 2565 295 c 1
1818 536 m 0
 1898 536 1962 612 1962 695 c 0
 1962 760 1901 843 1827 843 c 0
 1754 843 1668 796 1668 696 c 0
 1668 604 1748 536 1818 536 c 0
461 666 m 0
 461 747 396 816 314 816 c 0
 237 816 170 762 170 684 c 0
 170 589 252 525 324 525 c 0
 388 525 429 559 454 624 c 0
 459 638 461 652 461 666 c 0
2363 277 m 1
 2281 278 1959 318 1874 318 c 0
 1776 318 1680 282 1680 197 c 0
 1680 117 1764 61 1841 61 c 0
 2026 61 2215 197 2363 277 c 1
2857 177 m 0
 2857 268 2776 318 2688 318 c 0
 2629 318 2606 215 2606 182 c 0
 2606 114 2657 49 2730 49 c 0
 2802 49 2857 108 2857 177 c 0
EndSplineSet
LCarets2: 1 0
EndChar

StartChar: ch3ch3u2
Encoding: 65629 -1 210
Width: 3373
GlyphClass: 3
LigCaretCntFixed: 1
Flags: HW
LayerCount: 2
Fore
SplineSet
2578 292 m 5
 2365 226 2084 -11 1862 -11 c 4
 1740 -11 1626 70 1626 190 c 4
 1626 321 1751 382 1878 382 c 4
 1993 382 2237 340 2383 340 c 4
 2614 340 2837 452 2837 667 c 4
 2837 806 2723 940 2581 940 c 4
 2441 940 2320 814 2319 690 c 6
 2318 498 l 6
 2318 479 2301 464 2282 464 c 132
 2263 464 2248 480 2248 499 c 6
 2249 690 l 5
 2251 838 2120 943 1973 943 c 4
 1939 943 1868 920 1870 909 c 5
 1981 892 2074 794 2074 683 c 4
 2074 552 1971 457 1845 457 c 4
 1729 457 1648 548 1625 632 c 5
 1510 207 1241 -2 718 -2 c 4
 368 -2 113 -15 113 207 c 4
 113 349 264 399 400 399 c 4
 535 399 727 360 870 360 c 4
 1095 360 1324 468 1324 684 c 4
 1324 827 1212 943 1070 943 c 4
 927 943 822 825 808 698 c 5
 808 521 l 6
 808 502 792 486 773 486 c 132
 754 486 738 502 738 521 c 6
 737 688 l 5
 737 862 649 941 475 941 c 4
 411 941 355 925 307 902 c 5
 309 902 l 6
 426 902 527 807 527 684 c 4
 527 556 421 475 317 475 c 4
 193 475 101 581 101 704 c 4
 101 904 285 1011 472 1011 c 4
 631 1011 735 949 782 838 c 5
 838 934 933 1014 1062 1014 c 4
 1239 1014 1394 873 1394 697 c 4
 1394 426 1143 291 853 291 c 4
 712 291 468 329 381 329 c 4
 274 329 185 295 185 206 c 4
 185 44 540 68 720 68 c 4
 1172 68 1455 241 1545 602 c 4
 1572 716 1611 795 1660 841 c 5
 1716 927 1823 1011 1966 1011 c 4
 2129 1011 2238 927 2290 815 c 5
 2347 915 2442 1011 2573 1011 c 4
 2752 1011 2906 856 2906 679 c 4
 2906 622 2895 571 2874 526 c 5
 2909 537 2944 541 2977 541 c 4
 3121 541 3250 447 3250 298 c 4
 3250 256 3238 216 3212 178 c 5
 3291 160 3373 87 3373 -16 c 4
 3373 -199 3190 -272 2998 -272 c 6
 1837 -267 l 6
 1764 -267 1684 -281 1684 -347 c 4
 1684 -443 1823 -450 1967 -450 c 6
 3265 -452 l 6
 3284 -452 3300 -468 3300 -487 c 132
 3300 -502 3285 -522 3272 -522 c 134
 3265 -522 l 5
 1967 -520 l 6
 1773 -520 1615 -499 1615 -344 c 4
 1615 -245 1725 -195 1834 -195 c 6
 3009 -202 l 6
 3157 -202 3301 -151 3301 -20 c 4
 3301 40 3249 114 3174 114 c 4
 3162 114 3149 112 3136 109 c 5
 3111 95 3093 88 3082 88 c 132
 3060 88 3045 103 3045 125 c 4
 3045 144 3067 161 3109 174 c 5
 3145 197 3180 240 3180 299 c 4
 3180 405 3080 475 2977 475 c 4
 2898 475 2813 421 2744 372 c 5
 2839 351 2922 274 2922 166 c 4
 2922 58 2838 -30 2730 -30 c 4
 2624 -30 2540 58 2540 164 c 4
 2540 204 2553 247 2578 292 c 5
1846 527 m 4
 1932 527 2001 595 2001 681 c 4
 2001 774 1920 842 1833 842 c 4
 1753 842 1686 787 1686 699 c 4
 1686 605 1759 527 1846 527 c 4
457 682 m 4
 457 763 393 833 310 833 c 4
 235 833 172 782 172 705 c 4
 172 621 236 545 313 545 c 4
 385 545 457 601 457 682 c 4
2359 270 m 5
 2280 271 1969 311 1886 311 c 4
 1789 311 1695 277 1695 193 c 4
 1695 115 1777 57 1852 57 c 4
 2034 57 2214 192 2359 270 c 5
2852 168 m 4
 2852 265 2757 309 2675 309 c 5
 2632 259 2611 212 2611 168 c 4
 2611 101 2659 41 2729 41 c 4
 2800 41 2852 99 2852 168 c 4
EndSplineSet
LCarets2: 1 0
EndChar

StartChar: ch3ch3r1
Encoding: 65630 -1 211
Width: 3305
GlyphClass: 3
LigCaretCntFixed: 1
Flags: HW
LayerCount: 2
Fore
SplineSet
307 436 m 4
 174 436 86 551 86 680 c 4
 86 881 265 1015 465 1015 c 6
 466 1015 l 6
 616 1015 723 946 772 839 c 5
 825 932 932 1011 1067 1011 c 4
 1258 1011 1403 864 1403 675 c 4
 1403 389 1115 254 827 254 c 4
 668 254 519 287 364 287 c 4
 271 287 166 258 166 167 c 4
 166 68 278 39 378 39 c 6
 484 39 l 6
 656 39 826 42 985 73 c 4
 1346 144 1407 338 1547 634 c 4
 1577 699 1620 764 1678 809 c 5
 1733 928 1866 1012 2029 1012 c 4
 2183 1012 2292 946 2341 835 c 5
 2394 934 2509 1012 2637 1012 c 4
 2817 1012 2970 863 2970 681 c 4
 2970 565 2911 465 2829 396 c 5
 2844 398 2859 400 2875 400 c 4
 3104 400 3305 220 3305 -10 c 4
 3305 -280 3032 -464 2764 -464 c 4
 2626 -464 2456 -440 2456 -291 c 4
 2456 -155 2596 -132 2731 -132 c 4
 2859 -132 2997 -163 2997 -294 c 4
 2997 -309 2994 -323 2990 -337 c 5
 3109 -283 3235 -173 3235 -11 c 4
 3235 178 3070 324 2884 329 c 5
 2936 296 2983 233 2983 155 c 4
 2983 46 2896 -42 2786 -42 c 4
 2678 -42 2594 46 2594 155 c 4
 2594 208 2610 247 2633 281 c 5
 2391 204 2207 -13 1901 -13 c 4
 1780 -13 1663 54 1663 177 c 4
 1663 313 1799 370 1931 370 c 4
 2096 370 2254 336 2408 336 c 4
 2652 336 2900 443 2900 680 c 4
 2900 824 2779 942 2637 942 c 4
 2493 942 2374 822 2371 681 c 5
 2370 491 l 6
 2370 472 2354 456 2335 456 c 4
 2316 456 2300 472 2300 491 c 6
 2300 652 l 6
 2300 842 2218 942 2029 942 c 4
 1945 942 1862 913 1809 868 c 5
 1821 870 1835 871 1848 871 c 4
 1977 871 2077 780 2077 652 c 4
 2077 537 1989 449 1875 449 c 4
 1745 449 1657 557 1652 679 c 5
 1474 344 1448 92 999 5 c 4
 829 -28 658 -31 486 -31 c 4
 449 -31 412 -31 375 -31 c 4
 237 -31 96 26 96 166 c 4
 96 300 231 357 362 357 c 4
 525 357 679 325 831 325 c 4
 1079 325 1333 433 1333 675 c 4
 1333 824 1217 941 1067 941 c 4
 929 941 802 835 802 701 c 6
 803 478 l 6
 803 459 787 443 768 443 c 4
 749 443 733 459 733 478 c 6
 732 698 l 6
 731 856 631 945 466 945 c 4
 377 945 289 910 236 858 c 5
 255 863 275 866 295 866 c 4
 419 866 513 773 513 649 c 4
 513 530 425 436 307 436 c 4
2007 652 m 4
 2007 749 1930 798 1848 798 c 4
 1809 798 1769 787 1735 764 c 5
 1727 744 1722 717 1722 691 c 4
 1722 600 1782 519 1875 519 c 4
 1949 519 2007 576 2007 652 c 4
307 506 m 4
 385 506 443 569 443 648 c 4
 443 733 379 796 295 796 c 4
 226 796 156 749 156 680 c 4
 156 589 214 506 307 506 c 4
2403 266 m 4
 2242 266 2090 300 1934 300 c 4
 1840 300 1733 271 1733 178 c 4
 1733 95 1819 57 1902 57 c 4
 2109 57 2280 186 2430 266 c 5
 2421 266 2412 266 2403 266 c 4
2786 28 m 4
 2856 28 2912 84 2912 154 c 4
 2912 242 2838 294 2753 299 c 5
 2705 271 2664 222 2664 156 c 4
 2664 85 2716 28 2786 28 c 4
2703 -202 m 6
 2624 -202 2526 -214 2526 -290 c 4
 2526 -386 2663 -393 2761 -393 c 4
 2838 -393 2927 -370 2927 -294 c 4
 2927 -204 2805 -202 2711 -202 c 6
 2703 -202 l 6
EndSplineSet
LCarets2: 1 0
EndChar

StartChar: ch3nj
Encoding: 65631 -1 212
Width: 3865
GlyphClass: 3
LigCaretCntFixed: 1
Flags: HW
LayerCount: 2
Fore
SplineSet
2357 685 m 1
 2417 866 2571 1018 2804 1018 c 0
 2878 1018 2951 1001 3017 969 c 1
 3086 999 3160 1016 3235 1016 c 0
 3540 1016 3766 764 3766 460 c 0
 3766 251 3665 94 3539 -4 c 0
 3534 -8 3524 -12 3517 -12 c 0
 3498 -12 3482 4 3482 23 c 0
 3482 33 3488 45 3496 51 c 0
 3607 137 3696 275 3696 460 c 0
 3696 724 3500 946 3236 946 c 0
 3189 946 3141 937 3095 923 c 1
 3243 819 3344 629 3344 418 c 0
 3344 204 3223 -9 2999 -9 c 0
 2785 -9 2659 190 2659 399 c 0
 2659 629 2773 821 2937 926 c 1
 2894 941 2849 948 2804 948 c 0
 2499 948 2392 700 2392 388 c 2
 2392 25 l 2
 2392 6 2376 -10 2357 -10 c 0
 2338 -10 2322 5 2322 24 c 2
 2322 25 l 1
 2320 378 l 2
 2318 669 2241 942 1954 942 c 0
 1718 942 1601 709 1558 509 c 1
 1604 528 1660 542 1721 542 c 0
 1894 542 2034 427 2034 254 c 0
 2034 106 1923 -9 1777 -9 c 0
 1583 -9 1471 172 1471 366 c 2
 1471 380 l 1
 1370 307 1297 211 1188 135 c 0
 1030 24 858 -9 627 -9 c 0
 422 -9 107 -23 107 190 c 0
 107 315 230 368 353 368 c 0
 499 368 641 342 778 342 c 0
 1025 342 1277 444 1277 686 c 0
 1277 830 1169 945 1025 945 c 0
 858 945 781 811 779 649 c 2
 777 480 l 2
 776 461 761 446 742 446 c 0
 723 446 707 462 707 481 c 2
 709 650 l 2
 711 822 623 948 450 948 c 0
 354 948 270 899 222 834 c 1
 246 843 272 847 297 847 c 0
 415 847 504 758 504 640 c 0
 504 528 422 439 311 439 c 0
 181 439 100 554 100 679 c 0
 100 871 260 1018 450 1018 c 0
 596 1018 698 935 745 829 c 1
 790 931 884 1015 1025 1015 c 0
 1210 1015 1347 871 1347 687 c 0
 1347 400 1063 272 774 272 c 0
 631 272 496 298 356 298 c 0
 272 298 177 272 177 190 c 0
 177 42 479 61 627 61 c 0
 841 61 1006 93 1148 192 c 0
 1259 269 1355 395 1480 470 c 1
 1519 725 1661 1012 1954 1012 c 0
 2171 1012 2305 855 2357 685 c 1
3016 890 m 1
 2850 804 2730 623 2730 400 c 0
 2730 228 2825 61 2999 61 c 0
 3180 61 3274 243 3274 419 c 0
 3274 626 3168 804 3016 890 c 1
434 640 m 0
 434 719 376 777 297 777 c 0
 231 777 195 739 171 695 c 0
 171 690 170 685 170 680 c 0
 170 592 222 509 311 509 c 0
 382 509 434 568 434 640 c 0
1778 61 m 0
 1884 61 1963 146 1963 253 c 0
 1963 388 1855 472 1721 472 c 0
 1650 472 1596 452 1545 426 c 1
 1543 406 1541 386 1541 366 c 0
 1541 209 1624 61 1778 61 c 0
EndSplineSet
LCarets2: 2 0 0
EndChar

StartChar: ch3r3
Encoding: 65632 -1 213
Width: 2161
GlyphClass: 3
Flags: HW
LayerCount: 2
Fore
SplineSet
1734 414 m 4
 1919 414 2061 253 2061 63 c 4
 2061 -267 1765 -394 1436 -398 c 6
 1055 -403 l 5
 492 -403 100 -122 100 436 c 4
 100 639 160 834 270 1000 c 4
 275 1009 288 1016 298 1016 c 6
 299 1016 l 6
 318 1016 334 1000 334 981 c 4
 334 975 331 966 328 961 c 4
 226 807 170 625 170 436 c 4
 170 -84 532 -333 1057 -333 c 5
 1436 -328 l 6
 1725 -325 1991 -225 1991 62 c 4
 1991 213 1880 344 1734 344 c 6
 1721 344 l 5
 1785 312 1842 245 1842 156 c 4
 1842 47 1755 -44 1645 -44 c 4
 1536 -44 1452 46 1452 156 c 4
 1452 206 1466 246 1490 284 c 5
 1246 207 1060 -12 751 -12 c 4
 629 -12 511 56 511 180 c 4
 511 318 647 373 781 373 c 4
 950 373 1112 337 1269 337 c 4
 1509 337 1759 438 1759 681 c 4
 1759 825 1636 944 1491 944 c 4
 1349 944 1214 834 1220 694 c 6
 1228 496 l 6
 1228 477 1212 461 1193 461 c 4
 1175 461 1159 476 1158 494 c 6
 1149 692 l 5
 1132 847 1029 945 859 945 c 4
 787 945 715 920 667 883 c 5
 682 886 697 887 712 887 c 4
 838 887 931 793 931 668 c 4
 931 547 842 454 723 454 c 4
 590 454 500 567 500 696 c 4
 500 886 668 1015 859 1015 c 4
 1019 1015 1133 939 1186 826 c 5
 1240 934 1356 1014 1491 1014 c 4
 1674 1014 1829 862 1829 681 c 4
 1829 566 1770 473 1706 413 c 5
 1715 414 1725 414 1734 414 c 4
723 524 m 4
 802 524 861 587 861 668 c 4
 861 754 797 817 712 817 c 4
 640 817 571 769 571 696 c 4
 571 604 630 524 723 524 c 4
1264 267 m 6
 1099 267 944 303 783 303 c 4
 688 303 581 274 581 180 c 4
 581 97 668 58 752 58 c 4
 960 58 1130 187 1281 267 c 5
 1264 267 l 6
1644 26 m 4
 1715 26 1772 84 1772 155 c 4
 1772 247 1693 300 1602 302 c 5
 1561 272 1522 219 1522 156 c 4
 1522 84 1573 26 1644 26 c 4
EndSplineSet
LCarets2: 1 0
EndChar

StartChar: njch1
Encoding: 65639 -1 220
Width: 2660
GlyphClass: 3
LigCaretCntFixed: 1
Flags: HW
LayerCount: 2
Fore
SplineSet
482 65 m 0
 612 65 718 161 718 292 c 0
 718 413 620 507 499 507 c 0
 377 507 277 407 277 285 c 0
 277 170 367 65 482 65 c 0
1432 631 m 0
 1432 508 1510 396 1630 396 c 0
 1744 396 1822 503 1822 620 c 0
 1822 755 1727 865 1618 910 c 1
 1518 865 1432 770 1432 631 c 0
1470 1010 m 0
 1522 1010 1569 1002 1616 986 c 1
 1663 1003 1711 1012 1764 1012 c 0
 2028 1012 2223 788 2223 528 c 0
 2223 294 2082 139 1910 67 c 1
 2491 69 l 1
 2491 982 l 2
 2491 1001 2507 1017 2526 1017 c 0
 2545 1017 2561 1002 2561 982 c 2
 2561 35 l 2
 2561 16 2545 0 2526 -0 c 2
 1446 -7 l 2
 1411 -7 1378 -3 1378 30 c 0
 1378 49 1394 65 1413 65 c 2
 1561 66 l 1
 1876 67 2153 197 2153 528 c 0
 2153 749 1988 942 1765 942 c 0
 1748 942 1732 940 1715 938 c 1
 1813 874 1892 754 1892 622 c 0
 1892 466 1784 326 1629 326 c 0
 1469 326 1362 471 1362 632 c 0
 1362 773 1434 874 1522 936 c 1
 1505 938 1488 940 1470 940 c 0
 1194 940 1093 732 1093 451 c 0
 1093 312 1094 173 1094 34 c 0
 1094 15 1078 -1 1059 -1 c 0
 1040 -1 1024 14 1024 33 c 2
 1022 443 l 2
 1021 729 918 946 636 946 c 0
 368 946 170 708 170 441 c 0
 170 376 183 311 209 254 c 1
 208 264 207 274 207 285 c 0
 207 446 338 577 499 577 c 0
 659 577 788 453 788 292 c 0
 788 121 651 -6 482 -6 c 0
 241 -6 100 214 100 440 c 0
 100 746 327 1016 635 1016 c 0
 852 1016 997 884 1056 719 c 5
 1113 884 1256 1010 1470 1010 c 0
EndSplineSet
LCarets2: 2 0 0
EndChar

StartChar: njch1r1
Encoding: 65642 -1 223
Width: 2660
GlyphClass: 3
LigCaretCntFixed: 1
Flags: HW
LayerCount: 2
Fore
SplineSet
1991 -505 m 0
 2090 -504 2200 -475 2200 -376 c 0
 2200 -262 2061 -233 1949 -233 c 0
 1845 -233 1718 -268 1718 -373 c 0
 1718 -492 1870 -505 1991 -505 c 0
1948 -163 m 0
 2099 -163 2270 -218 2270 -377 c 0
 2270 -400 2265 -425 2253 -449 c 1
 2408 -363 2465 -211 2482 -1 c 1
 1446 -7 l 2
 1411 -7 1378 -3 1378 30 c 0
 1378 49 1394 65 1413 65 c 2
 1561 66 l 1
 1876 67 2153 197 2153 528 c 0
 2153 749 1988 942 1765 942 c 0
 1748 942 1732 940 1715 938 c 1
 1813 874 1892 754 1892 622 c 0
 1892 466 1784 326 1629 326 c 0
 1469 326 1362 471 1362 632 c 0
 1362 773 1434 874 1522 936 c 1
 1505 938 1488 940 1470 940 c 0
 1194 940 1093 732 1093 451 c 0
 1093 312 1094 173 1094 34 c 0
 1094 15 1078 -1 1059 -1 c 0
 1040 -1 1024 14 1024 33 c 2
 1022 443 l 2
 1021 729 918 946 636 946 c 0
 368 946 170 708 170 441 c 0
 170 376 183 311 209 254 c 1
 208 264 207 274 207 285 c 0
 207 446 338 577 499 577 c 0
 659 577 788 453 788 292 c 0
 788 121 651 -6 482 -6 c 0
 241 -6 100 214 100 440 c 0
 100 746 327 1016 635 1016 c 0
 852 1016 997 884 1056 719 c 1
 1113 884 1256 1010 1470 1010 c 0
 1522 1010 1569 1002 1616 986 c 1
 1663 1003 1711 1012 1764 1012 c 0
 2028 1012 2223 788 2223 528 c 0
 2223 294 2082 139 1910 67 c 1
 2489 69 l 1
 2491 982 l 2
 2491 1001 2507 1017 2526 1017 c 0
 2545 1017 2561 1002 2561 982 c 2
 2561 35 l 2
 2561 -349 2353 -575 1952 -575 c 4
 1805 -575 1648 -526 1648 -373 c 0
 1648 -223 1807 -163 1948 -163 c 0
1432 631 m 0
 1432 508 1510 396 1630 396 c 0
 1744 396 1822 503 1822 620 c 0
 1822 755 1727 865 1618 910 c 1
 1518 865 1432 770 1432 631 c 0
482 65 m 0
 612 65 718 161 718 292 c 0
 718 413 620 507 499 507 c 0
 377 507 277 407 277 285 c 0
 277 170 367 65 482 65 c 0
EndSplineSet
LCarets2: 1 0
EndChar

StartChar: njch3
Encoding: 65643 -1 224
Width: 2750
GlyphClass: 3
LigCaretCntFixed: 1
Flags: HW
LayerCount: 2
Fore
SplineSet
764 292 m 0
 764 125 624 -10 457 -10 c 0
 238 -10 100 193 100 426 c 0
 100 732 307 1013 626 1013 c 0
 842 1013 995 884 1058 707 c 1
 1113 870 1253 1011 1460 1011 c 0
 1505 1011 1549 1000 1593 984 c 1
 1639 1000 1684 1011 1728 1011 c 0
 1885 1011 1994 937 2044 832 c 1
 2092 934 2182 1011 2321 1011 c 0
 2499 1011 2646 860 2646 684 c 0
 2646 549 2584 452 2472 377 c 1
 2575 360 2650 293 2650 184 c 0
 2650 83 2568 -11 2460 -11 c 0
 2352 -11 2270 83 2270 184 c 0
 2270 215 2278 249 2296 281 c 1
 2096 195 1883 -10 1638 -10 c 0
 1515 -10 1399 61 1399 187 c 0
 1399 310 1527 377 1668 377 c 0
 1750 377 1958 352 2088 352 c 0
 2345 352 2577 447 2577 682 c 0
 2577 827 2457 940 2315 940 c 0
 2147 940 2078 814 2076 661 c 2
 2074 502 l 2
 2073 479 2062 468 2039 468 c 0
 2020 468 2004 484 2004 503 c 2
 2006 677 l 2
 2008 834 1903 940 1739 940 c 0
 1721 940 1702 937 1683 934 c 1
 1765 872 1809 790 1809 680 c 0
 1809 565 1724 447 1594 447 c 0
 1461 447 1370 557 1370 696 c 0
 1370 786 1434 881 1501 934 c 1
 1487 936 1472 940 1458 940 c 0
 1195 940 1096 714 1096 434 c 2
 1096 22 l 2
 1096 3 1079 -12 1061 -12 c 128
 1043 -12 1026 3 1026 22 c 2
 1024 430 l 1
 1024 725 910 943 630 943 c 0
 359 943 169 715 169 441 c 0
 169 427 170 412 171 398 c 1
 213 513 320 599 465 599 c 0
 630 599 764 450 764 292 c 0
1585 517 m 0
 1675 517 1739 595 1739 683 c 0
 1739 789 1686 864 1593 908 c 1
 1516 872 1444 795 1444 694 c 0
 1444 603 1501 517 1585 517 c 0
464 59 m 0
 594 59 693 173 693 291 c 0
 693 417 588 528 462 528 c 0
 337 528 222 428 222 300 c 0
 222 171 321 59 464 59 c 0
2341 184 m 0
 2341 119 2398 58 2460 58 c 0
 2524 58 2583 120 2583 184 c 0
 2583 253 2518 307 2452 307 c 128
 2394 307 2341 249 2341 184 c 0
2145 282 m 1
 2125 282 l 2
 2019 282 1752 306 1667 306 c 0
 1567 306 1470 273 1470 186 c 0
 1470 102 1554 60 1642 60 c 0
 1793 60 1960 176 2145 282 c 1
EndSplineSet
LCarets2: 2 0 0
EndChar

StartChar: njch3u1
Encoding: 65644 -1 225
Width: 3017
GlyphClass: 3
LigCaretCntFixed: 1
Flags: HW
LayerCount: 2
Fore
SplineSet
455 -9 m 0
 332 -9 266 46 194 134 c 128
 133 210 100 322 100 440 c 0
 100 760 321 1014 641 1014 c 0
 841 1014 1006 887 1069 712 c 1
 1120 864 1265 1013 1469 1013 c 0
 1515 1013 1562 1005 1610 987 c 1
 1657 1004 1702 1013 1747 1013 c 0
 1904 1013 2016 944 2066 839 c 1
 2114 942 2207 1013 2348 1013 c 0
 2528 1013 2676 867 2676 690 c 0
 2676 560 2616 465 2507 386 c 1
 2564 410 2620 423 2674 423 c 0
 2855 423 3017 292 3017 106 c 0
 3017 -194 2715 -257 2409 -260 c 1
 1799 -260 l 2
 1670 -260 1487 -254 1487 -355 c 0
 1487 -442 1642 -442 1764 -442 c 2
 2981 -445 l 2
 3001 -445 3016 -461 3016 -480 c 128
 3016 -499 3000 -515 2981 -515 c 0
 2575 -514 2169 -513 1763 -512 c 0
 1592 -512 1417 -505 1417 -353 c 0
 1417 -192 1624 -190 1802 -190 c 2
 2409 -190 l 1
 2687 -187 2947 -145 2947 105 c 0
 2947 251 2819 351 2675 351 c 0
 2647 351 2618 348 2588 340 c 1
 2646 305 2693 240 2693 160 c 0
 2693 55 2610 -33 2504 -33 c 0
 2397 -33 2325 44 2325 156 c 0
 2325 210 2344 254 2384 300 c 1
 2141 248 1910 -9 1656 -9 c 0
 1535 -9 1415 61 1415 182 c 0
 1415 316 1541 379 1690 379 c 0
 1771 379 1982 354 2112 354 c 0
 2372 354 2605 449 2605 688 c 0
 2605 835 2485 941 2340 941 c 0
 2169 941 2102 810 2099 632 c 1
 2096 506 l 2
 2095 483 2084 472 2061 472 c 0
 2042 472 2026 488 2026 507 c 2
 2028 683 l 1
 2028 842 1923 942 1756 942 c 0
 1738 942 1719 941 1700 938 c 1
 1777 880 1829 786 1829 689 c 0
 1829 565 1738 445 1611 445 c 0
 1476 445 1388 563 1388 691 c 0
 1388 803 1436 877 1518 938 c 1
 1503 940 1488 941 1473 941 c 0
 1208 941 1106 720 1106 438 c 2
 1107 22 l 2
 1107 3 1091 -12 1072 -12 c 128
 1053 -12 1037 3 1037 22 c 2
 1035 434 l 2
 1033 731 920 942 636 942 c 0
 358 942 169 721 169 441 c 0
 169 427 170 413 171 399 c 1
 213 516 322 604 468 604 c 0
 635 604 770 454 770 294 c 0
 770 122 628 -9 455 -9 c 0
1612 515 m 0
 1679 515 1759 586 1759 680 c 0
 1759 790 1706 866 1610 911 c 1
 1532 874 1456 794 1456 691 c 0
 1456 589 1524 515 1612 515 c 0
464 534 m 0
 333 534 222 429 222 302 c 0
 222 174 321 60 466 60 c 0
 597 60 701 165 701 299 c 0
 701 432 586 534 464 534 c 0
2166 284 m 1
 2147 284 l 2
 2040 284 1768 309 1684 309 c 0
 1582 309 1485 273 1485 186 c 0
 1485 113 1561 62 1648 62 c 0
 1839 62 2011 200 2166 284 c 1
2394 150 m 0
 2394 83 2437 37 2508 37 c 0
 2576 37 2623 96 2623 161 c 0
 2623 237 2564 287 2496 302 c 1
 2429 261 2394 214 2394 150 c 0
EndSplineSet
LCarets2: 1 0
EndChar

StartChar: njch3u2
Encoding: 65645 -1 226
Width: 3096
GlyphClass: 3
LigCaretCntFixed: 1
Flags: HW
LayerCount: 2
Fore
SplineSet
1402 685 m 4
 1402 798 1451 874 1534 936 c 5
 1518 938 1503 939 1487 939 c 4
 1217 939 1117 710 1117 424 c 6
 1117 34 l 6
 1117 16 1100 -1 1082 -1 c 132
 1064 -1 1047 14 1047 33 c 6
 1045 420 l 6
 1043 722 930 939 640 939 c 4
 362 939 169 718 169 438 c 4
 169 423 170 408 171 393 c 5
 171 391 l 5
 209 498 310 590 449 590 c 4
 622 590 760 466 760 289 c 4
 760 126 628 -10 465 -10 c 4
 242 -10 100 192 100 428 c 4
 100 735 316 1011 638 1011 c 4
 860 1011 1013 881 1079 700 c 5
 1132 862 1275 1010 1490 1010 c 4
 1535 1010 1580 1002 1626 985 c 5
 1673 1002 1720 1011 1765 1011 c 4
 1925 1011 2037 936 2087 829 c 5
 2135 934 2228 1009 2370 1009 c 4
 2550 1009 2702 854 2702 675 c 4
 2702 542 2638 444 2528 369 c 5
 2623 431 2710 463 2788 463 c 4
 2916 463 3035 371 3035 244 c 4
 3035 199 3020 154 2985 115 c 5
 3050 87 3096 30 3096 -57 c 4
 3096 -203 2944 -271 2778 -271 c 6
 1826 -266 l 6
 1691 -266 1502 -254 1502 -359 c 4
 1502 -463 1659 -463 1781 -463 c 6
 3053 -465 l 6
 3072 -465 3088 -481 3088 -500 c 132
 3088 -515 3072 -534 3059 -534 c 6
 1717 -532 l 5
 1559 -530 1432 -488 1432 -362 c 4
 1432 -196 1635 -196 1825 -196 c 5
 2797 -202 l 6
 2912 -202 3026 -152 3026 -52 c 4
 3026 10 2981 60 2917 60 c 4
 2905 60 2895 58 2880 58 c 132
 2868 58 2850 75 2850 88 c 4
 2850 109 2859 121 2876 126 c 4
 2924 140 2965 185 2965 245 c 4
 2965 340 2878 392 2777 392 c 4
 2728 392 2668 372 2599 331 c 5
 2669 296 2726 226 2726 135 c 4
 2726 29 2642 -62 2535 -62 c 4
 2430 -62 2353 15 2353 123 c 4
 2353 177 2378 232 2427 287 c 5
 2171 251 1935 -27 1672 -27 c 4
 1550 -27 1429 43 1429 165 c 4
 1429 302 1557 364 1708 364 c 4
 1789 364 2002 339 2132 339 c 4
 2396 339 2632 436 2632 678 c 4
 2632 828 2511 936 2364 936 c 4
 2191 936 2124 799 2119 620 c 5
 2117 493 l 6
 2116 470 2103 459 2078 459 c 4
 2062 459 2047 477 2047 494 c 4
 2048 556 2049 609 2049 672 c 4
 2049 834 1942 940 1772 940 c 4
 1754 940 1735 939 1716 936 c 5
 1794 877 1848 782 1848 684 c 4
 1848 559 1754 438 1627 438 c 4
 1491 438 1402 556 1402 685 c 4
1618 508 m 4
 1711 508 1776 589 1776 679 c 4
 1776 788 1721 864 1626 909 c 5
 1547 872 1473 795 1473 691 c 4
 1473 597 1532 508 1618 508 c 4
461 521 m 4
 333 521 223 422 223 298 c 4
 223 173 317 58 457 58 c 4
 591 58 690 156 690 289 c 4
 690 417 584 521 461 521 c 4
2188 270 m 5
 2167 270 l 6
 2059 270 1789 294 1702 294 c 4
 1600 294 1498 258 1498 170 c 4
 1498 97 1576 43 1664 43 c 4
 1852 43 2035 184 2188 270 c 5
2535 7 m 4
 2601 7 2656 68 2656 136 c 4
 2656 214 2594 266 2527 283 c 5
 2461 233 2425 184 2425 117 c 4
 2425 61 2470 7 2535 7 c 4
EndSplineSet
LCarets2: 1 0
EndChar

StartChar: njnj
Encoding: 65646 -1 227
Width: 3711
GlyphClass: 3
LigCaretCntFixed: 1
Flags: HW
LayerCount: 2
Fore
SplineSet
1303 398 m 0
 1303 616 1407 810 1560 912 c 1
 1514 928 1469 941 1426 941 c 0
 1175 941 1046 742 1044 489 c 2
 1041 27 l 2
 1041 8 1025 -7 1006 -7 c 0
 987 -7 971 9 971 28 c 2
 974 489 l 2
 976 737 860 941 614 941 c 0
 349 941 170 682 170 414 c 0
 170 373 175 333 185 294 c 1
 203 432 315 541 467 541 c 0
 619 541 746 413 746 264 c 0
 746 108 615 -16 458 -16 c 0
 231 -16 100 193 100 413 c 0
 100 720 309 1011 615 1011 c 0
 815 1011 956 874 1010 717 c 1
 1068 875 1211 1011 1420 1011 c 0
 1497 1011 1576 985 1637 956 c 1
 1704 988 1778 1010 1853 1010 c 0
 2056 1010 2198 885 2256 733 c 1
 2311 890 2452 1010 2656 1010 c 0
 2737 1010 2815 989 2886 953 c 1
 2958 989 3033 1012 3106 1012 c 0
 3391 1012 3612 752 3612 473 c 0
 3612 292 3529 113 3384 0 c 0
 3379 -4 3369 -8 3362 -8 c 0
 3343 -8 3327 8 3327 27 c 0
 3327 37 3333 49 3341 55 c 0
 3468 154 3542 314 3542 473 c 0
 3542 712 3354 943 3108 943 c 0
 3059 943 3010 928 2960 909 c 1
 3112 801 3215 611 3215 388 c 0
 3215 184 3098 -15 2888 -15 c 0
 2678 -15 2562 184 2562 388 c 0
 2562 611 2663 801 2813 909 c 1
 2762 929 2708 940 2654 940 c 0
 2410 940 2296 764 2296 517 c 1
 2304 25 l 2
 2304 6 2288 -10 2269 -10 c 0
 2250 -10 2235 5 2234 24 c 2
 2226 460 l 1
 2222 735 2122 940 1847 940 c 0
 1801 939 1756 927 1712 912 c 1
 1862 806 1959 616 1959 408 c 0
 1959 203 1844 -9 1629 -9 c 0
 1419 -9 1303 196 1303 398 c 0
1637 877 m 1
 1485 792 1373 614 1373 404 c 0
 1373 238 1457 62 1629 62 c 0
 1804 62 1889 243 1889 411 c 0
 1889 611 1786 791 1637 877 c 1
2886 873 m 1
 2736 783 2632 603 2632 389 c 0
 2632 223 2719 55 2888 55 c 0
 3057 55 3145 223 3145 389 c 0
 3145 605 3037 782 2886 873 c 1
459 55 m 0
 575 55 677 143 677 263 c 0
 677 375 584 471 467 471 c 0
 350 471 252 380 252 259 c 0
 252 134 338 55 459 55 c 0
EndSplineSet
LCarets2: 2 0 0
EndChar

StartChar: t1r1
Encoding: 65651 -1 232
Width: 1083
GlyphClass: 3
LigCaretCntFixed: 1
Flags: HW
LayerCount: 2
Fore
SplineSet
691 -10 m 1
 800 12 913 83 913 210 c 0
 913 293 859 349 804 384 c 0
 666 471 485 435 319 505 c 0
 232 541 139 623 137 740 c 1
 137 742 l 2
 137 945 354 1013 547 1013 c 0
 726 1013 857 948 925 829 c 0
 928 824 930 816 930 811 c 0
 930 792 914 776 895 776 c 0
 884 776 870 784 864 794 c 0
 808 893 698 943 546 943 c 0
 391 943 207 900 207 742 c 2
 207 741 l 2
 207 655 281 596 346 569 c 0
 507 502 696 534 841 443 c 0
 912 397 983 320 983 209 c 0
 983 -33 724 -95 495 -95 c 2
 390 -95 l 2
 252 -95 100 -54 100 92 c 0
 100 219 236 276 381 276 c 0
 544 276 718 204 718 79 c 0
 718 52 709 22 691 -10 c 1
644 75 m 0
 644 161 514 205 390 205 c 0
 279 205 170 170 170 92 c 0
 170 -9 288 -25 390 -25 c 2
 495 -25 l 2
 577 -25 644 -5 644 75 c 0
EndSplineSet
LCarets2: 1 0
EndChar

StartChar: t1t1
Encoding: 65652 -1 233
Width: 1150
GlyphClass: 3
LigCaretCntFixed: 1
Flags: HW
LayerCount: 2
Fore
SplineSet
154 719 m 0
 154 912 361 1011 567 1011 c 0
 760 1011 916 916 1006 812 c 0
 1012 805 1015 797 1015 788 c 128
 1015 769 998 754 979 754 c 128
 969 754 960 758 953 766 c 0
 857 878 724 940 554 940 c 0
 397 940 224 866 224 723 c 0
 224 564 408 525 599 525 c 0
 851 521 1044 454 1044 246 c 0
 1044 141 971 63 888 27 c 1
 980 -14 1050 -91 1050 -206 c 0
 1050 -414 778 -511 574 -511 c 0
 364 -511 201 -408 108 -288 c 0
 103 -281 100 -274 100 -265 c 128
 100 -247 117 -231 136 -231 c 128
 146 -231 156 -236 163 -245 c 0
 264 -375 404 -443 581 -443 c 0
 752 -443 979 -356 979 -200 c 0
 979 -45 826 -4 662 -4 c 2
 212 -4 l 1
 189 -3 179 8 179 31 c 0
 179 56 193 66 206 66 c 130
 693 71 l 1
 848 71 976 107 976 252 c 0
 976 410 800 452 610 454 c 128
 361 456 154 507 154 719 c 0
EndSplineSet
LCarets2: 2 0 0
EndChar

StartChar: t1r3
Encoding: 65655 -1 236
Width: 1447
GlyphClass: 3
Flags: HW
LayerCount: 2
Fore
SplineSet
272 1012 m 128
 292 1012 309 997 309 978 c 128
 309 969 306 961 300 954 c 0
 228 870 170 745 170 600 c 0
 170 224 477 32 864 32 c 0
 1067 32 1278 75 1278 250 c 0
 1278 397 1139 465 903 466 c 0
 660 467 444 512 444 734 c 0
 444 911 640 1012 869 1012 c 0
 1054 1012 1195 954 1292 827 c 0
 1297 820 1300 813 1300 804 c 128
 1300 785 1283 770 1263 770 c 128
 1252 770 1244 775 1237 784 c 0
 1154 893 1028 942 861 942 c 0
 681 942 514 868 514 733 c 0
 514 557 708 538 917 536 c 128
 1151 534 1348 457 1348 250 c 0
 1348 32 1109 -37 878 -37 c 0
 439 -37 100 176 100 600 c 0
 100 766 164 902 247 999 c 0
 254 1008 262 1012 272 1012 c 128
EndSplineSet
LCarets2: 1 0
EndChar

StartChar: t3t4
Encoding: 65666 -1 247
Width: 2512
GlyphClass: 3
LigCaretCntFixed: 1
Flags: HW
LayerCount: 2
Fore
SplineSet
1244 -421 m 4
 1244 -540 1295 -656 1411 -656 c 4
 1573 -656 1598 -455 1600 -294 c 6
 1605 -15 l 6
 1605 1 1619 14 1635 14 c 4
 1652 14 1665 1 1665 -16 c 4
 1663 -116 1660 -216 1660 -316 c 4
 1660 -522 1746 -662 1951 -662 c 4
 2143 -662 2289 -526 2325 -366 c 5
 2285 -427 2208 -471 2126 -471 c 4
 1995 -471 1888 -363 1888 -233 c 4
 1888 -94 2004 5 2129 5 c 4
 2285 5 2393 -135 2393 -295 c 4
 2393 -539 2190 -721 1947 -721 c 4
 1794 -721 1683 -638 1633 -525 c 5
 1616 -617 1528 -716 1409 -716 c 4
 1264 -716 1185 -579 1185 -432 c 4
 1185 -387 1189 -343 1189 -300 c 4
 1189 -134 1075 -46 929 -46 c 4
 755 -46 625 -189 625 -352 c 4
 625 -522 768 -657 940 -657 c 4
 957 -657 970 -670 970 -687 c 4
 970 -709 952 -717 930 -717 c 4
 732 -717 565 -550 565 -353 c 4
 565 -159 721 16 930 16 c 4
 1117 16 1249 -104 1249 -293 c 4
 1249 -335 1244 -378 1244 -421 c 4
2304 -233 m 4
 2304 -137 2229 -57 2126 -57 c 4
 2025 -57 1949 -136 1949 -233 c 4
 1949 -332 2032 -411 2128 -411 c 4
 2225 -411 2304 -327 2304 -233 c 4
EndSplineSet
Refer: 69 3361 N 1 0 0 1 -0 9 2
LCarets2: 2 0 0
EndChar

StartChar: t3r3
Encoding: 65669 -1 250
Width: 3092
GlyphClass: 3
Flags: HW
LayerCount: 2
Fore
SplineSet
600 509 m 0
 600 789 818 1012 1088 1012 c 0
 1368 1012 1515 812 1515 531 c 0
 1515 490 1514 449 1514 410 c 0
 1514 240 1563 59 1729 59 c 0
 1954 59 1986 332 1986 551 c 2
 1986 978 l 2
 1986 997 2002 1013 2021 1013 c 0
 2040 1013 2056 997 2056 978 c 2
 2058 513 l 1
 2058 259 2229 55 2481 55 c 0
 2719 55 2913 254 2913 493 c 0
 2913 739 2708 941 2466 941 c 0
 2445 941 2428 955 2428 976 c 0
 2428 997 2445 1011 2466 1011 c 0
 2794 1011 2993 740 2993 403 c 0
 2993 -144 2614 -492 2041 -496 c 2
 1332 -500 l 1
 670 -500 100 -233 100 431 c 0
 100 655 177 841 309 995 c 0
 315 1002 326 1008 335 1008 c 0
 354 1008 370 992 370 973 c 0
 370 966 367 955 362 950 c 0
 241 809 170 636 170 431 c 0
 170 -193 708 -430 1335 -430 c 1
 2041 -426 l 1
 2530 -422 2816 -187 2903 218 c 1
 2820 87 2659 -15 2481 -15 c 0
 2283 -15 2107 111 2033 272 c 1
 1997 134 1901 -11 1730 -11 c 0
 1518 -11 1443 200 1443 411 c 0
 1443 452 1445 493 1445 532 c 0
 1445 775 1327 942 1087 942 c 0
 855 942 670 749 670 508 c 0
 670 272 838 102 1035 59 c 0
 1051 56 1063 41 1063 25 c 0
 1063 6 1047 -10 1028 -10 c 2
 1020 -10 l 1
 793 39 600 237 600 509 c 0
EndSplineSet
Colour: ffffff
EndChar

StartChar: t4r1
Encoding: 65674 -1 255
Width: 2568
GlyphClass: 3
LigCaretCntFixed: 1
Flags: HW
LayerCount: 2
Fore
SplineSet
1478 241 m 1
 1442 119 1349 -12 1195 -12 c 0
 992 -12 911 192 911 397 c 0
 911 442 913 486 913 529 c 0
 913 761 778 938 552 938 c 0
 337 938 170 744 170 523 c 0
 170 277 356 89 573 57 c 0
 590 55 603 39 603 22 c 0
 603 -2 584 -12 563 -12 c 0
 313 25 100 241 100 523 c 0
 100 783 298 1008 552 1008 c 0
 822 1008 985 794 985 518 c 0
 985 471 982 426 982 382 c 0
 982 223 1041 58 1195 58 c 0
 1409 58 1434 324 1438 534 c 1
 1444 976 l 2
 1445 994 1460 1010 1479 1010 c 0
 1498 1010 1514 994 1514 975 c 0
 1512 814 1507 654 1507 493 c 0
 1507 234 1622 50 1879 50 c 0
 2137 50 2319 244 2375 454 c 0
 2384 488 2390 524 2392 559 c 1
 2346 452 2231 366 2099 366 c 0
 1926 366 1779 511 1779 687 c 0
 1779 862 1922 1007 2101 1007 c 0
 2408 1007 2464 730 2468 424 c 1
 2468 -146 2201 -558 1624 -558 c 1
 1604 -560 1583 -560 1563 -560 c 0
 1381 -560 1208 -495 1208 -323 c 0
 1208 -146 1392 -77 1557 -77 c 0
 1727 -77 1921 -143 1921 -327 c 0
 1921 -387 1896 -431 1863 -466 c 1
 2188 -391 2370 -60 2395 311 c 1
 2306 135 2123 -20 1879 -20 c 0
 1676 -20 1540 92 1478 241 c 1
2099 936 m 0
 1960 936 1849 825 1849 688 c 0
 1849 550 1964 436 2099 436 c 0
 2235 436 2349 550 2349 686 c 2
 2349 687 l 2
 2349 822 2235 936 2099 936 c 0
1558 -147 m 0
 1429 -147 1278 -192 1278 -324 c 0
 1278 -477 1467 -486 1621 -488 c 1
 1730 -483 1851 -440 1851 -327 c 0
 1851 -189 1692 -147 1558 -147 c 0
EndSplineSet
LCarets2: 1 0
EndChar

StartChar: t4r3
Encoding: 65675 -1 256
Width: 2910
GlyphClass: 3
LigCaretCntFixed: 1
Flags: HW
LayerCount: 2
Fore
SplineSet
2149 704 m 0
 2149 871 2286 1011 2458 1011 c 0
 2751 1011 2810 747 2810 452 c 0
 2810 -125 2497 -478 1904 -485 c 1
 1215 -489 l 1
 576 -489 100 -197 100 429 c 0
 100 670 176 844 300 997 c 0
 306 1004 317 1010 327 1010 c 0
 346 1010 362 994 362 975 c 0
 362 968 358 958 354 953 c 0
 241 811 170 651 170 429 c 0
 170 -156 618 -419 1217 -419 c 1
 1904 -415 l 2
 2418 -412 2662 -151 2728 292 c 1
 2637 129 2462 -12 2232 -12 c 0
 2032 -12 1898 98 1836 244 c 1
 1801 122 1711 -11 1558 -11 c 0
 1350 -11 1281 198 1281 401 c 0
 1281 444 1283 485 1283 525 c 0
 1283 754 1164 938 939 938 c 0
 714 938 570 740 570 528 c 0
 570 286 740 107 937 56 c 0
 952 52 964 37 964 22 c 0
 964 3 948 -13 929 -13 c 4
 926 -13 923 -13 920 -12 c 0
 695 46 500 253 500 529 c 0
 500 777 673 1008 939 1008 c 0
 1209 1008 1354 789 1354 516 c 0
 1354 471 1352 428 1352 385 c 0
 1352 229 1401 59 1557 59 c 0
 1771 59 1790 331 1794 540 c 1
 1800 974 l 2
 1801 993 1816 1008 1835 1008 c 0
 1854 1008 1870 992 1870 973 c 2
 1864 498 l 1
 1864 241 1977 58 2232 58 c 0
 2521 58 2740 307 2740 598 c 0
 2740 599 2740 600 2740 601 c 1
 2701 490 2588 399 2454 399 c 0
 2289 399 2149 536 2149 704 c 0
2219 705 m 0
 2219 575 2326 469 2453 469 c 0
 2581 469 2687 575 2687 703 c 0
 2687 874 2589 945 2457 945 c 0
 2322 945 2219 834 2219 705 c 0
EndSplineSet
LCarets2: 1 0
EndChar

StartChar: nhu1
Encoding: 65678 -1 259
Width: 2780
GlyphClass: 3
LigCaretCntFixed: 1
Flags: HW
LayerCount: 2
Fore
SplineSet
1081 -7 m 0
 1058 -7 1046 13 1046 29 c 2
 1048 525 l 2
 1048 758 858 945 631 945 c 0
 370 945 170 712 170 451 c 2
 170 437 l 1
 219 539 320 623 465 623 c 0
 647 623 788 484 788 304 c 0
 788 131 656 -5 481 -5 c 0
 239 -5 100 211 100 451 c 0
 100 748 330 1015 629 1015 c 0
 833 1015 1003 890 1076 725 c 1
 1114 867 1220 1008 1395 1008 c 0
 1569 1008 1675 869 1712 727 c 1
 1785 884 1957 1011 2159 1011 c 0
 2459 1011 2680 752 2680 453 c 0
 2680 216 2540 -2 2298 -2 c 0
 2122 -2 1990 134 1990 308 c 0
 1990 486 2130 625 2310 625 c 0
 2460 625 2563 535 2609 425 c 1
 2610 434 2610 443 2610 453 c 0
 2610 713 2420 941 2160 941 c 0
 1911 941 1735 740 1735 497 c 2
 1735 25 l 2
 1735 6 1719 -10 1700 -10 c 0
 1681 -10 1665 6 1665 25 c 2
 1664 486 l 2
 1664 701 1614 938 1395 938 c 0
 1172 938 1123 691 1121 473 c 2
 1116 29 l 2
 1116 10 1100 -7 1081 -7 c 0
2060 308 m 0
 2060 174 2162 68 2298 68 c 0
 2433 68 2564 164 2564 302 c 0
 2564 447 2455 555 2310 555 c 0
 2170 555 2060 446 2060 308 c 0
718 305 m 0
 718 444 606 553 465 553 c 0
 317 553 208 444 208 297 c 0
 208 167 352 65 481 65 c 0
 616 65 718 171 718 305 c 0
EndSplineSet
LCarets2: 1 0
EndChar

StartChar: nhu2
Encoding: 65679 -1 260
Width: 3021
GlyphClass: 3
LigCaretCntFixed: 1
Flags: HW
LayerCount: 2
Fore
SplineSet
470 624 m 0
 650 624 791 484 791 306 c 0
 791 133 658 -3 483 -3 c 0
 239 -3 100 215 100 456 c 0
 100 756 321 1018 622 1018 c 0
 824 1018 991 894 1065 740 c 1
 1102 881 1208 1015 1381 1015 c 0
 1553 1015 1658 884 1696 746 c 1
 1767 896 1934 1016 2125 1016 c 0
 2371 1016 2551 838 2618 635 c 1
 2815 573 2971 394 2971 143 c 0
 2971 -160 2741 -389 2439 -389 c 0
 2294 -389 2183 -339 2089 -257 c 0
 2082 -251 2077 -239 2077 -230 c 0
 2077 -211 2093 -195 2112 -195 c 0
 2119 -195 2129 -199 2135 -204 c 0
 2216 -275 2314 -319 2439 -319 c 0
 2702 -319 2901 -119 2901 144 c 0
 2901 345 2784 489 2639 552 c 1
 2647 510 2651 468 2651 427 c 0
 2651 195 2528 -10 2303 -10 c 0
 2143 -10 2031 114 2031 273 c 0
 2031 505 2244 658 2470 658 c 0
 2492 658 2514 656 2536 653 c 1
 2471 810 2321 946 2126 946 c 0
 1903 946 1719 762 1719 541 c 0
 1719 533 1720 524 1720 516 c 2
 1719 26 l 2
 1719 7 1703 -9 1684 -9 c 0
 1665 -9 1649 7 1649 26 c 2
 1648 517 l 2
 1648 734 1594 945 1381 945 c 0
 1165 945 1113 717 1113 505 c 2
 1112 29 l 2
 1112 10 1096 -5 1077 -5 c 0
 1058 -5 1042 10 1042 29 c 2
 1043 505 l 2
 1043 752 868 948 621 948 c 0
 360 948 170 717 170 456 c 0
 170 446 170 436 171 427 c 1
 218 535 321 624 470 624 c 0
2562 578 m 1
 2532 585 2503 588 2471 588 c 0
 2285 588 2101 463 2101 273 c 0
 2101 152 2182 60 2303 60 c 0
 2488 60 2581 238 2581 429 c 0
 2581 479 2575 529 2562 578 c 1
721 306 m 0
 721 444 610 554 470 554 c 0
 324 554 215 445 215 300 c 0
 215 164 350 67 483 67 c 0
 618 67 721 172 721 306 c 0
EndSplineSet
LCarets2: 1 3
EndChar

StartChar: nht1
Encoding: 65680 -1 261
Width: 2576
GlyphClass: 3
LigCaretCntFixed: 1
Flags: HW
LayerCount: 2
Fore
SplineSet
2142 942 m 0
 1831 942 1700 712 1702 398 c 2
 1704 21 l 2
 1704 2 1688 -13 1669 -13 c 0
 1650 -13 1634 2 1634 21 c 2
 1632 371 l 2
 1631 625 1588 941 1332 941 c 0
 1084 941 1033 641 1036 396 c 2
 1040 19 l 2
 1040 0 1024 -16 1005 -16 c 0
 986 -16 971 -1 970 18 c 2
 965 389 l 2
 961 679 869 940 581 940 c 0
 323 940 172 691 172 447 c 0
 172 426 174 405 176 383 c 1
 222 489 331 552 442 552 c 0
 593 552 724 421 724 267 c 0
 724 121 604 -13 456 -13 c 0
 222 -13 100 217 100 445 c 0
 100 731 283 1012 581 1012 c 0
 796 1012 935 860 993 697 c 1
 1034 847 1147 1012 1332 1012 c 0
 1520 1012 1632 842 1673 689 c 1
 1741 868 1903 1011 2140 1012 c 0
 2301 1012 2471 920 2471 750 c 0
 2471 618 2370 558 2239 556 c 1
 2213 556 l 1
 2142 555 2077 534 2077 465 c 0
 2077 378 2148 351 2239 350 c 1
 2276 350 l 1
 2379 349 2476 300 2476 197 c 0
 2476 44 2332 -19 2194 -19 c 0
 2117 -19 2037 0 1972 36 c 0
 1962 41 1953 55 1953 67 c 0
 1953 86 1969 102 1988 102 c 0
 1993 102 2002 100 2006 97 c 0
 2059 68 2129 51 2196 51 c 0
 2297 51 2405 90 2405 195 c 0
 2405 256 2346 279 2275 280 c 1
 2238 280 l 1
 2121 281 2004 338 2004 449 c 0
 2004 570 2093 624 2212 626 c 1
 2238 626 l 1
 2330 627 2401 656 2401 747 c 0
 2401 881 2272 942 2142 942 c 0
448 56 m 0
 562 56 653 155 653 262 c 0
 653 374 567 484 438 484 c 0
 325 484 221 389 221 269 c 0
 221 140 332 56 448 56 c 0
EndSplineSet
LCarets2: 2 0 0
EndChar

StartChar: nht3
Encoding: 65684 -1 265
Width: 3884
GlyphClass: 3
LigCaretCntFixed: 1
Flags: HW
LayerCount: 2
Fore
SplineSet
2879 250 m 1
 2842 115 2748 -16 2590 -16 c 0
 2368 -16 2302 183 2295 408 c 1
 2292 528 l 2
 2286 763 2223 946 2036 946 c 0
 1796 946 1754 672 1754 420 c 1
 1756 24 l 2
 1756 7 1740 -11 1723 -11 c 0
 1698 -11 1686 1 1686 24 c 2
 1683 393 l 2
 1681 673 1632 948 1370 948 c 0
 1158 948 1072 733 1063 509 c 1
 1067 25 l 2
 1067 9 1052 -10 1037 -10 c 0
 1011 -10 998 2 997 25 c 2
 993 511 l 1
 979 748 855 947 602 947 c 0
 341 947 169 707 169 459 c 0
 169 440 170 421 172 402 c 1
 209 490 315 584 439 584 c 0
 616 584 740 441 740 290 c 0
 740 123 613 -6 445 -6 c 0
 227 -6 100 218 100 453 c 0
 100 747 298 1017 601 1017 c 0
 821 1017 963 884 1024 720 c 1
 1072 876 1191 1019 1372 1019 c 0
 1548 1019 1666 880 1715 731 c 1
 1758 871 1868 1016 2028 1016 c 0
 2272 1016 2355 788 2362 530 c 2
 2365 410 l 2
 2370 226 2410 55 2590 55 c 0
 2641 55 2689 77 2726 113 c 0
 2807 194 2835 342 2835 534 c 0
 2835 684 2835 834 2835 984 c 0
 2835 1001 2851 1018 2868 1018 c 0
 2893 1018 2905 1007 2905 984 c 2
 2905 552 l 2
 2905 274 2997 54 3276 54 c 0
 3517 54 3714 253 3714 487 c 0
 3714 747 3522 949 3260 949 c 0
 3216 949 3142 923 3142 976 c 128
 3142 1019 3184 1019 3261 1019 c 0
 3554 1019 3784 794 3784 503 c 0
 3784 214 3577 -17 3277 -17 c 0
 3075 -17 2942 98 2879 250 c 1
452 64 m 0
 574 64 670 164 670 288 c 0
 670 413 563 512 443 512 c 0
 309 512 218 410 218 273 c 0
 218 137 351 64 452 64 c 0
EndSplineSet
LCarets2: 2 0 0
EndChar

StartChar: nhm1
Encoding: 65690 -1 271
Width: 2986
GlyphClass: 3
LigCaretCntFixed: 1
Flags: HW
LayerCount: 2
Fore
SplineSet
1116 700 m 1
 1164 862 1291 1009 1490 1009 c 0
 1689 1009 1809 868 1850 705 c 1
 1933 883 2123 1006 2329 1006 c 0
 2657 1006 2883 742 2883 408 c 1
 2886 30 l 2
 2886 10 2871 -5 2851 -5 c 2
 1837 -5 l 2
 1817 -5 1803 11 1802 30 c 0
 1801 203 1799 362 1799 533 c 0
 1798 759 1705 938 1492 938 c 0
 1229 938 1157 697 1157 423 c 2
 1156 17 l 2
 1156 -2 1139 -18 1120 -18 c 128
 1101 -18 1086 -3 1086 16 c 2
 1085 504 l 1
 1085 505 l 1
 1089 753 898 940 650 940 c 0
 362 940 171 694 171 415 c 0
 171 388 173 362 177 337 c 1
 208 461 312 559 461 559 c 0
 625 559 753 427 753 266 c 0
 753 107 629 -11 465 -11 c 0
 234 -11 101 193 101 413 c 0
 101 733 327 1012 653 1012 c 0
 884 1012 1047 865 1116 700 c 1
2491 681 m 0
 2491 809 2402 928 2265 928 c 0
 2046 928 1878 710 1870 497 c 1
 1872 354 1871 209 1872 65 c 1
 1942 65 l 2
 2204 65 2491 359 2491 681 c 0
2466 914 m 1
 2529 851 2561 770 2561 670 c 0
 2561 386 2335 166 2140 65 c 1
 2816 65 l 1
 2812 437 l 1
 2812 683 2643 857 2466 914 c 1
684 266 m 0
 684 386 587 490 465 490 c 0
 339 490 237 392 237 267 c 0
 237 139 333 59 464 59 c 0
 587 59 684 145 684 266 c 0
EndSplineSet
LCarets2: 2 0 0
EndChar

StartChar: th1u1
Encoding: 65693 -1 274
Width: 1797
GlyphClass: 3
LigCaretCntFixed: 1
Flags: HW
LayerCount: 2
Fore
SplineSet
556 400 m 0
 556 609 656 815 805 916 c 1
 752 933 699 942 648 942 c 0
 386 942 184 725 184 455 c 0
 184 268 304 121 440 57 c 0
 453 51 460 42 460 29 c 128
 460 8 447 -10 428 -10 c 128
 421 -10 414 -9 409 -7 c 0
 251 69 114 237 114 455 c 0
 114 760 354 1011 653 1011 c 0
 728 1011 806 995 884 961 c 1
 958 995 1030 1010 1100 1010 c 0
 1465 1010 1696 742 1696 382 c 0
 1696 11 1458 -266 1073 -258 c 1
 400 -247 l 2
 285 -245 169 -258 169 -341 c 0
 169 -437 286 -458 435 -458 c 2
 1662 -459 l 2
 1682 -459 1698 -475 1698 -494 c 128
 1698 -513 1682 -529 1663 -529 c 2
 421 -528 l 2
 252 -528 100 -487 100 -346 c 0
 100 -208 238 -174 389 -177 c 2
 1078 -189 l 1
 1412 -196 1627 51 1627 370 c 0
 1627 698 1435 940 1105 940 c 0
 1058 940 1012 933 965 917 c 1
 1133 807 1236 637 1236 400 c 0
 1236 192 1095 -9 899 -9 c 0
 682 -9 556 188 556 400 c 0
885 882 m 1
 735 800 627 619 627 400 c 0
 627 225 722 60 905 60 c 0
 1064 60 1166 241 1166 400 c 0
 1166 624 1048 796 885 882 c 1
EndSplineSet
LCarets2: 1 0
EndChar

StartChar: th1u2
Encoding: 65694 -1 275
Width: 1754
GlyphClass: 3
LigCaretCntFixed: 1
Flags: HW
LayerCount: 2
Fore
SplineSet
611 1013 m 0
 703 1013 786 988 863 944 c 1
 947 986 1041 1010 1135 1010 c 0
 1357 1010 1568 877 1568 654 c 0
 1568 547 1509 456 1439 407 c 1
 1533 362 1614 260 1614 130 c 0
 1614 -110 1403 -198 1171 -198 c 1
 1171 -197 819 -196 385 -196 c 1
 384 -195 l 1
 293 -195 170 -205 170 -295 c 0
 170 -379 285 -389 369 -389 c 2
 1619 -382 l 2
 1638 -382 1654 -398 1654 -417 c 0
 1654 -436 1638 -452 1619 -452 c 2
 371 -459 l 2
 242 -459 100 -428 100 -295 c 0
 100 -156 252 -125 386 -125 c 2
 1171 -128 l 2
 1367 -128 1543 -68 1543 129 c 0
 1543 256 1448 350 1339 364 c 0
 1322 366 1308 382 1308 399 c 0
 1308 413 1319 428 1333 432 c 0
 1421 458 1498 543 1498 655 c 0
 1498 835 1318 940 1136 940 c 0
 1066 940 996 926 931 899 c 1
 1071 789 1161 601 1161 399 c 0
 1161 197 1050 -9 838 -9 c 0
 634 -9 521 185 521 381 c 0
 521 601 633 792 792 902 c 1
 735 928 672 943 610 943 c 0
 367 943 176 730 176 484 c 0
 176 285 291 132 425 55 c 0
 435 49 443 35 443 24 c 0
 443 5 427 -11 408 -11 c 0
 403 -11 395 -9 390 -6 c 0
 236 82 106 256 106 484 c 0
 106 768 329 1013 611 1013 c 0
861 863 m 1
 706 771 591 590 591 382 c 0
 591 224 676 61 838 61 c 0
 1008 61 1091 235 1091 400 c 0
 1091 595 998 770 861 863 c 1
EndSplineSet
LCarets2: 1 0
EndChar

StartChar: th1r1
Encoding: 65695 -1 276
Width: 1832
GlyphClass: 3
LigCaretCntFixed: 1
Flags: HW
LayerCount: 2
Fore
SplineSet
892 955 m 1
 965 990 1045 1012 1130 1012 c 0
 1508 1012 1733 681 1733 301 c 0
 1733 -191 1358 -570 851 -570 c 0
 685 -570 504 -531 504 -358 c 0
 504 -201 672 -139 819 -139 c 0
 975 -139 1158 -194 1158 -361 c 0
 1158 -398 1148 -425 1133 -452 c 1
 1405 -354 1662 -63 1662 303 c 0
 1662 642 1467 941 1132 941 c 0
 1077 941 1022 931 970 912 c 1
 1134 802 1249 639 1249 402 c 0
 1249 189 1121 -12 903 -12 c 0
 680 -12 551 194 551 410 c 0
 551 637 656 800 816 911 c 1
 758 932 700 941 645 941 c 0
 386 941 170 755 170 488 c 0
 170 276 301 117 457 51 c 0
 472 45 478 33 478 21 c 0
 478 3 465 -16 445 -16 c 0
 440 -16 435 -15 430 -13 c 0
 252 64 100 245 100 489 c 0
 100 795 353 1011 648 1011 c 0
 728 1011 810 993 892 955 c 1
893 877 m 1
 732 786 621 628 621 410 c 0
 621 232 720 58 902 58 c 0
 1080 58 1179 228 1179 403 c 0
 1179 629 1058 787 893 877 c 1
826 -209 m 0
 713 -209 574 -243 574 -358 c 0
 574 -472 715 -502 833 -502 c 0
 954 -502 1087 -479 1087 -361 c 0
 1087 -241 944 -209 826 -209 c 0
EndSplineSet
LCarets2: 1 0
EndChar

StartChar: th1th1
Encoding: 65696 -1 277
Width: 3148
GlyphClass: 3
LigCaretCntFixed: 1
Flags: HW
LayerCount: 2
Fore
SplineSet
1571 705 m 1
 1634 879 1787 1015 2018 1015 c 0
 2099 1015 2178 995 2257 955 c 1
 2338 995 2412 1015 2514 1015 c 0
 2819 1012 3048 782 3048 481 c 0
 3048 245 2898 62 2722 -12 c 0
 2717 -14 2713 -15 2708 -15 c 0
 2690 -15 2673 2 2673 20 c 0
 2673 35 2684 48 2695 53 c 0
 2848 118 2978 274 2978 481 c 0
 2978 744 2776 944 2510 944 c 0
 2449 944 2388 933 2331 911 c 1
 2474 811 2588 630 2588 397 c 0
 2588 183 2465 -16 2251 -16 c 0
 2038 -16 1915 180 1915 390 c 0
 1915 623 2037 811 2182 912 c 1
 2126 933 2071 943 2018 943 c 0
 1725 943 1607 733 1605 424 c 2
 1602 19 l 2
 1602 0 1587 -15 1567 -15 c 0
 1548 -15 1532 1 1532 20 c 2
 1534 427 l 1
 1534 734 1415 943 1125 943 c 0
 1073 943 1018 933 962 913 c 1
 1109 815 1232 635 1232 399 c 0
 1232 184 1106 -8 891 -12 c 0
 676 -12 548 186 548 399 c 0
 548 630 664 816 810 913 c 1
 749 935 690 945 634 945 c 0
 378 945 170 740 170 473 c 0
 170 276 293 122 434 53 c 0
 443 48 454 34 454 21 c 0
 454 2 438 -14 419 -14 c 0
 414 -14 409 -13 404 -10 c 0
 242 71 101 245 101 472 c 0
 101 779 347 1015 638 1015 c 0
 718 1015 802 997 886 957 c 1
 963 994 1046 1013 1126 1013 c 0
 1353 1013 1507 878 1571 705 c 1
886 878 m 1
 738 794 618 630 618 404 c 0
 618 227 713 58 890 58 c 0
 1062 58 1161 223 1161 394 c 0
 1161 622 1038 793 886 878 c 1
2257 876 m 1
 2110 785 1984 626 1984 393 c 0
 1984 220 2077 54 2251 54 c 0
 2424 54 2517 223 2517 396 c 0
 2517 620 2403 791 2257 876 c 1
EndSplineSet
LCarets2: 2 0 0
EndChar

StartChar: th1th1u1
Encoding: 65697 -1 278
Width: 3210
GlyphClass: 3
Flags: HW
LayerCount: 2
Fore
SplineSet
974 911 m 1
 1121 801 1249 653 1249 404 c 0
 1249 188 1121 -12 902 -12 c 0
 685 -12 555 187 555 404 c 0
 555 640 675 811 822 911 c 1
 761 933 700 944 643 944 c 0
 383 944 170 752 170 480 c 0
 170 282 293 121 438 52 c 0
 448 46 458 35 458 20 c 0
 458 1 442 -15 423 -15 c 0
 418 -15 412 -14 407 -11 c 0
 243 70 100 249 100 478 c 0
 100 790 351 1013 647 1013 c 0
 728 1013 813 995 898 955 c 1
 977 993 1061 1011 1142 1011 c 0
 1373 1011 1531 891 1594 713 c 1
 1655 890 1814 1007 2048 1007 c 0
 2128 1007 2207 989 2285 951 c 1
 2364 991 2450 1014 2541 1014 c 0
 2877 1014 3110 769 3110 432 c 0
 3110 -60 2731 -254 2220 -254 c 2
 448 -254 l 2
 333 -254 175 -266 175 -376 c 0
 175 -493 339 -500 462 -500 c 2
 3075 -506 l 2
 3094 -506 3110 -523 3110 -542 c 128
 3110 -561 3095 -576 3075 -576 c 2
 469 -569 l 2
 290 -569 105 -547 105 -378 c 0
 105 -216 284 -183 449 -183 c 2
 2220 -184 l 2
 2694 -184 3040 -20 3040 437 c 0
 3040 729 2833 943 2543 943 c 0
 2484 943 2423 932 2360 907 c 1
 2509 806 2627 644 2627 404 c 0
 2627 187 2504 -12 2286 -12 c 0
 2068 -12 1945 186 1945 404 c 0
 1945 647 2064 802 2211 906 c 1
 2155 927 2099 937 2047 937 c 0
 1750 937 1630 741 1628 429 c 2
 1625 24 l 2
 1625 5 1609 -10 1590 -10 c 128
 1571 -10 1555 5 1555 25 c 2
 1557 432 l 1
 1557 746 1437 940 1140 940 c 0
 1087 940 1031 931 974 911 c 1
2285 871 m 1
 2135 784 2013 632 2013 404 c 0
 2013 227 2108 58 2286 58 c 0
 2464 58 2556 225 2556 404 c 0
 2556 635 2436 785 2285 871 c 1
898 876 m 1
 746 791 624 632 624 404 c 0
 624 227 722 58 902 58 c 0
 1079 58 1177 229 1177 404 c 0
 1177 635 1051 789 898 876 c 1
EndSplineSet
LCarets2: 1 0
EndChar

